STARTFONT 2.1
FONT -FreeType-TeX Gyre Adventor-Medium-R-Normal--52-500-75-75-P-331-ISO10646-1
SIZE 50 75 75
FONTBOUNDINGBOX 123 90 -42 -26
COMMENT "Generated by fontforge, http://fontforge.sourceforge.net"
COMMENT "Copyright 2007-2018 for TeX Gyre extensions by B. Jackowski, J.M. Nowacki, et al. (on behalf of TeX USERS GROUPS). Vietnamese characters were added by Han The Thanh."
STARTPROPERTIES 32
FOUNDRY "FreeType"
FAMILY_NAME "TeX Gyre Adventor"
WEIGHT_NAME "Medium"
SLANT "R"
SETWIDTH_NAME "Normal"
ADD_STYLE_NAME ""
PIXEL_SIZE 52
POINT_SIZE 500
RESOLUTION_X 75
RESOLUTION_Y 75
SPACING "P"
AVERAGE_WIDTH 331
CHARSET_REGISTRY "ISO10646"
CHARSET_ENCODING "1"
FONTNAME_REGISTRY ""
CHARSET_COLLECTIONS "ISO8859-2 ISO8859-9 ISO8859-4 ISO10646-1"
FONT_NAME "TeXGyreAdventorMedium"
FACE_NAME "TeX Gyre Adventor Medium"
COPYRIGHT "Copyright 2007-2018 for TeX Gyre extensions by B. Jackowski, J.M. Nowacki, et al. (on behalf of TeX USERS GROUPS). Vietnamese characters were added by Han The Thanh."
FONT_VERSION "001.000"
FONT_ASCENT 36
FONT_DESCENT 16
UNDERLINE_POSITION -5
UNDERLINE_THICKNESS 3
X_HEIGHT 28
CAP_HEIGHT 38
RAW_ASCENT 703
RAW_DESCENT 297
NORM_SPACE 14
FIGURE_WIDTH 29
AVG_LOWERCASE_WIDTH 293
AVG_UPPERCASE_WIDTH 344
ENDPROPERTIES
CHARS 1199
STARTCHAR $0020
ENCODING 32
SWIDTH 259 0
DWIDTH 14 0
BBX 0 0 0 0
BITMAP
ENDCHAR
STARTCHAR $0021
ENCODING 33
SWIDTH 296 0
DWIDTH 16 0
BBX 4 39 6 0
BITMAP
F0
F0
F0
F0
F0
F0
F0
F0
F0
F0
F0
F0
F0
F0
F0
F0
F0
F0
F0
F0
F0
F0
F0
F0
F0
F0
F0
F0
F0
00
00
00
00
F0
F0
F0
F0
F0
E0
ENDCHAR
STARTCHAR $0022
ENCODING 34
SWIDTH 296 0
DWIDTH 16 0
BBX 8 12 4 27
BITMAP
C3
C3
C3
C3
C3
C3
C3
C3
C3
C3
C3
C2
ENDCHAR
STARTCHAR $0023
ENCODING 35
SWIDTH 555 0
DWIDTH 29 0
BBX 29 39 0 0
BITMAP
00380780
00380780
00380780
00380780
00380780
00380780
00300780
00700780
00F00600
00F00600
00F01E00
01F01F00
3FFFFFF8
3FFFFFF8
3FFFFFF8
01F01E00
00F01E00
00C01E00
00C01E00
03C01800
03C01800
03C07800
03C07800
FFFFFFE0
FFFFFFE0
FFFFFFE0
FFFFFFE0
03007800
03007800
0F006000
0F006000
0F01E000
0F01E000
0F01E000
0F01E000
0F01E000
0E01E000
0C01E000
0800E000
ENDCHAR
STARTCHAR $0024
ENCODING 36
SWIDTH 555 0
DWIDTH 29 0
BBX 21 44 4 -1
BITMAP
003000
003000
003000
003000
00F800
00FC00
0FFF80
0FFFC0
3F01E0
3E00F0
3C0078
3C0078
3C0078
3C0000
3C0000
3C0000
3C0000
3E0000
3F0000
0FF800
0FF800
00FF80
00FF80
0007E0
0007E0
0001F8
0001F8
000078
000078
000078
000078
F00078
F00078
F00078
F00078
3C01E0
3C01E0
3FFF80
3FFF80
03FE00
007000
003000
003000
003000
ENDCHAR
STARTCHAR $0025
ENCODING 37
SWIDTH 777 0
DWIDTH 41 0
BBX 39 39 0 0
BITMAP
03F8001E00
03FC001E00
0FFF807800
0FFF807800
3C07807800
3C03807800
F001E1E000
F001E1E000
F001E1E000
F001E1E000
F001E78000
F001E78000
3C07878000
1FFF870000
0FFF860000
07FC0E0000
03F81E0000
00001E0000
00001E0000
0000380000
0000780000
0000781FE0
0000781FE0
0001E1FFF8
0001E1FFF8
0001E7E07C
0001E7E07E
000787801E
000787801E
000787801E
000787801E
000E07801E
000E07801E
000E07E01E
000E07E03C
000E01FFF8
001E01FFF0
0038007FE0
0038003FC0
ENDCHAR
STARTCHAR $0026
ENCODING 38
SWIDTH 740 0
DWIDTH 39 0
BBX 35 39 4 0
BITMAP
003F800000
003F800000
03FFE00000
03FFE00000
0FC0780000
0F80780000
0F00780000
0F00380000
0F00180000
0F00180000
0F00780000
0F00780000
03C1F80000
03FFF01C00
03FFE01E00
01FF007E00
00FE007E00
0FFE007800
0FFE007800
3F1F81F800
3F0F81F800
FC07E1E000
FC07E1E000
F001FFE000
F001FFE000
F0001F8000
F0001F8000
F0001F8000
F0001F8000
F0001FF800
F0001FF800
F000787E00
F000787E00
3C01F81F80
3C01F81F80
0FFFE007E0
0FFFE007C0
03FE000180
03FE000100
ENDCHAR
STARTCHAR $0027
ENCODING 39
SWIDTH 185 0
DWIDTH 10 0
BBX 2 12 4 27
BITMAP
C0
C0
C0
C0
C0
C0
C0
C0
C0
C0
C0
C0
ENDCHAR
STARTCHAR $0028
ENCODING 40
SWIDTH 370 0
DWIDTH 20 0
BBX 13 48 4 -9
BITMAP
0038
0038
00F8
00F8
03F0
03E0
03C0
0380
0F00
0F00
3F00
3E00
3C00
3C00
3C00
3C00
3C00
F000
F000
F000
F000
F000
F000
F000
F000
F000
F000
F000
F000
FC00
FC00
3C00
3C00
3C00
3C00
3C00
3C00
0F00
0F00
0F00
0780
03C0
01E0
00F0
00F8
00F8
0018
0008
ENDCHAR
STARTCHAR $0029
ENCODING 41
SWIDTH 370 0
DWIDTH 20 0
BBX 13 48 2 -9
BITMAP
F000
F000
FC00
FC00
3F00
3F00
0F00
0F00
03C0
03C0
03F0
03F0
00F0
00F0
00F0
00F0
00F0
00F8
00F8
0078
0038
0038
0038
0038
0038
0038
0038
0038
0038
00F8
00F8
00F0
00F0
00F0
00F0
00F0
01E0
03C0
03C0
03C0
0F00
0F00
3C00
3C00
F000
F000
C000
C000
ENDCHAR
STARTCHAR $002A
ENCODING 42
SWIDTH 444 0
DWIDTH 24 0
BBX 19 19 2 20
BITMAP
00F000
00F000
00F000
00F000
F0F780
F0F780
FFFFE0
FFFFE0
0FFE00
0FFE00
0FF800
1FFC00
FFFF80
FDF780
FCF780
00F000
00F000
00F000
00F000
ENDCHAR
STARTCHAR $002B
ENCODING 43
SWIDTH 703 0
DWIDTH 37 0
BBX 29 31 4 -2
BITMAP
00078000
00078000
00078000
00078000
00078000
00078000
00078000
00078000
00078000
00078000
00078000
00078000
00078000
FFFFFFF0
FFFFFFF8
FFFFFFF8
FFFFFFF8
0007C000
00078000
00078000
00078000
00078000
00078000
00078000
00078000
00078000
00078000
00078000
00078000
00078000
00038000
ENDCHAR
STARTCHAR $002C
ENCODING 44
SWIDTH 259 0
DWIDTH 14 0
BBX 8 10 6 -4
BITMAP
3F
3F
3C
3C
3C
3C
F0
F0
F0
F0
ENDCHAR
STARTCHAR $002D
ENCODING 45
SWIDTH 333 0
DWIDTH 18 0
BBX 13 4 2 12
BITMAP
FFF8
FFF8
FFF8
FFF8
ENDCHAR
STARTCHAR $002E
ENCODING 46
SWIDTH 259 0
DWIDTH 14 0
BBX 4 6 6 0
BITMAP
F0
F0
F0
F0
F0
F0
ENDCHAR
STARTCHAR $002F
ENCODING 47
SWIDTH 518 0
DWIDTH 27 0
BBX 19 42 4 -7
BITMAP
0001E0
0001E0
000780
000780
000780
000780
000780
000780
000E00
000E00
000E00
000E00
000E00
003C00
003800
003800
003800
00F800
00F800
00F000
00F000
00F000
00F000
03F000
03F000
03C000
03C000
03C000
03C000
0FC000
0FC000
0F0000
0F0000
0F0000
0E0000
3C0000
3C0000
3C0000
3C0000
3C0000
F00000
F00000
ENDCHAR
STARTCHAR $0030
ENCODING 48
SWIDTH 555 0
DWIDTH 29 0
BBX 25 39 2 0
BITMAP
00FF8000
00FF8000
0FFFF800
0FFFF800
3F007E00
3F007E00
3C001F80
3C001F80
F0000780
F0000780
F0000780
F0000780
F0000780
F0000780
F0000780
F0000780
F0000780
F0000780
F0000780
F0000780
F0000780
F0000780
F0000780
F0000780
F0000780
F0000780
F0000780
F0000780
F0000780
F0000780
F0000780
3C001F80
3C001F80
3F007E00
3F007E00
0FFFF800
0FFFF800
00FFE000
00FFE000
ENDCHAR
STARTCHAR $0031
ENCODING 49
SWIDTH 555 0
DWIDTH 29 0
BBX 12 39 8 0
BITMAP
FFF0
FFF0
FFF0
FFF0
00F0
00F0
00F0
00F0
00F0
00F0
00F0
00F0
00F0
00F0
00F0
00F0
00F0
00F0
00F0
00F0
00F0
00F0
00F0
00F0
00F0
00F0
00F0
00F0
00F0
00F0
00F0
00F0
00F0
00F0
00F0
00F0
00F0
00F0
00E0
ENDCHAR
STARTCHAR $0032
ENCODING 50
SWIDTH 555 0
DWIDTH 29 0
BBX 25 39 2 0
BITMAP
00FF8000
00FF8000
0FFFF800
0FFFF800
3F007E00
3F007E00
3C001E00
3C001E00
F0001F80
F0000F80
F0000780
F0000780
F0000780
00000F00
00001E00
00001E00
00001E00
00003800
00007800
0000F800
0001F800
0003E000
0007E000
000F8000
000F8000
003E0000
003E0000
00F80000
00F80000
03C00000
03C00000
0F000000
0F000000
3C000000
3C000000
FFFFFF80
FFFFFF80
FFFFFF80
FFFFFF80
ENDCHAR
STARTCHAR $0033
ENCODING 51
SWIDTH 555 0
DWIDTH 29 0
BBX 25 39 2 0
BITMAP
00FF8000
00FF8000
03FFE000
03FFE000
0F01F800
0F00F800
3C007800
3C007800
3C007800
38007800
00007800
00007800
00007800
0000F800
0001F800
003FF000
003FE000
003FE000
003FE000
00007800
00007800
00001E00
00001E00
00001E00
00001E00
00000780
00000780
F0000780
F0000780
F0001E00
F0001E00
FC001E00
FC001E00
3F007800
3F007800
0FFFE000
0FFFE000
00FF8000
00FF8000
ENDCHAR
STARTCHAR $0034
ENCODING 52
SWIDTH 555 0
DWIDTH 29 0
BBX 27 39 0 0
BITMAP
00001E00
00001E00
00007E00
00007E00
0001FE00
0001FE00
0001FE00
0001FE00
00079E00
00079E00
000F9E00
000F9E00
000E1E00
003C1E00
00381E00
00F01E00
00F01E00
00F01E00
00F01E00
03C01E00
03C01E00
0F001E00
0F001E00
3F001E00
3F001E00
3C001E00
3C001E00
FFFFFFE0
FFFFFFE0
FFFFFFE0
FFFFFFE0
00001E00
00001E00
00001E00
00001E00
00001E00
00001E00
00001E00
00000E00
ENDCHAR
STARTCHAR $0035
ENCODING 53
SWIDTH 555 0
DWIDTH 29 0
BBX 25 39 2 0
BITMAP
0FFFFE00
0FFFFE00
0FFFFE00
0FFFFE00
0F000000
0F000000
0F000000
0F000000
0F000000
0E000000
0C000000
1C000000
3C3F8000
3FFFF800
3FFFF800
3F007E00
3F007E00
3C001E00
3C001E00
00000780
00000780
00000780
00000780
00000780
00000780
F0000780
F0000780
F0000780
F0000780
F0000780
F0000780
3C001E00
3C001E00
3F007E00
3F007E00
0FFFF800
0FFFF800
00FF8000
00FF8000
ENDCHAR
STARTCHAR $0036
ENCODING 54
SWIDTH 555 0
DWIDTH 29 0
BBX 25 39 2 0
BITMAP
00078000
00078000
000E0000
001E0000
003E0000
003E0000
00380000
00780000
00F00000
01E00000
03C00000
03C00000
03FF8000
0FFFF800
0FFFF800
3F007E00
3F007E00
3C001E00
3C001E00
F0000780
F0000780
F0000780
F0000780
F0000780
F0000780
F0000780
F0000780
F0000780
F0000780
F0000780
F0000780
FC001E00
FC001E00
3F007E00
3F007E00
0FFFF800
0FFFF800
00FF8000
00FF8000
ENDCHAR
STARTCHAR $0037
ENCODING 55
SWIDTH 555 0
DWIDTH 29 0
BBX 21 39 4 0
BITMAP
FFFFF8
FFFFF8
FFFFF8
FFFFF8
000078
000078
0001E0
0001E0
0001E0
0001E0
0001E0
0001E0
000780
000780
000780
000F00
000E00
000E00
000E00
003C00
003800
003800
003800
00F000
00F000
00F000
00F000
03F000
03E000
03C000
03C000
03C000
038000
0F0000
0F0000
0F0000
0E0000
3C0000
380000
ENDCHAR
STARTCHAR $0038
ENCODING 56
SWIDTH 555 0
DWIDTH 29 0
BBX 25 39 2 0
BITMAP
00FF8000
00FF8000
03FFE000
03FFE000
0F007800
0F007800
3C007E00
3C003E00
3C001E00
3C001E00
3C001E00
3C001E00
3F007E00
1F80FC00
0FC1F800
07FFF000
03FFE000
0FFFF800
0FFFF800
3F007E00
3F007E00
3C001E00
3C001E00
F0000780
F0000780
F0000780
F0000780
F0000780
F0000780
F0000780
F0000780
3C001E00
3C001E00
3F007E00
3F007E00
0FFFF800
0FFFF800
00FF8000
00FF8000
ENDCHAR
STARTCHAR $0039
ENCODING 57
SWIDTH 555 0
DWIDTH 29 0
BBX 25 39 2 0
BITMAP
00FF8000
00FF8000
0FFFF800
0FFFF800
3F007E00
3F007E00
3C001F80
3C001F80
F0000780
F0000780
F0000780
F0000780
F0000780
F0000780
F0000780
F0000780
F0000780
F0000780
F0000780
3C001E00
3C001E00
3F007E00
3F007E00
0FFFF800
0FFFF800
00FFE000
00FFE000
0007E000
0007E000
00078000
00078000
000E0000
001E0000
003E0000
003E0000
00380000
00780000
00F00000
00E00000
ENDCHAR
STARTCHAR $003A
ENCODING 58
SWIDTH 259 0
DWIDTH 14 0
BBX 4 25 6 1
BITMAP
F0
F0
F0
F0
F0
F0
00
00
00
00
00
00
00
00
00
00
00
00
00
F0
F0
F0
F0
F0
F0
ENDCHAR
STARTCHAR $003B
ENCODING 59
SWIDTH 259 0
DWIDTH 14 0
BBX 8 29 2 -4
BITMAP
0F
0F
0F
0F
0F
0F
00
00
00
00
00
00
00
00
00
00
00
00
00
0F
0F
0F
0F
3C
3C
3C
3C
F0
F0
ENDCHAR
STARTCHAR $003C
ENCODING 60
SWIDTH 740 0
DWIDTH 39 0
BBX 31 37 4 -6
BITMAP
0000001E
0000001E
000001FE
000001FE
00001FF8
00001FF8
00007F80
00007F80
0007F800
0007F800
003F8000
007F8000
03F80000
0FF00000
0FF00000
FF000000
FF000000
FC000000
FC000000
3F800000
3FC00000
0FE00000
0FF00000
00FE0000
00FE0000
000FE000
000FE000
0001FE00
0001FE00
00001FE0
00001FE0
000007F8
000007F8
0000007E
0000007E
00000006
00000004
ENDCHAR
STARTCHAR $003D
ENCODING 61
SWIDTH 703 0
DWIDTH 37 0
BBX 29 15 4 7
BITMAP
FFFFFFF8
FFFFFFF8
FFFFFFF8
FFFFFFF8
00000000
00000000
00000000
00000000
00000000
00000000
00000000
00000000
FFFFFFF8
FFFFFFF8
FFFFFFF8
ENDCHAR
STARTCHAR $003E
ENCODING 62
SWIDTH 740 0
DWIDTH 39 0
BBX 31 37 4 -6
BITMAP
F0000000
F0000000
FC000000
FC000000
3FC00000
3FC00000
03F80000
03FC0000
003F8000
003FC000
000FF800
000FFC00
0001FE00
00001FC0
00001FE0
000001FC
000001FE
0000007E
0000007E
000007F8
000007F8
00007F80
00007F80
0003FE00
0007FE00
000FE000
000FE000
00FE0000
00FE0000
0FF00000
0FE00000
FF000000
FF000000
FC000000
FC000000
C0000000
C0000000
ENDCHAR
STARTCHAR $003F
ENCODING 63
SWIDTH 592 0
DWIDTH 31 0
BBX 23 39 4 0
BITMAP
03FF80
03FF80
0FFFE0
0FFFE0
3C01F8
3C00F8
F0001E
F0001E
F0001E
F0001E
F0001E
F0001E
F0001E
00001E
00001E
00003C
000078
0000F8
0001F8
0003C0
000780
000F00
000E00
000E00
000E00
003C00
003800
003800
003800
000000
000000
000000
000000
003800
003800
003800
003800
003800
003800
ENDCHAR
STARTCHAR $0040
ENCODING 64
SWIDTH 851 0
DWIDTH 45 0
BBX 39 39 4 0
BITMAP
0007FF8000
0007FF8000
003F87FE00
003F87FE00
03F0000780
03E0000780
0F000001E0
0E000001E0
0C01FF8078
0C01FF8078
3C07E79818
3807E39818
300E01F818
F03C007818
F038007818
C03801E01C
C03801E01E
C0F001E018
C0F001E018
C0F001E018
C0F001E018
C0F0078078
C0F0078078
F0F0078060
F0F0078060
30F01F81E0
30F01F81E0
3C3FFF9F80
3C3FFF9F80
0C0FE7F800
0C0FE7F800
0F00000180
0F00000180
03F0000780
03F0000700
003F81FE00
003FC1FC00
0007FF8000
0003FF8000
ENDCHAR
STARTCHAR $0041
ENCODING 65
SWIDTH 740 0
DWIDTH 39 0
BBX 35 39 2 0
BITMAP
0001E00000
0001E00000
0007F80000
0007F80000
0007F80000
0007F80000
000E1E0000
000E1E0000
000E1E0000
001E1E0000
003E1E0000
003E0F0000
0038078000
0038078000
0038078000
00F001E000
00F001E000
00F001E000
00F001E000
03C001F800
03C001F800
03FFFFF800
03FFFFF800
0FFFFFF800
0FFFFFF800
0F00001E00
0F00001E00
0F00001E00
0F00001E00
3C00000780
3C00000780
3C00000780
3C00000780
F0000007E0
F0000007E0
F0000001E0
F0000001E0
F0000001E0
E0000001C0
ENDCHAR
STARTCHAR $0042
ENCODING 66
SWIDTH 592 0
DWIDTH 31 0
BBX 25 39 4 0
BITMAP
FFFE0000
FFFE0000
FFFFE000
FFFFE000
F001F800
F000F800
F0007800
F0007800
F0007E00
F0003E00
F0001E00
F0001E00
F0007800
F0007800
F0007800
F000F800
F001F800
FFFFF000
FFFFE000
FFFFF800
FFFFF800
F0007E00
F0007E00
F0001E00
F0001E00
F0000780
F0000780
F0000780
F0000780
F0000780
F0000780
F0001E00
F0001E00
F0007E00
F0007E00
FFFFF800
FFFFF800
FFFF8000
FFFF8000
ENDCHAR
STARTCHAR $0043
ENCODING 67
SWIDTH 814 0
DWIDTH 43 0
BBX 39 39 2 0
BITMAP
0007FFE000
0007FFE000
003FFFFE00
003FFFFE00
03F8001FE0
03F8001FE0
0FC00001F8
0F800001F8
0F00000078
0E00000070
3C00000000
3C00000000
3C00000000
FC00000000
FC00000000
F000000000
F000000000
F000000000
F000000000
F000000000
F000000000
F000000000
F000000000
3C00000000
3C00000000
3C00000000
3C00000000
3F0000001E
3F0000001C
0FC0000078
0FC0000070
03F00001E0
03F00001C0
00F8001F80
00FC001F00
003FFFFE00
003FFFFC00
0007FFE000
0003FFC000
ENDCHAR
STARTCHAR $0044
ENCODING 68
SWIDTH 740 0
DWIDTH 39 0
BBX 33 39 4 0
BITMAP
FFFFE00000
FFFFE00000
FFFFFE0000
FFFFFE0000
F0001FE000
F0001FE000
F00001F800
F00001F800
F000007800
F000007800
F000001E00
F000001E00
F000001E00
F000000F00
F000000780
F000000780
F000000780
F000000780
F000000780
F000000780
F000000780
F000000780
F000000780
F000000780
F000000780
F000001E00
F000001E00
F000001E00
F000001E00
F000007800
F000007800
F00001F800
F00001F800
F0001FE000
F0001FE000
FFFFFE0000
FFFFFE0000
FFFFE00000
FFFFE00000
ENDCHAR
STARTCHAR $0045
ENCODING 69
SWIDTH 518 0
DWIDTH 27 0
BBX 21 39 4 0
BITMAP
FFFFF8
FFFFF8
FFFFF8
FFFFF8
F00000
F00000
F00000
F00000
F00000
F00000
F00000
F00000
F00000
F00000
F00000
F00000
F00000
FFFFF8
FFFFF8
FFFFF8
FFFFF8
F00000
F00000
F00000
F00000
F00000
F00000
F00000
F00000
F00000
F00000
F00000
F00000
F00000
F00000
FFFFF8
FFFFF8
FFFFF8
FFFFF8
ENDCHAR
STARTCHAR $0046
ENCODING 70
SWIDTH 481 0
DWIDTH 26 0
BBX 19 39 4 0
BITMAP
FFFFE0
FFFFE0
FFFFE0
FFFFE0
F00000
F00000
F00000
F00000
F00000
F00000
F00000
F00000
F00000
F00000
F00000
F00000
F00000
FFFFE0
FFFFE0
FFFFE0
FFFFE0
F00000
F00000
F00000
F00000
F00000
F00000
F00000
F00000
F00000
F00000
F00000
F00000
F00000
F00000
F00000
F00000
F00000
E00000
ENDCHAR
STARTCHAR $0047
ENCODING 71
SWIDTH 888 0
DWIDTH 47 0
BBX 40 39 2 0
BITMAP
0001FFE000
0001FFE000
003FFFFF80
003FFFFF80
00F8001FE0
00F8001FE0
03F00001F8
03E00001F8
0F0000007E
0F0000007E
3F0000001E
3E0000001C
3C00000000
3C00000000
3C00000000
F000000000
F000000000
F000000000
F000000000
F000000000
F000000000
F000FFFFFF
F001FFFFFF
FC01FFFFFF
FC01FFFFFF
3C00000007
3C00000007
3F0000001E
3F0000001E
0F0000001E
0F0000001C
03F00001F8
03F00001F0
00F80007E0
00FC0007C0
003FFFFF80
003FFFFF00
0001FFE000
0000FFC000
ENDCHAR
STARTCHAR $0048
ENCODING 72
SWIDTH 666 0
DWIDTH 35 0
BBX 27 39 4 0
BITMAP
F00001E0
F00001E0
F00001E0
F00001E0
F00001E0
F00001E0
F00001E0
F00001E0
F00001E0
F00001E0
F00001E0
F00001E0
F00001E0
F00001E0
F00001E0
F00001E0
F00001E0
FFFFFFE0
FFFFFFE0
FFFFFFE0
FFFFFFE0
F00001E0
F00001E0
F00001E0
F00001E0
F00001E0
F00001E0
F00001E0
F00001E0
F00001E0
F00001E0
F00001E0
F00001E0
F00001E0
F00001E0
F00001E0
F00001E0
F00001E0
E00000C0
ENDCHAR
STARTCHAR $0049
ENCODING 73
SWIDTH 222 0
DWIDTH 12 0
BBX 4 39 4 0
BITMAP
F0
F0
F0
F0
F0
F0
F0
F0
F0
F0
F0
F0
F0
F0
F0
F0
F0
F0
F0
F0
F0
F0
F0
F0
F0
F0
F0
F0
F0
F0
F0
F0
F0
F0
F0
F0
F0
F0
E0
ENDCHAR
STARTCHAR $004A
ENCODING 74
SWIDTH 481 0
DWIDTH 26 0
BBX 21 39 0 0
BITMAP
000078
000078
000078
000078
000078
000078
000078
000078
000078
000078
000078
000078
000078
000078
000078
000078
000078
000078
000078
000078
000078
000078
000078
000078
000078
000078
000078
000078
000078
F00078
F00078
3C01F8
3C01F8
3F01E0
3F01E0
0FFF80
0FFF80
03FE00
03FE00
ENDCHAR
STARTCHAR $004B
ENCODING 75
SWIDTH 592 0
DWIDTH 31 0
BBX 25 39 4 0
BITMAP
F0000780
F0000780
F0001F80
F0001F80
F0007E00
F0007E00
F001F800
F001F800
F001E000
F001E000
F0078000
F0078000
F00F8000
F03F0000
F03E0000
F0FC0000
F0F80000
F0F00000
F0F00000
F3F00000
F3F00000
FF380000
FF380000
FF1E0000
FF0E0000
FC0F8000
FC0F8000
F007E000
F003E000
F001E000
F000E000
F0007800
F0007800
F0007E00
F0003E00
F0001F80
F0000F80
F0000780
E0000380
ENDCHAR
STARTCHAR $004C
ENCODING 76
SWIDTH 444 0
DWIDTH 24 0
BBX 19 39 4 0
BITMAP
F00000
F00000
F00000
F00000
F00000
F00000
F00000
F00000
F00000
F00000
F00000
F00000
F00000
F00000
F00000
F00000
F00000
F00000
F00000
F00000
F00000
F00000
F00000
F00000
F00000
F00000
F00000
F00000
F00000
F00000
F00000
F00000
F00000
F00000
F00000
FFFFE0
FFFFE0
FFFFE0
FFFFE0
ENDCHAR
STARTCHAR $004D
ENCODING 77
SWIDTH 925 0
DWIDTH 49 0
BBX 40 39 4 0
BITMAP
FC0000007F
FC0000007F
FF0000007F
FF0000007F
FF0000007F
FF0000007F
F3C00001E7
F3C00001E7
F3C00001E7
F3C00001C7
F3C0000787
F3C0000787
F0F0000787
F0F0001F87
F0F0001F87
F078001E07
F038001E07
F038001E07
F038001E07
F01E007807
F00E007807
F00E007807
F00E007807
F00E01E007
F00E01E007
F00781E007
F00781E007
F00787E007
F00387E007
F001E78007
F001E78007
F001E78007
F001E78007
F001FE0007
F000FE0007
F0007E0007
F0007E0007
F000780007
E000380007
ENDCHAR
STARTCHAR $004E
ENCODING 78
SWIDTH 740 0
DWIDTH 39 0
BBX 31 39 4 0
BITMAP
FC00001E
FC00001E
FF00001E
FF00001E
FF00001E
FF00001E
F3C0001E
F3C0001E
F3F0001E
F3F0001E
F0F0001E
F0F0001E
F038001E
F03E001E
F03E001E
F01E001E
F00E001E
F007801E
F007801E
F007E01E
F007E01E
F001F81E
F001F81E
F000781E
F000781E
F0001E1E
F0001E1E
F0001F9E
F0001F9E
F000079E
F000079E
F00001FE
F00001FE
F00001FE
F00001FE
F000007E
F000007E
F000001E
E000001C
ENDCHAR
STARTCHAR $004F
ENCODING 79
SWIDTH 851 0
DWIDTH 45 0
BBX 40 39 2 0
BITMAP
0001FFE000
0001FFE000
003FFFFE00
003FFFFE00
00F8001FE0
00F8001FE0
03F00001F8
03E00001F8
0F0000007E
0F0000007E
3F0000001E
3E0000001E
3C0000001F
3C0000000F
3C00000007
F000000007
F000000007
F000000007
F000000007
F000000007
F000000007
F000000007
F000000007
3C00000007
3C00000007
3C0000001F
3C0000001F
3F0000001E
3F0000001E
0FC000007E
0FC000007C
03F00001F8
03F00001F0
00F8001FE0
00FC001FC0
003FFFFE00
003FFFFC00
0007FFE000
0003FFC000
ENDCHAR
STARTCHAR $0050
ENCODING 80
SWIDTH 592 0
DWIDTH 31 0
BBX 25 39 4 0
BITMAP
FFFFE000
FFFFE000
FFFFFE00
FFFFFE00
F0001E00
F0001E00
F0000780
F0000780
F0000780
F0000780
F0000780
F0000780
F0000780
F0000780
F0000780
F0000780
F0000780
F0003E00
F0007E00
FFFFF800
FFFFF800
FFFF8000
FFFF8000
F0000000
F0000000
F0000000
F0000000
F0000000
F0000000
F0000000
F0000000
F0000000
F0000000
F0000000
F0000000
F0000000
F0000000
F0000000
E0000000
ENDCHAR
STARTCHAR $0051
ENCODING 81
SWIDTH 888 0
DWIDTH 47 0
BBX 42 39 2 0
BITMAP
0001FFF80000
0001FFF80000
003FFFFF8000
003FFFFF8000
00F8001FE000
00F8001FE000
03F00001F800
03E00001F800
0FC000007E00
0F8000007E00
3F0000001F00
3E0000001F00
3C0000000700
3C0000000700
3C0000000700
F000000007C0
F000000007C0
F000000003C0
F000000001C0
F000000001C0
F000000001C0
F000000001C0
F000000001C0
F3FFF8000780
F3FFF8000700
3FFFFF800700
3FFFFF800700
3C0007F81F00
3C0007F81F00
0F00007E1E00
0F00007E1C00
03F0001FF800
03F0001FF800
00FE0007F800
00FF0007F800
003FFFFFFF00
003FFFFFFF00
0007FFE00700
0003FFC00700
ENDCHAR
STARTCHAR $0052
ENCODING 82
SWIDTH 592 0
DWIDTH 31 0
BBX 27 39 4 0
BITMAP
FFFF8000
FFFF8000
FFFFF800
FFFFF800
F0007E00
F0007E00
F0000780
F0000780
F0000780
F0000780
F00007E0
F00003E0
F00001E0
F00003E0
F00007E0
F0000780
F0000780
F0000780
F0000780
F0003E00
F0007E00
F0FFF800
F0FFF800
F03E0000
F03E0000
F00E0000
F00E0000
F0078000
F0078000
F007E000
F003E000
F001F800
F000F800
F0007800
F0003800
F0001E00
F0001E00
F0001F80
E0000F80
ENDCHAR
STARTCHAR $0053
ENCODING 83
SWIDTH 481 0
DWIDTH 26 0
BBX 23 39 2 0
BITMAP
03FE00
03FE00
0FFFE0
0FFFE0
3F01F8
3F00F8
3C0078
3C0078
F00078
F00038
F00000
F00000
FC0000
7E0000
3F0000
0FE000
0FF000
03FF80
03FF80
001FE0
000FE0
0001F8
0001F8
00007E
00007E
00001E
00001E
F0001E
F0001E
F0001E
F0001E
FC0078
FC0078
3F01F8
3F01F8
0FFFE0
0FFFE0
03FE00
03FE00
ENDCHAR
STARTCHAR $0054
ENCODING 84
SWIDTH 444 0
DWIDTH 24 0
BBX 21 39 0 0
BITMAP
FFFFF8
FFFFF8
FFFFF8
FFFFF8
003800
003800
003800
003800
003800
003800
003800
003800
003800
003800
003800
003800
003800
003800
003800
003800
003800
003800
003800
003800
003800
003800
003800
003800
003800
003800
003800
003800
003800
003800
003800
003800
003800
003800
003800
ENDCHAR
STARTCHAR $0055
ENCODING 85
SWIDTH 666 0
DWIDTH 35 0
BBX 27 39 4 0
BITMAP
F00001E0
F00001E0
F00001E0
F00001E0
F00001E0
F00001E0
F00001E0
F00001E0
F00001E0
F00001E0
F00001E0
F00001E0
F00001E0
F00001E0
F00001E0
F00001E0
F00001E0
F00001E0
F00001E0
F00001E0
F00001E0
F00001E0
F00001E0
F00001E0
F00001E0
F00001E0
F00001E0
F0000780
F0000780
FC000780
FC000780
3C000780
3C000780
3F001E00
3F001E00
0FFFF800
0FFFF800
00FFE000
00FFE000
ENDCHAR
STARTCHAR $0056
ENCODING 86
SWIDTH 703 0
DWIDTH 37 0
BBX 35 39 0 0
BITMAP
FC000001E0
FC000001E0
3C000001E0
3C000001E0
3C000001E0
3C000001E0
0F00000780
0F00000780
0F00000780
0F00000700
03C0001E00
03C0001E00
03C0001E00
03C0003E00
03C0007E00
01E0007800
00F0007800
00F0007800
00F0007800
007801E000
003801E000
003801E000
003801E000
003807E000
003807E000
000E078000
000E078000
000E078000
000E078000
00079E0000
00079E0000
00079E0000
0007DE0000
0007F80000
0003F80000
0001F80000
0001F80000
0001F80000
0000F80000
ENDCHAR
STARTCHAR $0057
ENCODING 87
SWIDTH 962 0
DWIDTH 51 0
BBX 48 39 0 0
BITMAP
F00001E0000F
F00001E0000F
3C0001E0000F
3C0001E0000F
3C0007F8000F
3C0007F8000F
3C0007F8000F
3C0007F8000F
0F0007F8003C
0F0007F8003C
0F001E78003C
0F001E78003C
0F001E1E003C
0F001E1E0078
0F001E1E00F0
07801E1E00F0
03C01E1E00F0
03C0381F00F0
03C0781F80F0
03C0780780F0
03C0780780F0
00E0780781C0
00F0780781C0
00F0780781C0
00F0780781C0
00F1E001E1C0
00F1E001E3C0
00F1E001E700
00F1E001E700
0039E001E700
003DE001E700
003F8001E700
003F8001EF00
003F80007F00
003F80007F00
000F80007E00
000F80007E00
000F80007E00
000F80007C00
ENDCHAR
STARTCHAR $0058
ENCODING 88
SWIDTH 592 0
DWIDTH 31 0
BBX 29 39 2 0
BITMAP
F00001E0
F00001E0
3C0007E0
3C0007E0
3F000780
3F000780
0F001F80
0F001F80
03C01E00
03C01E00
03F07800
03F07800
00F1F800
00F9F000
00F9E000
007FC000
003F8000
001F8000
000F8000
003F8000
003F8000
003FE000
003FE000
00FDE000
00F9E000
00F07800
00F07800
03C07E00
03C07E00
0FC01E00
0FC01E00
0F000780
0F000780
3C0007E0
3C0007E0
FC0001E0
F80001E0
F0000078
E0000030
ENDCHAR
STARTCHAR $0059
ENCODING 89
SWIDTH 592 0
DWIDTH 31 0
BBX 31 39 0 0
BITMAP
FC00007E
FC00007E
3C000078
3C000078
3F0001F8
3F0001F8
0F0001E0
0F0001E0
0FC007E0
0FC007E0
03C00780
03C00780
03F01F80
01F01F00
00F01E00
00F83C00
00F87800
00787800
00387800
003FE000
003FE000
001FE000
000FE000
00078000
00078000
00078000
00078000
00078000
00078000
00078000
00078000
00078000
00078000
00078000
00078000
00078000
00078000
00078000
00038000
ENDCHAR
STARTCHAR $005A
ENCODING 90
SWIDTH 481 0
DWIDTH 26 0
BBX 25 39 0 0
BITMAP
3FFFFE00
3FFFFE00
3FFFFE00
3FFFFE00
00001E00
00001E00
00007800
00007800
00007800
00007800
0001E000
0001E000
0007E000
0007C000
00078000
000F8000
000F8000
000F0000
000E0000
003C0000
00380000
00F80000
00F80000
00F00000
00F00000
03F00000
03F00000
03C00000
03C00000
0F000000
0F000000
3F000000
3F000000
3C000000
3C000000
FFFFFF80
FFFFFF80
FFFFFF80
FFFFFF80
ENDCHAR
STARTCHAR $005B
ENCODING 91
SWIDTH 333 0
DWIDTH 18 0
BBX 12 50 4 -11
BITMAP
FFF0
FFF0
FFF0
FFE0
F000
F000
F000
F000
F000
F000
F000
F000
F000
F000
F000
F000
F000
F000
F000
F000
F000
F000
F000
F000
F000
F000
F000
F000
F000
F000
F000
F000
F000
F000
F000
F000
F000
F000
F000
F000
F000
F000
F000
F000
F000
F000
FFE0
FFF0
FFF0
FFF0
ENDCHAR
STARTCHAR $005C
ENCODING 92
SWIDTH 518 0
DWIDTH 27 0
BBX 19 42 4 -7
BITMAP
F00000
F00000
FC0000
FC0000
3C0000
3C0000
3C0000
3C0000
0F0000
0F0000
0F0000
0F0000
0F0000
078000
03C000
03C000
03C000
03C000
03C000
00E000
00F000
00F000
00F000
00F000
00F000
003800
003800
003800
003800
003800
003C00
000E00
000E00
000E00
000E00
000E00
000F00
000780
000780
000780
0007E0
0007E0
ENDCHAR
STARTCHAR $005D
ENCODING 93
SWIDTH 333 0
DWIDTH 18 0
BBX 12 50 2 -11
BITMAP
FFF0
FFF0
FFF0
FFF0
00F0
00F0
00F0
00F0
00F0
00F0
00F0
00F0
00F0
00F0
00F0
00F0
00F0
00F0
00F0
00F0
00F0
00F0
00F0
00F0
00F0
00F0
00F0
00F0
00F0
00F0
00F0
00F0
00F0
00F0
00F0
00F0
00F0
00F0
00F0
00F0
00F0
00F0
00F0
00F0
00F0
00F0
FFF0
FFF0
FFF0
FFF0
ENDCHAR
STARTCHAR $005E
ENCODING 94
SWIDTH 592 0
DWIDTH 31 0
BBX 29 29 2 10
BITMAP
000F8000
000F8000
003F8000
003F8000
003F8000
003F8000
0039E000
0079E000
00F1E000
00F0F000
00F07800
01E07800
03C07800
03C07E00
03C07E00
0F001E00
0F001E00
0F001E00
0F001E00
3F000780
3F000780
3C000780
3C000780
3C0001E0
3C0001E0
F00001E0
F00001E0
F00001F8
F00001F8
ENDCHAR
STARTCHAR $005F
ENCODING 95
SWIDTH 518 0
DWIDTH 27 0
BBX 25 4 0 -8
BITMAP
FFFFFF80
FFFFFF80
FFFFFF80
FFFFFF80
ENDCHAR
STARTCHAR $0060
ENCODING 96
SWIDTH 370 0
DWIDTH 20 0
BBX 12 8 2 33
BITMAP
FC00
FC00
3F00
3F00
03F0
03E0
00C0
0080
ENDCHAR
STARTCHAR $0061
ENCODING 97
SWIDTH 666 0
DWIDTH 35 0
BBX 31 29 2 0
BITMAP
003FF81E
003FF81E
03FFFF9E
03FFFF9E
0FC007FE
0F8007FE
3F0001FE
3E0001FE
3C00007E
3C00007E
FC00007E
F800007E
F000001E
F000001E
F000001E
F000001E
F000001E
FC00007E
FC00007E
3C00007E
3C00007E
3F0001FE
3F0001FE
0FC0079E
0FC0079E
03FFFE1E
03FFFE1E
003FF81E
003FF81E
ENDCHAR
STARTCHAR $0062
ENCODING 98
SWIDTH 666 0
DWIDTH 35 0
BBX 29 39 4 0
BITMAP
F0000000
F0000000
F0000000
F0000000
F0000000
F0000000
F0000000
F0000000
F0000000
F0000000
F03FE000
F07FF000
F3FFFE00
FFC01F80
FFC01F80
FC0001E0
FC0001E0
F00001F8
F00001F8
F0000078
F0000078
F0000078
F0000078
F0000078
F0000078
F0000078
F0000078
F0000078
F0000078
FC0001F8
FC0001F8
FC0001E0
FC0001E0
FFC01F80
FFC01F80
F3FFFE00
F3FFFE00
F03FE000
E03FE000
ENDCHAR
STARTCHAR $0063
ENCODING 99
SWIDTH 629 0
DWIDTH 33 0
BBX 29 29 2 0
BITMAP
003FF800
003FF800
03FFFF80
03FFFF80
0FC007E0
0F8007E0
3F0001F8
3E0001F8
3C000078
3C000078
FC000000
F8000000
F0000000
F0000000
F0000000
F0000000
F0000000
FC000000
FC000000
3C000078
3C000078
3F0001F8
3F0001F8
0FC007E0
0FC007E0
03FFFF80
03FFFF80
003FF800
003FF800
ENDCHAR
STARTCHAR $0064
ENCODING 100
SWIDTH 703 0
DWIDTH 37 0
BBX 31 39 2 0
BITMAP
0000001E
0000001E
0000001E
0000001E
0000001E
0000001E
0000001E
0000001E
0000001E
0000001E
003FF81E
007FFC1E
03FFFF9E
0FC007FE
0FC007FE
3F0001FE
3F0001FE
3C00007E
3C00007E
FC00007E
FC00007E
F000001E
F000001E
F000001E
F000001E
F000001E
F000001E
FC00001E
FC00001E
3C00007E
3C00007E
3F0001FE
3F0001FE
0FC0079E
0FC0079E
03FFFE1E
03FFFE1E
003FF81E
003FF81C
ENDCHAR
STARTCHAR $0065
ENCODING 101
SWIDTH 666 0
DWIDTH 35 0
BBX 29 29 2 0
BITMAP
003FF800
003FF800
03FFFF80
03FFFF80
0FC007E0
0F8007E0
3F0001E0
3E0001E0
3C000078
38000078
F0000078
F0000078
FFFFFFF8
FFFFFFF8
FFFFFFF8
F0000000
F0000000
F0000000
F0000000
3C000078
3C000078
3F0001E0
3F0001E0
0FC00780
0FC00780
03FFFE00
03FFFE00
003FE000
003FE000
ENDCHAR
STARTCHAR $0066
ENCODING 102
SWIDTH 296 0
DWIDTH 16 0
BBX 15 39 0 0
BITMAP
000E
000E
00FE
00FE
03F0
03E0
03C0
03C0
03C0
07C0
FFFE
FFFE
FFFE
07C0
03C0
03C0
03C0
03C0
03C0
03C0
03C0
03C0
03C0
03C0
03C0
03C0
03C0
03C0
03C0
03C0
03C0
03C0
03C0
03C0
03C0
03C0
03C0
03C0
0380
ENDCHAR
STARTCHAR $0067
ENCODING 103
SWIDTH 666 0
DWIDTH 35 0
BBX 29 40 2 -11
BITMAP
003FF878
003FF878
03FFFE78
03FFFE78
0FC01FF8
0F801FF8
3F0001F8
3E0001F8
3C000078
38000078
F0000078
F0000078
F0000078
F0000078
F0000078
F0000078
F0000078
FC000078
FC000078
3C000078
3C000078
3F0001F8
3F0001F8
0FC007F8
0FC007F8
03FFFE78
03FFFE78
003FE078
003FE078
3C000078
3C000078
3C000078
3C000078
0F0001E0
0F0001E0
0FF007E0
0FF007E0
03FFFF80
03FFFF80
000FF800
ENDCHAR
STARTCHAR $0068
ENCODING 104
SWIDTH 592 0
DWIDTH 31 0
BBX 25 39 4 0
BITMAP
F0000000
F0000000
F0000000
F0000000
F0000000
F0000000
F0000000
F0000000
F0000000
F0000000
F0FF8000
F1FFC000
FFFFF800
FF007E00
FF007E00
FC001E00
FC001E00
F0001E00
F0001E00
F0000780
F0000780
F0000780
F0000780
F0000780
F0000780
F0000780
F0000780
F0000780
F0000780
F0000780
F0000780
F0000780
F0000780
F0000780
F0000780
F0000780
F0000780
F0000780
E0000380
ENDCHAR
STARTCHAR $0069
ENCODING 105
SWIDTH 185 0
DWIDTH 10 0
BBX 4 39 4 0
BITMAP
F0
F0
F0
F0
F0
F0
00
00
00
00
F0
F0
F0
F0
F0
F0
F0
F0
F0
F0
F0
F0
F0
F0
F0
F0
F0
F0
F0
F0
F0
F0
F0
F0
F0
F0
F0
F0
E0
ENDCHAR
STARTCHAR $006A
ENCODING 106
SWIDTH 185 0
DWIDTH 10 0
BBX 10 48 -2 -9
BITMAP
03C0
03C0
03C0
03C0
03C0
0380
0000
0000
0000
0000
03C0
03C0
03C0
03C0
03C0
03C0
03C0
03C0
03C0
03C0
03C0
03C0
03C0
03C0
03C0
03C0
03C0
03C0
03C0
03C0
03C0
03C0
03C0
03C0
03C0
03C0
03C0
03C0
03C0
03C0
0F00
0F00
0F00
0F00
FC00
FC00
F000
F000
ENDCHAR
STARTCHAR $006B
ENCODING 107
SWIDTH 518 0
DWIDTH 27 0
BBX 21 39 4 0
BITMAP
F00000
F00000
F00000
F00000
F00000
F00000
F00000
F00000
F00000
F00000
F001F8
F001F8
F007E0
F007C0
F00780
F00F00
F00E00
F03E00
F03E00
F0FC00
F0F800
F0F000
F0F000
F3C000
F3C000
FFF000
FFF000
FFF800
FFFC00
FC3E00
FC3F00
F00F80
F00F80
F00780
F003C0
F001E0
F001F0
F001F8
E000F8
ENDCHAR
STARTCHAR $006C
ENCODING 108
SWIDTH 185 0
DWIDTH 10 0
BBX 4 39 4 0
BITMAP
F0
F0
F0
F0
F0
F0
F0
F0
F0
F0
F0
F0
F0
F0
F0
F0
F0
F0
F0
F0
F0
F0
F0
F0
F0
F0
F0
F0
F0
F0
F0
F0
F0
F0
F0
F0
F0
F0
E0
ENDCHAR
STARTCHAR $006D
ENCODING 109
SWIDTH 925 0
DWIDTH 49 0
BBX 42 29 4 0
BITMAP
F3FE007FE000
F3FE007FE000
FFFFE1FFFE00
FFFFE1FFFE00
FC01FF801F00
FC00FF801F00
F0007E000700
F0007E000700
F0007E000700
F0003E000780
F0001E0001C0
F0001E0001C0
F0001E0001C0
F0001E0001C0
F0001E0001C0
F0001E0001C0
F0001E0001C0
F0001E0001C0
F0001E0001C0
F0001E0001C0
F0001E0001C0
F0001E0001C0
F0001E0001C0
F0001E0001C0
F0001E0001C0
F0001E0001C0
F0001E0001C0
F0001E0001C0
F0001E0001C0
ENDCHAR
STARTCHAR $006E
ENCODING 110
SWIDTH 592 0
DWIDTH 31 0
BBX 25 29 4 0
BITMAP
F0FF8000
F0FF8000
FFFFF800
FFFFF800
FF007E00
FF007E00
FC001E00
FC001E00
F0001E00
F0000E00
F0000780
F0000780
F0000780
F0000780
F0000780
F0000780
F0000780
F0000780
F0000780
F0000780
F0000780
F0000780
F0000780
F0000780
F0000780
F0000780
F0000780
F0000780
F0000780
ENDCHAR
STARTCHAR $006F
ENCODING 111
SWIDTH 666 0
DWIDTH 35 0
BBX 31 29 2 0
BITMAP
003FF800
003FF800
03FFFF80
03FFFF80
0FC007E0
0F8007E0
3F0001F8
3E0001F8
3C000078
3C000078
FC000078
F8000078
F000007E
F000003E
F000001E
F0000078
F0000078
FC000078
FC000078
3C000078
3C000078
3F0001E0
3F0001E0
0FC007E0
0FC007E0
03FFFF80
03FFFF80
003FF800
003FF800
ENDCHAR
STARTCHAR $0070
ENCODING 112
SWIDTH 666 0
DWIDTH 35 0
BBX 29 39 4 -10
BITMAP
F03FE000
F03FE000
F3FFFE00
F3FFFE00
FFC01F80
FF801F80
FC0001E0
FC0001E0
F00001F8
F00001F8
F0000078
F0000078
F0000078
F0000078
F0000078
F0000078
F0000078
F0000078
F0000078
F00001F8
F00001F8
FC0001E0
FC0001E0
FFC01F80
FFC01F80
F3FFFE00
F3FFFE00
F03FE000
F03FE000
F0000000
F0000000
F0000000
F0000000
F0000000
F0000000
F0000000
F0000000
F0000000
E0000000
ENDCHAR
STARTCHAR $0071
ENCODING 113
SWIDTH 666 0
DWIDTH 35 0
BBX 31 39 2 -10
BITMAP
003FF81E
003FF81E
03FFFF9E
03FFFF9E
0FC007FE
0F8007FE
3F0001FE
3E0001FE
3C00007E
3C00007E
FC00007E
F800007E
F000001E
F000001E
F000001E
F000001E
F000001E
FC00001E
FC00001E
3C00007E
3C00007E
3F0001FE
3F0001FE
0FC0079E
0FC0079E
03FFFE1E
03FFFE1E
003FF81E
003FF81E
0000001E
0000001E
0000001E
0000001E
0000001E
0000001E
0000001E
0000001E
0000001E
0000001C
ENDCHAR
STARTCHAR $0072
ENCODING 114
SWIDTH 296 0
DWIDTH 16 0
BBX 12 29 4 0
BITMAP
F0F0
F0F0
FFF0
FFE0
FF00
FF00
FC00
FC00
F000
F000
F000
F000
F000
F000
F000
F000
F000
F000
F000
F000
F000
F000
F000
F000
F000
F000
F000
F000
F000
ENDCHAR
STARTCHAR $0073
ENCODING 115
SWIDTH 370 0
DWIDTH 20 0
BBX 19 29 0 0
BITMAP
03F800
03FC00
0FFF80
0FFF80
3F0780
3F0780
3C0780
3C0380
3C0000
3C0000
3F0000
3F0000
0FF000
01FE00
00FE00
001F80
000F80
0007E0
0007E0
F001E0
F001E0
3C01E0
3C01E0
3C0380
3C0780
0FFF80
0FFF80
03F800
03F800
ENDCHAR
STARTCHAR $0074
ENCODING 116
SWIDTH 333 0
DWIDTH 18 0
BBX 17 39 0 0
BITMAP
03F000
03F000
03F000
03F000
03F000
03F000
03F000
03F000
03F000
07F000
FFFF80
FFFF80
FFFF80
07F000
03F000
03F000
03F000
03F000
03F000
03F000
03F000
03F000
03F000
03F000
03F000
03F000
03F000
03F000
03F000
03F000
03F000
03F000
03F000
03F000
03F000
03F000
03F000
03F000
03E000
ENDCHAR
STARTCHAR $0075
ENCODING 117
SWIDTH 592 0
DWIDTH 31 0
BBX 25 29 4 0
BITMAP
F0000780
F0000780
F0000780
F0000780
F0000780
F0000780
F0000780
F0000780
F0000780
F0000780
F0000780
F0000780
F0000780
F0000780
F0000780
F0000780
F0000780
F0000780
F0000780
F0001F80
F0001F80
FC001F80
FC001F80
3F007F80
3F007F80
0FFFE780
0FFFE780
03FE0780
03FE0780
ENDCHAR
STARTCHAR $0076
ENCODING 118
SWIDTH 555 0
DWIDTH 29 0
BBX 29 29 0 0
BITMAP
F00001F8
F00001F8
3C0001E0
3C0001E0
3C0001E0
3C0001E0
0F000780
0F000780
0F000780
0F000780
0FC01E00
0FC01E00
03C01E00
03C01E00
03C01E00
01E03C00
00F07800
00F07800
00F07800
0078E000
0039E000
0039E000
0039E000
003FE000
003FE000
000F8000
000F8000
000F8000
000F8000
ENDCHAR
STARTCHAR $0077
ENCODING 119
SWIDTH 814 0
DWIDTH 43 0
BBX 42 29 0 0
BITMAP
F000000001C0
F000000001C0
3C00000001C0
3C00000003C0
3C001E000700
3C001E000700
3F001F800700
3F001F800700
0F007F800700
0F007F800F00
0F007F801E00
0F007F801E00
03C079E01E00
03C071E07800
03C061E07800
03C0E1E07800
03C1E1E07800
01E1E0787800
00F1E0787800
00F1C079E000
00F18079E000
00FF8079E000
00FF8079E000
003F80198000
003F80198000
003E001F8000
003E001F8000
000E001F8000
000E001F8000
ENDCHAR
STARTCHAR $0078
ENCODING 120
SWIDTH 481 0
DWIDTH 26 0
BBX 21 29 2 0
BITMAP
F00078
F00078
FC01F8
FC01F8
3C01E0
3C01E0
0F0780
0F0780
0FCF80
0FCF80
03CE00
03DE00
00F800
00F800
00F800
00F800
00F800
03DE00
03CE00
0F0F80
0F0F80
0F0780
0F0780
3C01E0
3C01E0
F001F8
F001F8
F00078
F00078
ENDCHAR
STARTCHAR $0079
ENCODING 121
SWIDTH 518 0
DWIDTH 27 0
BBX 27 39 0 -10
BITMAP
FC0001E0
FC0001E0
3C0007E0
3C0007E0
3C000780
3C000780
0F000780
0F000780
0F001E00
0F001E00
0FC01E00
0FC01E00
03C07800
03C07800
03C07800
01E0F800
00F1F800
00F1F000
00F1E000
00F9E000
00F9E000
003F8000
003F8000
003F8000
003F8000
000E0000
000E0000
000E0000
001E0000
003E0000
003E0000
00380000
00380000
00380000
00780000
00F00000
00F00000
00F00000
00E00000
ENDCHAR
STARTCHAR $007A
ENCODING 122
SWIDTH 407 0
DWIDTH 22 0
BBX 21 29 0 0
BITMAP
3FFFF8
3FFFF8
3FFFF8
3FFFF8
0001E0
0001E0
000780
000780
000F80
000F80
000E00
001E00
003800
00F800
00F800
00F000
00F000
03C000
03C000
0FC000
0FC000
3F0000
3F0000
3C0000
3C0000
FFFFF8
FFFFF8
FFFFF8
FFFFF8
ENDCHAR
STARTCHAR $007B
ENCODING 123
SWIDTH 370 0
DWIDTH 20 0
BBX 15 50 2 -11
BITMAP
000E
000E
00FE
00FE
03F0
03E0
03C0
03C0
03C0
03C0
03C0
03C0
03C0
03C0
03C0
03C0
03C0
03C0
03C0
03C0
03C0
0FC0
0FC0
FF00
FF00
FF00
FF00
0FC0
0FC0
03C0
03C0
03C0
03C0
03C0
03C0
03C0
03C0
03C0
03C0
03C0
03C0
03C0
03C0
03C0
03E0
03F0
00FE
00FE
003E
003E
ENDCHAR
STARTCHAR $007C
ENCODING 124
SWIDTH 222 0
DWIDTH 12 0
BBX 4 42 4 -7
BITMAP
F0
F0
F0
F0
F0
F0
F0
F0
F0
F0
F0
F0
F0
F0
F0
F0
F0
F0
F0
F0
F0
F0
F0
F0
F0
F0
F0
F0
F0
F0
F0
F0
F0
F0
F0
F0
F0
F0
F0
F0
F0
F0
ENDCHAR
STARTCHAR $007D
ENCODING 125
SWIDTH 370 0
DWIDTH 20 0
BBX 15 50 2 -11
BITMAP
F000
F000
FF00
FF00
0FC0
0FC0
03C0
03C0
03C0
03C0
03C0
03C0
03C0
03C0
03C0
03C0
03C0
03C0
03C0
03C0
03C0
03E0
03F0
00FE
00FE
00FE
00FE
03F0
03E0
03C0
03C0
03C0
03C0
03C0
03C0
03C0
03C0
03C0
03C0
03C0
03C0
03C0
03C0
03C0
0FC0
0FC0
FF00
FF00
F000
F000
ENDCHAR
STARTCHAR $007E
ENCODING 126
SWIDTH 592 0
DWIDTH 31 0
BBX 25 8 4 12
BITMAP
0FC00780
0FC00780
FFFE1F80
FFFE1F80
F03FFE00
F03FFE00
C007F800
C003F800
ENDCHAR
STARTCHAR $00A0
ENCODING 160
SWIDTH 259 0
DWIDTH 14 0
BBX 0 0 0 0
BITMAP
ENDCHAR
STARTCHAR $00A1
ENCODING 161
SWIDTH 296 0
DWIDTH 16 0
BBX 4 39 6 -10
BITMAP
F0
F0
F0
F0
F0
F0
00
00
00
00
F0
F0
F0
F0
F0
F0
F0
F0
F0
F0
F0
F0
F0
F0
F0
F0
F0
F0
F0
F0
F0
F0
F0
F0
F0
F0
F0
F0
E0
ENDCHAR
STARTCHAR $00A2
ENCODING 162
SWIDTH 555 0
DWIDTH 29 0
BBX 23 33 2 4
BITMAP
000E00
000E00
000E00
001E00
003F80
007F80
03FFF8
03FFF8
0FC07E
0F803E
3C001E
3C000E
3C0000
F00000
F00000
F00000
F00000
F00000
F00000
FC0000
FC0000
3C001E
3C001E
3F007E
3F007E
0FFFF8
0FFFF8
00FF80
00FF80
000E00
000E00
000E00
000E00
ENDCHAR
STARTCHAR $00A3
ENCODING 163
SWIDTH 555 0
DWIDTH 29 0
BBX 31 39 0 0
BITMAP
000FF800
000FF800
00FFFF80
00FFFF80
03F007E0
03E007E0
03C001E0
038001E0
0F000078
0F000078
0F000078
0F000070
0F000000
0F000000
0F000000
0F000000
0F000000
FFFFFE00
FFFFFE00
FFFFFE00
FFFFFE00
003C0000
00380000
001E0000
000E0000
000E001E
000E001E
000E001E
000E001E
000E001E
000E001E
000E007E
000E007E
000E01F8
001F01F8
0FFFFFE0
0FFFFFE0
0FFFFE00
0FFFFE00
ENDCHAR
STARTCHAR $00A4
ENCODING 164
SWIDTH 555 0
DWIDTH 29 0
BBX 25 27 2 2
BITMAP
30FF8600
30FF8600
FFFFFF80
FFFFFF80
3F007E00
3F007E00
3C001E00
3C001E00
F0000780
F0000780
F0000780
F0000780
F0000780
F0000780
F0000780
F0000780
F0000780
F0000780
F0000780
3C001E00
3C001E00
3F007E00
3F007E00
FFFFFF80
FFFFFF80
30FF8600
30FF8600
ENDCHAR
STARTCHAR $00A5
ENCODING 165
SWIDTH 555 0
DWIDTH 29 0
BBX 31 39 0 0
BITMAP
F000001E
F000001E
3C000078
3C000078
3C000078
3C000078
0F0001E0
0F0001E0
0F000180
0F000180
03C00780
03C00780
00F01E00
3FF01FF0
3FF01FF8
3FF83FF8
3FF87FF8
00787800
00387800
001FE000
000FE000
000FE000
000FE000
3FFFFFF8
3FFFFFF8
3FFFFFF8
3FFFFFF8
00078000
00078000
00078000
00078000
00078000
00078000
00078000
00078000
00078000
00078000
00078000
00038000
ENDCHAR
STARTCHAR $00A6
ENCODING 166
SWIDTH 592 0
DWIDTH 31 0
BBX 4 44 13 -5
BITMAP
F0
F0
F0
F0
F0
F0
F0
F0
F0
F0
F0
F0
F0
F0
F0
F0
F0
00
00
00
00
00
00
00
00
00
00
F0
F0
F0
F0
F0
F0
F0
F0
F0
F0
F0
F0
F0
F0
F0
F0
F0
ENDCHAR
STARTCHAR $00A7
ENCODING 167
SWIDTH 629 0
DWIDTH 33 0
BBX 23 46 4 -7
BITMAP
00FF80
00FF80
03FFE0
03FFE0
0F01F8
0F00F8
0F0078
0F0038
0F0000
0F0000
0F0000
0F0000
0FC000
0FF800
0FF800
3C7F80
3C3F80
3007F8
3007F8
F0007E
F0007E
F0001E
F0001E
3C001E
3C001E
0FC01E
0FC01E
03FE1E
03FE1E
003FF8
003FF8
0007F8
0003F8
000078
000038
3C001E
3C001E
3C001E
3C001E
3C0078
1F80F8
0FC1F8
07FFF0
03FFE0
007F00
003E00
ENDCHAR
STARTCHAR $00A8
ENCODING 168
SWIDTH 370 0
DWIDTH 20 0
BBX 12 6 4 33
BITMAP
F0F0
F0F0
F0F0
F0F0
F0F0
F0E0
ENDCHAR
STARTCHAR $00A9
ENCODING 169
SWIDTH 740 0
DWIDTH 39 0
BBX 37 37 2 0
BITMAP
000FFE0000
000FFE0000
00F001E000
00E001E000
0300001800
0300001800
0C00000600
0C00000600
3007FE0180
3007FE0180
303F9FE060
207F8FE060
C0F0007860
C3C0000060
C3C0000060
C3C0000010
C3C0000018
C3C0000018
C3C0000018
C3C0000018
C3C0000018
C3C0000060
C3C0000060
C0E0007860
C0F0007860
F03801E060
F03C01E060
300FFF8180
300FFF8180
0C00000780
0C00000780
0300001E00
0300001E00
00F001E000
00F001E000
000FFE0000
000FFE0000
ENDCHAR
STARTCHAR $00AA
ENCODING 170
SWIDTH 370 0
DWIDTH 20 0
BBX 15 21 2 18
BITMAP
0FF6
0FF6
3C3E
3C3E
F00E
F00E
C006
C006
C006
C006
F00E
F01E
3C3E
3FF6
3FF6
0000
0000
0000
0000
FFFE
FFFE
ENDCHAR
STARTCHAR $00AB
ENCODING 171
SWIDTH 407 0
DWIDTH 22 0
BBX 17 19 2 7
BITMAP
03C780
03C780
0F0780
0F0780
3F0E00
3F1E00
3C3E00
3C3E00
F03800
F03800
FC3800
FC3C00
3C0E00
1E0E00
0F0E00
0F0780
0F0780
038780
03C780
ENDCHAR
STARTCHAR $00AC
ENCODING 172
SWIDTH 740 0
DWIDTH 39 0
BBX 31 15 4 1
BITMAP
FFFFFFFE
FFFFFFFE
FFFFFFFE
FFFFFFFE
0000001E
0000001E
0000001E
0000001E
0000001E
0000001E
0000001E
0000001E
0000001E
0000001E
0000001E
ENDCHAR
STARTCHAR $00AD
ENCODING 173
SWIDTH 333 0
DWIDTH 18 0
BBX 13 4 2 12
BITMAP
FFF8
FFF8
FFF8
FFF8
ENDCHAR
STARTCHAR $00AE
ENCODING 174
SWIDTH 740 0
DWIDTH 39 0
BBX 37 37 2 0
BITMAP
000FFE0000
000FFE0000
00F001E000
00E001E000
0300001E00
0300001E00
0C00000600
0C00000600
303FF80180
303FF80180
30307F8060
20303F8060
C030078060
C030018060
C030018060
C030018010
C030018018
C0300F8018
C0301F8018
C030FE0018
C031FE0018
C031E00060
C031E00060
C030780060
C030780060
F0301E0060
F0301E0060
3030078180
3020078180
0C00000780
0C00000780
0300001E00
0300001E00
00F001E000
00F001E000
000FFE0000
000FFE0000
ENDCHAR
STARTCHAR $00AF
ENCODING 175
SWIDTH 481 0
DWIDTH 26 0
BBX 17 4 4 33
BITMAP
FFFF80
FFFF80
FFFF80
FFFF80
ENDCHAR
STARTCHAR $00B0
ENCODING 176
SWIDTH 407 0
DWIDTH 22 0
BBX 15 17 2 22
BITMAP
03F0
03F0
3FFE
3FFE
300E
300E
F006
F006
F006
F006
3006
3006
3C0E
1FFC
0FF8
01C0
00C0
ENDCHAR
STARTCHAR $00B1
ENCODING 177
SWIDTH 703 0
DWIDTH 37 0
BBX 29 39 4 -10
BITMAP
00078000
00078000
00078000
00078000
00078000
00078000
00078000
00078000
00078000
00078000
00078000
00078000
00078000
FFFFFFF0
FFFFFFF8
FFFFFFF8
FFFFFFF8
0007C000
00078000
00078000
00078000
00078000
00078000
00078000
00078000
00078000
00078000
00078000
00078000
00078000
00038000
00000000
00000000
00000000
00000000
FFFFFFF8
FFFFFFF8
FFFFFFF8
FFFFFFF0
ENDCHAR
STARTCHAR $00B2
ENCODING 178
SWIDTH 333 0
DWIDTH 18 0
BBX 17 23 0 16
BITMAP
03F800
03FC00
3FFE00
3FFE00
3C0600
3C0700
300780
300780
000780
000780
000E00
001E00
003E00
00FC00
00F800
03C000
03C000
0F0000
0F0000
3C0000
3C0000
FFFF80
FFFF80
ENDCHAR
STARTCHAR $00B3
ENCODING 179
SWIDTH 333 0
DWIDTH 18 0
BBX 17 23 0 16
BITMAP
03F000
03F000
0FF800
0FFC00
3C0E00
3C0E00
000E00
001E00
00F800
01F800
03F800
03FC00
000E00
000780
000780
F00780
F00780
300700
300600
3C0E00
3C0E00
0FFC00
0FF800
ENDCHAR
STARTCHAR $00B4
ENCODING 180
SWIDTH 370 0
DWIDTH 20 0
BBX 12 8 6 33
BITMAP
03F0
03F0
0FC0
0FC0
FC00
FC00
3000
3000
ENDCHAR
STARTCHAR $00B5
ENCODING 181
SWIDTH 592 0
DWIDTH 31 0
BBX 25 37 4 -8
BITMAP
F0000780
F0000780
F0000780
F0000780
F0000780
F0000780
F0000780
F0000780
F0000780
F0000780
F0000780
F0000780
F0000780
F0000780
F0000780
F0000780
F0000780
F0000F80
F0001F80
FC001F80
FC001F80
FC007F80
FC007F80
FF01FF80
FF01FF80
F3FFE780
F3FFE780
F0FE0780
F0FE0780
F0000000
F0000000
F0000000
F0000000
F0000000
F0000000
F0000000
F0000000
ENDCHAR
STARTCHAR $00B6
ENCODING 182
SWIDTH 555 0
DWIDTH 29 0
BBX 23 46 2 -7
BITMAP
03FFFE
03FFFE
3FFFFE
3FFFFE
3FF81E
3FF81E
FFF81E
FFF81E
FFF81E
FFF81E
FFF81E
FFF81E
FFF81E
7FF81E
3FF81E
3FF81E
3FF81E
0FF81E
0FF81E
00781E
00381E
00381E
00381E
00381E
00381E
00381E
00381E
00381E
00381E
00381E
00381E
00381E
00381E
00381E
00381E
00381E
00381E
00381E
00381E
00381E
00381E
00381E
00381E
00381E
00381E
00381E
ENDCHAR
STARTCHAR $00B7
ENCODING 183
SWIDTH 222 0
DWIDTH 12 0
BBX 4 6 4 10
BITMAP
F0
F0
F0
F0
F0
F0
ENDCHAR
STARTCHAR $00B8
ENCODING 184
SWIDTH 333 0
DWIDTH 18 0
BBX 12 12 4 -13
BITMAP
0C00
0C00
3FC0
3FC0
3FC0
3FC0
00F0
00F0
F0F0
F1E0
3FC0
3F80
ENDCHAR
STARTCHAR $00B9
ENCODING 185
SWIDTH 333 0
DWIDTH 18 0
BBX 6 23 6 16
BITMAP
FC
FC
0C
0C
0C
0C
0C
0C
0C
0C
0C
0C
0C
0C
0C
0C
0C
0C
0C
0C
0C
0C
0C
ENDCHAR
STARTCHAR $00BA
ENCODING 186
SWIDTH 370 0
DWIDTH 20 0
BBX 15 21 2 18
BITMAP
0FF0
0FF0
3C38
3C3C
F00E
F00E
C006
C006
C006
C006
F00E
F01E
3C38
1FF0
0FF0
0000
0000
0000
0000
FFFE
FFFE
ENDCHAR
STARTCHAR $00BB
ENCODING 187
SWIDTH 407 0
DWIDTH 22 0
BBX 17 19 2 7
BITMAP
F03800
F03800
3C3800
3C3C00
3C0E00
3C0F00
0F0F80
0F0F80
0FC780
0F8780
0F0780
0F0780
0F0E00
3C0E00
3C0E00
3C3C00
3C3800
F03800
F03800
ENDCHAR
STARTCHAR $00BC
ENCODING 188
SWIDTH 814 0
DWIDTH 43 0
BBX 37 39 6 0
BITMAP
FC00018000
FC00018000
0C00078000
0C00078000
0C00060000
0C00060000
0C001E0000
0C001E0000
0C00180000
0C00180000
0C00780000
0C00780000
0C00600000
0C00E00000
0C01E00000
0C01C007C0
0C018007E0
0C018007E0
0C018007E0
0C03801FE0
0C07801FE0
0C070079E0
0C060079E0
000E0061E0
000E0061E0
000C01E1E0
000801E1E0
00380781E0
00380781E0
00301E01E0
00301E01E0
00F01E01E0
00E01E01E0
00C01FFFF8
01C00FFFF0
03C00001E0
03800001E0
03000001E0
02000001C0
ENDCHAR
STARTCHAR $00BD
ENCODING 189
SWIDTH 814 0
DWIDTH 43 0
BBX 37 39 6 0
BITMAP
FC00018000
FC00018000
0C00078000
0C00078000
0C00060000
0C00060000
0C001E0000
0C001E0000
0C00180000
0C00180000
0C00780000
0C00780000
0C00600000
0C00E00000
0C01E00000
0C01C1FFC0
0C0181FFE0
0C038781F0
0C078781F8
0C07078078
0C06078078
0C0E060078
0C0E060078
000C000078
0008000078
00080001E0
00080001E0
0038000780
0038000780
0030001E00
0030001E00
00F0007800
00E0007800
00C001E000
01C001E000
03C0078000
0380078000
030007FFF8
020003FFF0
ENDCHAR
STARTCHAR $00BE
ENCODING 190
SWIDTH 814 0
DWIDTH 43 0
BBX 42 39 0 0
BITMAP
03F000078000
03F000078000
0FF800060000
0FFC00060000
3C0E001E0000
3C0E001E0000
000E001E0000
001E001E0000
00F800180000
01F800180000
03F800780000
03FC00700000
000E00600000
000780E00000
000781E00000
F00781801F00
F00781801F00
300707801F00
300607801F00
3C0E06007F00
3C0E06007F00
0FFC1E01EF00
0FF81E01E700
000018018700
000018018700
000078078700
000078078700
0000601E0700
0000601E0700
000060780700
000060780700
0001E0780700
0001E0780F80
0001807FFFC0
0001807FFFC0
000780000700
000780000700
000600000700
000200000700
ENDCHAR
STARTCHAR $00BF
ENCODING 191
SWIDTH 592 0
DWIDTH 31 0
BBX 23 40 4 -11
BITMAP
003800
003800
003800
003800
003800
003800
000000
000000
000000
000000
003800
003800
003800
00F800
00F800
00F000
00F000
03C000
03C000
0FC000
0FC000
3F0000
3F0000
FC0000
FC0000
F00000
F00000
F0001E
F0001E
F0001E
F0001E
F0001E
F0001E
FC007E
FC007E
3F01F8
3F01F8
0FFFE0
0FFFE0
00FE00
ENDCHAR
STARTCHAR $00C0
ENCODING 192
SWIDTH 740 0
DWIDTH 39 0
BBX 35 48 2 3
BITMAP
003E000000
003E000000
000F800000
000F800000
0001F80000
0000F80000
0000600000
0000200000
0000000000
0000000000
0001E00000
0001F00000
0007F80000
0007F80000
0007F80000
000F1E0000
000E1E0000
000E1E0000
000E1E0000
003E1E0000
003E1E0000
003C078000
0038078000
0038078000
0038078000
00F001E000
00F001E000
00F001E000
00E001E000
03C001F800
03C001F800
03FFFFF800
03FFFFF800
0FFFFFF800
0FFFFFF800
0F00001E00
0F00001E00
0F00001E00
1E00001E00
3C00000780
3C00000780
3C00000780
F0000007C0
F0000007E0
F0000001E0
F0000001E0
F0000001E0
F0000001E0
ENDCHAR
STARTCHAR $00C1
ENCODING 193
SWIDTH 740 0
DWIDTH 39 0
BBX 35 48 2 3
BITMAP
00001F8000
00001F8000
00007E0000
00007E0000
0007E00000
0003E00000
0001800000
0000800000
0000000000
0000000000
0001E00000
0001F00000
0007F80000
0007F80000
0007F80000
000F1E0000
000E1E0000
000E1E0000
000E1E0000
003E1E0000
003E1E0000
003C078000
0038078000
0038078000
0038078000
00F001E000
00F001E000
00F001E000
00E001E000
03C001F800
03C001F800
03FFFFF800
03FFFFF800
0FFFFFF800
0FFFFFF800
0F00001E00
0F00001E00
0F00001E00
1E00001E00
3C00000780
3C00000780
3C00000780
F0000007C0
F0000007E0
F0000001E0
F0000001E0
F0000001E0
F0000001E0
ENDCHAR
STARTCHAR $00C2
ENCODING 194
SWIDTH 740 0
DWIDTH 39 0
BBX 35 48 2 1
BITMAP
0001E00000
0001E00000
0007F80000
0007F80000
000E1E0000
001E1E0000
00F807E000
00F807E000
0000000000
0000000000
0001E00000
0001F00000
0007F80000
0007F80000
0007F80000
000F1E0000
000E1E0000
000E1E0000
000E1E0000
003E1E0000
003E1E0000
003C078000
0038078000
0038078000
0038078000
00F001E000
00F001E000
00F001E000
00E001E000
03C001F800
03C001F800
03FFFFF800
03FFFFF800
0FFFFFF800
0FFFFFF800
0F00001E00
0F00001E00
0F00001E00
1E00001E00
3C00000780
3C00000780
3C00000780
F0000007C0
F0000007E0
F0000001E0
F0000001E0
F0000001E0
F0000001E0
ENDCHAR
STARTCHAR $00C3
ENCODING 195
SWIDTH 740 0
DWIDTH 39 0
BBX 35 48 2 1
BITMAP
0006000000
0006000000
003F860000
003F860000
00387F8000
00387F8000
0000180000
0000180000
0000000000
0000000000
0001E00000
0001F00000
0007F80000
0007F80000
0007F80000
000F1E0000
000E1E0000
000E1E0000
000E1E0000
003E1E0000
003E1E0000
003C078000
0038078000
0038078000
0038078000
00F001E000
00F001E000
00F001E000
00E001E000
03C001F800
03C001F800
03FFFFF800
03FFFFF800
0FFFFFF800
0FFFFFF800
0F00001E00
0F00001E00
0F00001E00
1E00001E00
3C00000780
3C00000780
3C00000780
F0000007C0
F0000007E0
F0000001E0
F0000001E0
F0000001E0
F0000001E0
ENDCHAR
STARTCHAR $00C4
ENCODING 196
SWIDTH 740 0
DWIDTH 39 0
BBX 35 48 2 1
BITMAP
000E1E0000
000E1E0000
000E1E0000
000E1E0000
000E1E0000
000E1E0000
0000000000
0000000000
0000000000
0000000000
0001E00000
0001F00000
0007F80000
0007F80000
0007F80000
000F1E0000
000E1E0000
000E1E0000
000E1E0000
003E1E0000
003E1E0000
003C078000
0038078000
0038078000
0038078000
00F001E000
00F001E000
00F001E000
00E001E000
03C001F800
03C001F800
03FFFFF800
03FFFFF800
0FFFFFF800
0FFFFFF800
0F00001E00
0F00001E00
0F00001E00
1E00001E00
3C00000780
3C00000780
3C00000780
F0000007C0
F0000007E0
F0000001E0
F0000001E0
F0000001E0
F0000001E0
ENDCHAR
STARTCHAR $00C5
ENCODING 197
SWIDTH 740 0
DWIDTH 39 0
BBX 35 52 2 0
BITMAP
0001F80000
0001F80000
0006180000
0006180000
000E1E0000
000E1E0000
000E1E0000
000E1E0000
0006180000
0007180000
0007F80000
0003F80000
0000000000
0000E00000
0001E00000
0003F80000
0007F80000
0007F80000
0007F80000
000F1E0000
000E1E0000
000E1E0000
000E1E0000
003E1E0000
003E1E0000
003C078000
0038078000
0038078000
0038078000
00F001E000
00F001E000
00F001E000
00E001E000
03C001F800
03C001F800
03FFFFF800
07FFFFF800
0FFFFFF800
0FFFFFF800
0F00001E00
0F00001E00
0F00001E00
3C00000700
3C00000780
3C00000780
3C00000780
F0000007E0
F0000007E0
F0000001E0
F0000001E0
F0000001E0
F0000001E0
ENDCHAR
STARTCHAR $00C6
ENCODING 198
SWIDTH 1000 0
DWIDTH 52 0
BBX 46 39 2 0
BITMAP
0000007FFFFC
0000007FFFFC
000001FFFFFC
000001FFFFFC
000007FE0000
000007FE0000
0000079E0000
0000079E0000
00001E1E0000
00001E1E0000
00007E1E0000
00007E1E0000
0000781E0000
0000F81E0000
0001F81E0000
0003F01E0000
0007E01E0000
0007C01FFFFC
0007801FFFFC
000F801FFFFC
000F801FFFFC
003F001E0000
003E001E0000
00FFFFFE0000
00FFFFFE0000
00FFFFFE0000
00FFFFFE0000
03F0001E0000
03E0001E0000
0FC0001E0000
0FC0001E0000
0F00001E0000
0F00001E0000
3F00001E0000
3E00001E0000
FC00001FFFFC
F800001FFFFC
F000001FFFFC
E000001FFFFC
ENDCHAR
STARTCHAR $00C7
ENCODING 199
SWIDTH 814 0
DWIDTH 43 0
BBX 37 50 2 -12
BITMAP
0007FFE000
0007FFE000
003FFFFE00
003FFFFE00
03F8001FE0
03F8001FE0
0FC00001F8
0F800001F8
0F00000078
0E00000070
3C00000000
3C00000000
3C00000000
FC00000000
FC00000000
F000000000
F000000000
F000000000
F000000000
F000000000
F000000000
F000000000
F000000000
3C00000000
3C00000000
3C00000000
3C00000000
3F00000000
3F00000000
0F00000078
0F00000078
0FC00001F8
0FC00001F0
03F8001FE0
03FC001FC0
003FFFFE00
003FFFFC00
0007FFF800
0003FFF000
0000180000
00003F8000
00007F8000
00007FE000
00007FE000
000001E000
000001E000
0000E1E000
0001E1E000
00007F8000
00007F8000
ENDCHAR
STARTCHAR $00C8
ENCODING 200
SWIDTH 518 0
DWIDTH 27 0
BBX 21 50 4 1
BITMAP
0C0000
0C0000
0F0000
0F0000
0FF000
0FF000
00FE00
00FE00
000800
000800
000000
000000
FFFFF8
FFFFF8
FFFFF8
F00000
F00000
F00000
F00000
F00000
F00000
F00000
F00000
F00000
F00000
F00000
F00000
F00000
F00000
FFFFF8
FFFFF8
FFFFF8
FFFFF8
F00000
F00000
F00000
F00000
F00000
F00000
F00000
F00000
F00000
F00000
F00000
F00000
F00000
FFFFF8
FFFFF8
FFFFF8
FFFFF8
ENDCHAR
STARTCHAR $00C9
ENCODING 201
SWIDTH 518 0
DWIDTH 27 0
BBX 21 50 4 1
BITMAP
000180
000180
000780
000780
003F80
007F80
03F800
03F800
00C000
008000
000000
000000
FFFFF8
FFFFF8
FFFFF8
F00000
F00000
F00000
F00000
F00000
F00000
F00000
F00000
F00000
F00000
F00000
F00000
F00000
F00000
FFFFF8
FFFFF8
FFFFF8
FFFFF8
F00000
F00000
F00000
F00000
F00000
F00000
F00000
F00000
F00000
F00000
F00000
F00000
F00000
FFFFF8
FFFFF8
FFFFF8
FFFFF8
ENDCHAR
STARTCHAR $00CA
ENCODING 202
SWIDTH 518 0
DWIDTH 27 0
BBX 21 48 4 1
BITMAP
00F800
00FC00
03FE00
03FE00
0FC780
0F8380
3C01E0
3C00E0
000000
000000
FFFFF8
FFFFF8
FFFFF8
F00000
F00000
F00000
F00000
F00000
F00000
F00000
F00000
F00000
F00000
F00000
F00000
F00000
F00000
FFFFF8
FFFFF8
FFFFF8
FFFFF8
F00000
F00000
F00000
F00000
F00000
F00000
F00000
F00000
F00000
F00000
F00000
F00000
F00000
FFFFF8
FFFFF8
FFFFF8
FFFFF8
ENDCHAR
STARTCHAR $00CB
ENCODING 203
SWIDTH 518 0
DWIDTH 27 0
BBX 21 48 4 1
BITMAP
0FCE00
0FCE00
0FCE00
0FCE00
0FCE00
0F8E00
000000
000000
000000
000000
FFFFF8
FFFFF8
FFFFF8
F00000
F00000
F00000
F00000
F00000
F00000
F00000
F00000
F00000
F00000
F00000
F00000
F00000
F00000
FFFFF8
FFFFF8
FFFFF8
FFFFF8
F00000
F00000
F00000
F00000
F00000
F00000
F00000
F00000
F00000
F00000
F00000
F00000
F00000
FFFFF8
FFFFF8
FFFFF8
FFFFF8
ENDCHAR
STARTCHAR $00CC
ENCODING 204
SWIDTH 222 0
DWIDTH 12 0
BBX 12 48 -2 3
BITMAP
FC00
FC00
3F00
3F00
0FF0
0FE0
00C0
0080
0000
0000
03C0
03C0
03C0
03C0
03C0
03C0
03C0
03C0
03C0
03C0
03C0
03C0
03C0
03C0
03C0
03C0
03C0
03C0
03C0
03C0
03C0
03C0
03C0
03C0
03C0
03C0
03C0
03C0
03C0
03C0
03C0
03C0
03C0
03C0
03C0
03C0
03C0
03C0
ENDCHAR
STARTCHAR $00CD
ENCODING 205
SWIDTH 222 0
DWIDTH 12 0
BBX 12 48 2 3
BITMAP
03F0
03F0
0FC0
0FC0
FF00
FF00
3000
3000
0000
0000
3C00
3C00
3C00
3C00
3C00
3C00
3C00
3C00
3C00
3C00
3C00
3C00
3C00
3C00
3C00
3C00
3C00
3C00
3C00
3C00
3C00
3C00
3C00
3C00
3C00
3C00
3C00
3C00
3C00
3C00
3C00
3C00
3C00
3C00
3C00
3C00
3C00
3C00
ENDCHAR
STARTCHAR $00CE
ENCODING 206
SWIDTH 222 0
DWIDTH 12 0
BBX 19 48 -4 1
BITMAP
00F000
00F000
03F800
03FC00
0F0F80
0F0F80
FC07E0
FC03E0
000000
000000
00F000
00F000
00F000
00F000
00F000
00F000
00F000
00F000
00F000
00F000
00F000
00F000
00F000
00F000
00F000
00F000
00F000
00F000
00F000
00F000
00F000
00F000
00F000
00F000
00F000
00F000
00F000
00F000
00F000
00F000
00F000
00F000
00F000
00F000
00F000
00F000
00F000
00F000
ENDCHAR
STARTCHAR $00CF
ENCODING 207
SWIDTH 222 0
DWIDTH 12 0
BBX 12 48 0 1
BITMAP
F0F0
F0F0
F0F0
F0F0
F0F0
F0E0
0000
0000
0000
0000
0F00
0F00
0F00
0F00
0F00
0F00
0F00
0F00
0F00
0F00
0F00
0F00
0F00
0F00
0F00
0F00
0F00
0F00
0F00
0F00
0F00
0F00
0F00
0F00
0F00
0F00
0F00
0F00
0F00
0F00
0F00
0F00
0F00
0F00
0F00
0F00
0F00
0F00
ENDCHAR
STARTCHAR $00D0
ENCODING 208
SWIDTH 777 0
DWIDTH 41 0
BBX 37 39 2 0
BITMAP
0FFFFE0000
0FFFFE0000
0FFFFFE000
0FFFFFE000
0F0001FE00
0F0001FE00
0F00001F80
0F00001F80
0F000007E0
0F000007E0
0F000001E0
0F000001E0
0F000001F8
0F000000F8
0F00000078
0F00000078
0F00000078
FFFFE00078
FFFFE00078
FFFFE00078
FFFFE00078
0F00000078
0F00000078
0F00000078
0F00000078
0F000001F8
0F000001F8
0F000001E0
0F000001E0
0F000007E0
0F000007E0
0F00001F80
0F00001F80
0F0001FE00
0F0001FE00
0FFFFFE000
0FFFFFE000
0FFFFE0000
0FFFFE0000
ENDCHAR
STARTCHAR $00D1
ENCODING 209
SWIDTH 740 0
DWIDTH 39 0
BBX 31 48 4 1
BITMAP
00080000
000C0000
00FE1800
00FE1800
00F1FE00
00E0FE00
00006000
00002000
00000000
00000000
FC00001E
FC00001E
FF00001E
FF00001E
FF00001E
F780001E
F3C0001E
F3E0001E
F3F0001E
F0F0001E
F0F0001E
F038001E
F038001E
F03E001E
F03E001E
F00E001E
F00E001E
F007801E
F007801E
F007E01E
F003E01E
F001F81E
F000F81E
F000781E
F000381E
F0001E1E
F0001E1E
F0001F9E
F0000F9E
F000079E
F00001FE
F00001FE
F00001FE
F00001FE
F000007E
F000007E
F000001E
F000001E
ENDCHAR
STARTCHAR $00D2
ENCODING 210
SWIDTH 851 0
DWIDTH 45 0
BBX 40 48 2 1
BITMAP
0007800000
0007800000
0007F80000
0003F80000
00007E0000
00007E0000
00001E0000
00001E0000
0000000000
0000000000
0001FFE000
0001FFE000
003FFFFE00
00FC003FC0
00F8001FE0
03F00003F0
03F00001F8
0F000000FC
0F0000007E
3F0000003E
3F0000001E
3C0000001F
3C0000001F
3C00000007
3C00000007
F000000007
F000000007
F000000007
F000000007
F000000007
F000000007
F000000007
F000000007
3C00000007
3C0000000F
3C0000001F
3C0000001F
3F0000001E
3F0000003E
0FC000007E
07E00001F8
03F00001F8
01F8001FE0
00F8001FE0
007FFFFE00
003FFFFE00
0007FFE000
0007FFE000
ENDCHAR
STARTCHAR $00D3
ENCODING 211
SWIDTH 851 0
DWIDTH 45 0
BBX 40 48 2 1
BITMAP
0000006000
0000006000
000007E000
000007E000
00007F8000
00007F8000
0000780000
0000380000
0000000000
0000000000
0001FFE000
0001FFE000
003FFFFE00
00FC003FC0
00F8001FE0
03F00003F0
03F00001F8
0F000000FC
0F0000007E
3F0000003E
3F0000001E
3C0000001F
3C0000001F
3C00000007
3C00000007
F000000007
F000000007
F000000007
F000000007
F000000007
F000000007
F000000007
F000000007
3C00000007
3C0000000F
3C0000001F
3C0000001F
3F0000001E
3F0000003E
0FC000007E
07E00001F8
03F00001F8
01F8001FE0
00F8001FE0
007FFFFE00
003FFFFE00
0007FFE000
0007FFE000
ENDCHAR
STARTCHAR $00D4
ENCODING 212
SWIDTH 851 0
DWIDTH 45 0
BBX 40 46 2 1
BITMAP
00007F8000
00007F8000
0001E7E000
0001E7E000
000781F800
000381F800
0000000000
0000000000
0001FFE000
0001FFE000
003FFFFE00
007FFFFE00
00F8001FE0
03F00003F0
03F00001F8
0F000000FC
0F0000007E
3F0000003E
3F0000001E
3C0000001F
3C0000001F
3C0000000F
3C00000007
F000000007
F000000007
F000000007
F000000007
F000000007
F000000007
F000000007
F000000007
3C00000007
3C0000000F
3C0000001F
3C0000001F
3F0000001E
3F0000003E
0FC000007E
0FC00000FC
03F00001F8
01F8001FE0
00F8001FE0
007FFFFE00
003FFFFE00
0007FFE000
0007FFE000
ENDCHAR
STARTCHAR $00D5
ENCODING 213
SWIDTH 851 0
DWIDTH 45 0
BBX 40 46 2 1
BITMAP
0001F86000
0001F86000
0007FFE000
0003FFE000
0000018000
0000018000
0000000000
0000000000
0001FFE000
0001FFE000
003FFFFE00
007FFFFE00
00F8001FE0
03F00003F0
03F00001F8
0F000000FC
0F0000007E
3F0000003E
3F0000001E
3C0000001F
3C0000001F
3C0000000F
3C00000007
F000000007
F000000007
F000000007
F000000007
F000000007
F000000007
F000000007
F000000007
3C00000007
3C0000000F
3C0000001F
3C0000001F
3F0000001E
3F0000003E
0FC000007E
0FC00000FC
03F00001F8
01F8001FE0
00F8001FE0
007FFFFE00
003FFFFE00
0007FFE000
0007FFE000
ENDCHAR
STARTCHAR $00D6
ENCODING 214
SWIDTH 851 0
DWIDTH 45 0
BBX 40 46 2 1
BITMAP
0001E1E000
0001E1E000
0001E1E000
0001E1E000
0001E1E000
0000E1E000
0000000000
0000000000
0001FFE000
0001FFE000
003FFFFE00
007FFFFE00
00F8001FE0
03F00003F0
03F00001F8
0F000000FC
0F0000007E
3F0000003E
3F0000001E
3C0000001F
3C0000001F
3C0000000F
3C00000007
F000000007
F000000007
F000000007
F000000007
F000000007
F000000007
F000000007
F000000007
3C00000007
3C0000000F
3C0000001F
3C0000001F
3F0000001E
3F0000003E
0FC000007E
0FC00000FC
03F00001F8
01F8001FE0
00F8001FE0
007FFFFE00
003FFFFE00
0007FFE000
0007FFE000
ENDCHAR
STARTCHAR $00D7
ENCODING 215
SWIDTH 592 0
DWIDTH 31 0
BBX 23 23 4 3
BITMAP
300000
300000
FC001E
FC001E
3F0078
3F0078
0FC1E0
0FC1E0
03F780
03F780
00FE00
00FE00
003E00
00FF80
00FF80
03C7E0
03C7E0
0F01F8
0F01F8
3C007E
3C007E
30001E
30001E
ENDCHAR
STARTCHAR $00D8
ENCODING 216
SWIDTH 851 0
DWIDTH 45 0
BBX 40 46 2 -3
BITMAP
0000000018
0000000018
000000001E
000000001C
0007FFE078
0007FFE070
003FFFFFE0
007FFFFFE0
00F8001FE0
01F8001FE0
03F00007F8
07E0000FF8
0F00001E7E
3F0000383E
3F0000781E
3C0001F81F
3C0001F81F
3C0001E00F
3C0001E007
F000078007
F000078007
F0001E0007
F0001E0007
F0007E0007
F0007E0007
F001F80007
F001F80007
3C01E00007
3C01E00007
3C0780001F
3C0780001F
3F0E00001E
3F1E00003E
0F3E00007E
0F7E0000FC
03F80001F8
03F80003F0
00F8001FE0
01FC003FC0
03FFFFFE00
0FC7FFE000
0FC7FFE000
3F00000000
3F00000000
0C00000000
0C00000000
ENDCHAR
STARTCHAR $00D9
ENCODING 217
SWIDTH 666 0
DWIDTH 35 0
BBX 27 48 4 3
BITMAP
03F00000
03F00000
00F80000
00FC0000
003F8000
003F8000
00060000
00020000
00000000
00000000
F00001E0
F00001E0
F00001E0
F00001E0
F00001E0
F00001E0
F00001E0
F00001E0
F00001E0
F00001E0
F00001E0
F00001E0
F00001E0
F00001E0
F00001E0
F00001E0
F00001E0
F00001E0
F00001E0
F00001E0
F00001E0
F00001E0
F00001E0
F00001E0
F00001E0
F00001E0
F00001E0
F0000780
F0000780
FC000780
3C000780
3C000780
3E000E00
3F001E00
0FFFF800
0FFFF800
00FFE000
00FFE000
ENDCHAR
STARTCHAR $00DA
ENCODING 218
SWIDTH 666 0
DWIDTH 35 0
BBX 27 48 4 3
BITMAP
0001F800
0001F800
000FE000
001FE000
003E0000
003E0000
00380000
00380000
00000000
00000000
F00001E0
F00001E0
F00001E0
F00001E0
F00001E0
F00001E0
F00001E0
F00001E0
F00001E0
F00001E0
F00001E0
F00001E0
F00001E0
F00001E0
F00001E0
F00001E0
F00001E0
F00001E0
F00001E0
F00001E0
F00001E0
F00001E0
F00001E0
F00001E0
F00001E0
F00001E0
F00001E0
F0000780
F0000780
FC000780
3C000780
3C000780
3E000E00
3F001E00
0FFFF800
0FFFF800
00FFE000
00FFE000
ENDCHAR
STARTCHAR $00DB
ENCODING 219
SWIDTH 666 0
DWIDTH 35 0
BBX 27 48 4 1
BITMAP
000E0000
000E0000
003F8000
003F8000
03F1E000
03E0E000
0FC07800
0F803800
00000000
00000000
F00001E0
F00001E0
F00001E0
F00001E0
F00001E0
F00001E0
F00001E0
F00001E0
F00001E0
F00001E0
F00001E0
F00001E0
F00001E0
F00001E0
F00001E0
F00001E0
F00001E0
F00001E0
F00001E0
F00001E0
F00001E0
F00001E0
F00001E0
F00001E0
F00001E0
F00001E0
F00001E0
F0000780
F0000780
FC000780
3C000780
3C000780
3E000E00
3F001E00
0FFFF800
0FFFF800
00FFE000
00FFE000
ENDCHAR
STARTCHAR $00DC
ENCODING 220
SWIDTH 666 0
DWIDTH 35 0
BBX 27 48 4 1
BITMAP
00F1E000
00F1E000
00F1E000
00F1E000
00F1E000
00E0E000
00000000
00000000
00000000
00000000
F00001E0
F00001E0
F00001E0
F00001E0
F00001E0
F00001E0
F00001E0
F00001E0
F00001E0
F00001E0
F00001E0
F00001E0
F00001E0
F00001E0
F00001E0
F00001E0
F00001E0
F00001E0
F00001E0
F00001E0
F00001E0
F00001E0
F00001E0
F00001E0
F00001E0
F00001E0
F00001E0
F0000780
F0000780
FC000780
3C000780
3C000780
3E000E00
3F001E00
0FFFF800
0FFFF800
00FFE000
00FFE000
ENDCHAR
STARTCHAR $00DD
ENCODING 221
SWIDTH 592 0
DWIDTH 31 0
BBX 31 48 0 3
BITMAP
00007E00
00007E00
0001F800
0001F800
000F8000
000F8000
000E0000
000E0000
00000000
00000000
FC00007E
FC00007C
3C000078
3E0000F8
3F0001F8
0F0001E0
0F0001E0
0F8007E0
0FC007E0
03C00780
03C00780
03E01F80
03F01F80
00F01E00
00F01E00
00F87800
00F87800
00387800
003C7800
003FE000
003FE000
000FE000
000FE000
00078000
00078000
00078000
00078000
00078000
00078000
00078000
00078000
00078000
00078000
00078000
00078000
00078000
00078000
00078000
ENDCHAR
STARTCHAR $00DE
ENCODING 222
SWIDTH 592 0
DWIDTH 31 0
BBX 25 39 4 0
BITMAP
F0000000
F0000000
F0000000
F0000000
F0000000
F0000000
F0000000
F0000000
FFFFE000
FFFFF000
FFFFFE00
FFFFFE00
F0001E00
F0000780
F0000780
F0000780
F0000780
F0000780
F0000780
F0000780
F0000780
F0000780
F0000780
F0000780
F0000780
F0007E00
F0007E00
FFFFF800
FFFFF800
FFFF8000
FFFF8000
F0000000
F0000000
F0000000
F0000000
F0000000
F0000000
F0000000
E0000000
ENDCHAR
STARTCHAR $00DF
ENCODING 223
SWIDTH 555 0
DWIDTH 29 0
BBX 23 39 4 0
BITMAP
03FE00
03FE00
3FFF80
3FFF80
3C07E0
3C03E0
F001E0
F000E0
F00078
F00078
F00078
F00078
F00078
F000F0
F001E0
F003E0
F007E0
F0FFC0
F0FF80
F0FFE0
F0FFE0
F001F8
F001F8
F0001E
F0001E
F0001E
F0001E
FC001E
FC001E
FC001E
FC001E
FF001E
FF001E
FFC078
FFC078
F3FFE0
F3FFE0
F0FF80
E0FF80
ENDCHAR
STARTCHAR $00E0
ENCODING 224
SWIDTH 666 0
DWIDTH 35 0
BBX 31 39 2 2
BITMAP
00F00000
00F00000
003E0000
003E0000
000FE000
000FE000
00018000
00008000
00000000
00000000
003FF81E
007FFC1E
03FFFF9E
0FC007FE
0FC007FE
3F0001FE
3F0001FE
3C00007E
3C00007E
FC00007E
FC00007E
F000001E
F000001E
F000001E
F000001E
F000001E
F000001E
FC00007E
FC00007E
3C00007E
3C00007E
3F0001FE
3F0001FE
0FC0079E
0FC0079E
03FFFE1E
03FFFE1E
003FF81E
003FF81C
ENDCHAR
STARTCHAR $00E1
ENCODING 225
SWIDTH 666 0
DWIDTH 35 0
BBX 31 39 2 2
BITMAP
00007E00
00007E00
0001F800
0001F800
000F8000
000F8000
000E0000
000E0000
00000000
00000000
003FF81E
007FFC1E
03FFFF9E
0FC007FE
0FC007FE
3F0001FE
3F0001FE
3C00007E
3C00007E
FC00007E
FC00007E
F000001E
F000001E
F000001E
F000001E
F000001E
F000001E
FC00007E
FC00007E
3C00007E
3C00007E
3F0001FE
3F0001FE
0FC0079E
0FC0079E
03FFFE1E
03FFFE1E
003FF81E
003FF81C
ENDCHAR
STARTCHAR $00E2
ENCODING 226
SWIDTH 666 0
DWIDTH 35 0
BBX 31 39 2 0
BITMAP
00078000
00078000
000FE000
001FE000
00387800
00787800
03F01E00
03E01E00
00000000
00000000
003FF81E
007FFC1E
03FFFF9E
0FC007FE
0FC007FE
3F0001FE
3F0001FE
3C00007E
3C00007E
FC00007E
FC00007E
F000001E
F000001E
F000001E
F000001E
F000001E
F000001E
FC00007E
FC00007E
3C00007E
3C00007E
3F0001FE
3F0001FE
0FC0079E
0FC0079E
03FFFE1E
03FFFE1E
003FF81E
003FF81C
ENDCHAR
STARTCHAR $00E3
ENCODING 227
SWIDTH 666 0
DWIDTH 35 0
BBX 31 39 2 0
BITMAP
00080000
000C0000
00FE1800
00FE1800
00C1FE00
0080FE00
00006000
00002000
00000000
00000000
003FF81E
007FFC1E
03FFFF9E
0FC007FE
0FC007FE
3F0001FE
3F0001FE
3C00007E
3C00007E
FC00007E
FC00007E
F000001E
F000001E
F000001E
F000001E
F000001E
F000001E
FC00007E
FC00007E
3C00007E
3C00007E
3F0001FE
3F0001FE
0FC0079E
0FC0079E
03FFFE1E
03FFFE1E
003FF81E
003FF81C
ENDCHAR
STARTCHAR $00E4
ENCODING 228
SWIDTH 666 0
DWIDTH 35 0
BBX 31 37 2 0
BITMAP
00387800
00387800
00387800
00387800
00387800
00387800
00000000
00000000
003FF81E
007FF81E
03FFFF9E
07FFFF9E
0FC007FE
3F0001FE
3F0001FE
3C00007E
3C00007E
FC00007E
FC00007E
F000001E
F000001E
F000001E
F000001E
F000001E
F000001E
FC00007E
FC00007E
3C00007E
3C00007E
3F0001FE
3F0001FE
0FC0079E
0FC0079E
03FFFE1E
03FFFE1E
003FF81E
003FF81C
ENDCHAR
STARTCHAR $00E5
ENCODING 229
SWIDTH 666 0
DWIDTH 35 0
BBX 31 42 2 1
BITMAP
000FE000
000FE000
00086000
00086000
00307800
00307800
00307800
00307800
00386000
003C6000
000F8000
000F8000
00000000
003FF81C
003FF81E
03FFFF9E
03FFFF9E
0FC007FE
0FC007FE
3F0001FE
3F0001FE
3C00007E
3C00007E
FC00007E
FC00007E
F000001E
F000001E
F000001E
F000001E
F000001E
F000001E
FC00007E
FC00007E
3C00007E
3C00007E
3F0001FE
3F0001FE
0FC0079E
0FC0079E
03FFFE1E
007FFC1E
003FF81E
ENDCHAR
STARTCHAR $00E6
ENCODING 230
SWIDTH 1148 0
DWIDTH 60 0
BBX 56 29 2 0
BITMAP
003FF81E07FF00
003FF81E07FF00
03FFFF9E7FFFC0
03FFFF9E7FFFC0
0FC007FFF803F0
0F8007FFF003F0
3F0001FF80003C
3E0001FF80003C
3C00007F80000F
3C00007F00000F
FC00001E00000F
F800001E00000F
F000001FFFFFFF
F000001FFFFFFF
F000001FFFFFFF
F000001E000000
F000001E000000
FC00007E000000
FC00007E000000
3C00007F80003F
3C00007F80003F
3F0001FFE0003C
3F0001FFE0003C
0FC007FFF803F0
0FC007FFF803F0
03FFFE1E7FFFC0
03FFFE1E7FFFC0
003FF81E07FC00
003FF81E07FC00
ENDCHAR
STARTCHAR $00E7
ENCODING 231
SWIDTH 629 0
DWIDTH 33 0
BBX 29 40 2 -12
BITMAP
003FF800
003FF800
03FFFF80
03FFFF80
0FC007E0
0F8007E0
3F0001F8
3E0001F8
3C000078
3C000078
FC000000
F8000000
F0000000
F0000000
F0000000
F0000000
F0000000
FC000000
FC000000
3C000000
3C000000
3F0001F8
3F0001F8
0FC007E0
0FC007E0
03FFFF80
03FFFF80
003FFE00
003FFE00
00078000
00078000
0007E000
0007E000
000FF800
000FF800
00001E00
00001E00
000E1800
000F1800
0007F800
ENDCHAR
STARTCHAR $00E8
ENCODING 232
SWIDTH 666 0
DWIDTH 35 0
BBX 29 39 2 2
BITMAP
00F00000
00F00000
003E0000
003E0000
000FE000
000FE000
00018000
00008000
00000000
00000000
003FF800
007FFC00
03FFFF80
0FC007C0
0FC007E0
3F0001E0
3F0001E0
3C000078
3C000078
F0000078
F0000078
FFFFFFF8
FFFFFFF8
FFFFFFF8
FFFFFFF8
F0000000
F0000000
F0000000
F0000000
3C000078
3C000078
3F0001E0
3F0001E0
0FC00780
0FC00780
03FFFE00
03FFFE00
003FE000
003FE000
ENDCHAR
STARTCHAR $00E9
ENCODING 233
SWIDTH 666 0
DWIDTH 35 0
BBX 29 39 2 2
BITMAP
00007E00
00007E00
0001F800
0001F800
000F8000
000F8000
000E0000
000E0000
00000000
00000000
003FF800
007FFC00
03FFFF80
0FC007C0
0FC007E0
3F0001E0
3F0001E0
3C000078
3C000078
F0000078
F0000078
FFFFFFF8
FFFFFFF8
FFFFFFF8
FFFFFFF8
F0000000
F0000000
F0000000
F0000000
3C000078
3C000078
3F0001E0
3F0001E0
0FC00780
0FC00780
03FFFE00
03FFFE00
003FE000
003FE000
ENDCHAR
STARTCHAR $00EA
ENCODING 234
SWIDTH 666 0
DWIDTH 35 0
BBX 29 39 2 0
BITMAP
00078000
00078000
000FE000
001FE000
00F87800
00F87800
03F01E00
03E01E00
00000000
00000000
003FF800
007FFC00
03FFFF80
0FC007C0
0FC007E0
3F0001E0
3F0001E0
3C000078
3C000078
F0000078
F0000078
FFFFFFF8
FFFFFFF8
FFFFFFF8
FFFFFFF8
F0000000
F0000000
F0000000
F0000000
3C000078
3C000078
3F0001E0
3F0001E0
0FC00780
0FC00780
03FFFE00
03FFFE00
003FE000
003FE000
ENDCHAR
STARTCHAR $00EB
ENCODING 235
SWIDTH 666 0
DWIDTH 35 0
BBX 29 37 2 0
BITMAP
00387800
00387800
00387800
00387800
00387800
00387800
00000000
00000000
003FF800
007FF800
03FFFF80
07FFFF80
0FC007E0
3F0001E0
3F0001E0
3C000078
3C000078
F0000078
F0000078
FFFFFFF8
FFFFFFF8
FFFFFFF8
FFFFFFF8
F0000000
F0000000
F0000000
F0000000
3C000078
3C000078
3F0001E0
3F0001E0
0FC00780
0FC00780
03FFFE00
03FFFE00
003FE000
003FE000
ENDCHAR
STARTCHAR $00EC
ENCODING 236
SWIDTH 185 0
DWIDTH 10 0
BBX 10 40 -2 1
BITMAP
C000
C000
FC00
FC00
3F00
3F00
03C0
03C0
00C0
0080
0000
0000
03C0
03C0
03C0
03C0
03C0
03C0
03C0
03C0
03C0
03C0
03C0
03C0
03C0
03C0
03C0
03C0
03C0
03C0
03C0
03C0
03C0
03C0
03C0
03C0
03C0
03C0
03C0
03C0
ENDCHAR
STARTCHAR $00ED
ENCODING 237
SWIDTH 185 0
DWIDTH 10 0
BBX 12 40 2 1
BITMAP
00C0
00C0
03F0
03E0
3F00
3F00
FC00
FC00
0000
0000
0000
0000
3C00
3C00
3C00
3C00
3C00
3C00
3C00
3C00
3C00
3C00
3C00
3C00
3C00
3C00
3C00
3C00
3C00
3C00
3C00
3C00
3C00
3C00
3C00
3C00
3C00
3C00
3C00
3C00
ENDCHAR
STARTCHAR $00EE
ENCODING 238
SWIDTH 185 0
DWIDTH 10 0
BBX 17 39 -4 0
BITMAP
03F000
03F000
0FF800
0FFC00
3C0E00
3C0E00
C00180
C00080
000000
000000
00F000
00F000
00F000
00F000
00F000
00F000
00F000
00F000
00F000
00F000
00F000
00F000
00F000
00F000
00F000
00F000
00F000
00F000
00F000
00F000
00F000
00F000
00F000
00F000
00F000
00F000
00F000
00F000
00E000
ENDCHAR
STARTCHAR $00EF
ENCODING 239
SWIDTH 185 0
DWIDTH 10 0
BBX 12 39 0 0
BITMAP
F0F0
F0F0
F0F0
F0F0
F0F0
F0E0
0000
0000
0000
0000
0F00
0F00
0F00
0F00
0F00
0F00
0F00
0F00
0F00
0F00
0F00
0F00
0F00
0F00
0F00
0F00
0F00
0F00
0F00
0F00
0F00
0F00
0F00
0F00
0F00
0F00
0F00
0F00
0E00
ENDCHAR
STARTCHAR $00F0
ENCODING 240
SWIDTH 666 0
DWIDTH 35 0
BBX 31 39 2 0
BITMAP
00387800
003C7800
000FF800
001FF800
003FE000
003FE000
0039F800
0038F800
00007E00
00007E00
003FFF80
007FFF80
03FFFF80
0FC007C0
0FC007E0
3F0001F8
3F0001F8
3C000078
3C000078
F0000078
F0000078
F000007E
F000007E
F000001E
F000001E
F0000078
F0000078
FC000078
FC000078
3C000078
3C000078
3F0001E0
3F0001E0
0FC007E0
0FC007E0
03FFFF80
03FFFF80
003FF800
003FF800
ENDCHAR
STARTCHAR $00F1
ENCODING 241
SWIDTH 592 0
DWIDTH 31 0
BBX 25 39 4 0
BITMAP
00C00000
00C00000
0FF86000
0FFC6000
030FE000
030FE000
00078000
00038000
00000000
00000000
F0FF8000
F1FFC000
FFFFF800
FF007E00
FF007E00
FC001E00
FC001E00
F0001E00
F0001E00
F0000780
F0000780
F0000780
F0000780
F0000780
F0000780
F0000780
F0000780
F0000780
F0000780
F0000780
F0000780
F0000780
F0000780
F0000780
F0000780
F0000780
F0000780
F0000780
E0000380
ENDCHAR
STARTCHAR $00F2
ENCODING 242
SWIDTH 666 0
DWIDTH 35 0
BBX 31 39 2 2
BITMAP
00F00000
00F00000
003E0000
003E0000
000FE000
000FE000
00018000
00008000
00000000
00000000
003FF800
007FFC00
03FFFF80
0FC007C0
0FC007E0
3F0001F8
3F0001F8
3C000078
3C000078
FC000078
FC000078
F000007E
F000007E
F000001E
F000001E
F0000078
F0000078
FC000078
FC000078
3C000078
3C000078
3F0001E0
3F0001E0
0FC007E0
0FC007E0
03FFFF80
03FFFF80
003FF800
003FF800
ENDCHAR
STARTCHAR $00F3
ENCODING 243
SWIDTH 666 0
DWIDTH 35 0
BBX 31 39 2 2
BITMAP
00007E00
00007E00
0001F800
0001F800
000F8000
000F8000
000E0000
000E0000
00000000
00000000
003FF800
007FFC00
03FFFF80
0FC007C0
0FC007E0
3F0001F8
3F0001F8
3C000078
3C000078
FC000078
FC000078
F000007E
F000007E
F000001E
F000001E
F0000078
F0000078
FC000078
FC000078
3C000078
3C000078
3F0001E0
3F0001E0
0FC007E0
0FC007E0
03FFFF80
03FFFF80
003FF800
003FF800
ENDCHAR
STARTCHAR $00F4
ENCODING 244
SWIDTH 666 0
DWIDTH 35 0
BBX 31 39 2 0
BITMAP
00078000
00078000
000FE000
001FE000
00387800
00787800
03F01E00
03E01E00
00000000
00000000
003FF800
007FFC00
03FFFF80
0FC007C0
0FC007E0
3F0001F8
3F0001F8
3C000078
3C000078
FC000078
FC000078
F000007E
F000007E
F000001E
F000001E
F0000078
F0000078
FC000078
FC000078
3C000078
3C000078
3F0001E0
3F0001E0
0FC007E0
0FC007E0
03FFFF80
03FFFF80
003FF800
003FF800
ENDCHAR
STARTCHAR $00F5
ENCODING 245
SWIDTH 666 0
DWIDTH 35 0
BBX 31 39 2 0
BITMAP
00080000
000C0000
00FE1800
00FE1800
00C7FE00
0083FE00
00006000
00002000
00000000
00000000
003FF800
007FFC00
03FFFF80
0FC007C0
0FC007E0
3F0001F8
3F0001F8
3C000078
3C000078
FC000078
FC000078
F000007E
F000007E
F000001E
F000001E
F0000078
F0000078
FC000078
FC000078
3C000078
3C000078
3F0001E0
3F0001E0
0FC007E0
0FC007E0
03FFFF80
03FFFF80
003FF800
003FF800
ENDCHAR
STARTCHAR $00F6
ENCODING 246
SWIDTH 666 0
DWIDTH 35 0
BBX 31 37 2 0
BITMAP
00387800
00387800
00387800
00387800
00387800
00387800
00000000
00000000
003FF800
007FF800
03FFFF80
07FFFF80
0FC007E0
3F0001F0
3F0001F8
3C000078
3C000078
FC000078
FC000078
F000007E
F000007E
F000001E
F000001E
F0000078
F0000078
FC000078
FC000078
3C000078
3C000078
3F0001E0
3F0001E0
0FC007E0
0FC007E0
03FFFF80
03FFFF80
003FF800
003FF800
ENDCHAR
STARTCHAR $00F7
ENCODING 247
SWIDTH 703 0
DWIDTH 37 0
BBX 29 27 4 0
BITMAP
00078000
00078000
00078000
00078000
00078000
00038000
00000000
00000000
00000000
00000000
00000000
00000000
FFFFFFF8
FFFFFFF8
FFFFFFF8
00000000
00000000
00000000
00000000
00000000
00000000
00038000
00078000
00078000
00078000
00078000
00038000
ENDCHAR
STARTCHAR $00F8
ENCODING 248
SWIDTH 666 0
DWIDTH 35 0
BBX 29 33 2 -2
BITMAP
00000060
00000060
003FF9F8
003FF9F8
03FFFFE0
03FFFFE0
0FC007E0
0F8007E0
3F001FE0
3E001FE0
3C007878
3C007878
FC01F878
F003F078
F007E078
F007C078
F0078078
F00F0078
F00E0078
F03C0078
F0380078
3CF80078
3CF80078
3FF001E0
3FF001E0
0FC007E0
0FC007E0
0FFFFF80
0FFFFF80
3C3FF800
3C3FF800
0C000000
0C000000
ENDCHAR
STARTCHAR $00F9
ENCODING 249
SWIDTH 592 0
DWIDTH 31 0
BBX 25 40 4 1
BITMAP
03000000
03000000
0FC00000
0FC00000
00F80000
00FC0000
003E0000
003E0000
00000000
00000000
00000000
00000000
F0000780
F0000780
F0000780
F0000780
F0000780
F0000780
F0000780
F0000780
F0000780
F0000780
F0000780
F0000780
F0000780
F0000780
F0000780
F0000780
F0000780
F0000780
F0000780
F0001F80
F0001F80
FC001F80
FC001F80
3F007F80
3F007F80
0FFFE780
0FFFE780
03FE0780
ENDCHAR
STARTCHAR $00FA
ENCODING 250
SWIDTH 592 0
DWIDTH 31 0
BBX 25 40 4 1
BITMAP
00006000
00006000
0007E000
0007E000
003F8000
007F8000
00F80000
00F80000
00000000
00000000
00000000
00000000
F0000780
F0000780
F0000780
F0000780
F0000780
F0000780
F0000780
F0000780
F0000780
F0000780
F0000780
F0000780
F0000780
F0000780
F0000780
F0000780
F0000780
F0000780
F0000780
F0001F80
F0001F80
FC001F80
FC001F80
3F007F80
3F007F80
0FFFE780
0FFFE780
03FE0780
ENDCHAR
STARTCHAR $00FB
ENCODING 251
SWIDTH 592 0
DWIDTH 31 0
BBX 25 39 4 0
BITMAP
003E0000
003E0000
00FF8000
00FF8000
0FC1E000
0F80E000
00000000
00000000
00000000
00000000
F0000780
F0000780
F0000780
F0000780
F0000780
F0000780
F0000780
F0000780
F0000780
F0000780
F0000780
F0000780
F0000780
F0000780
F0000780
F0000780
F0000780
F0000780
F0000780
F0001F80
F0001F80
FC001F80
FC001F80
3F007F80
3F007F80
0FFFE780
0FFFE780
03FE0780
03FE0380
ENDCHAR
STARTCHAR $00FC
ENCODING 252
SWIDTH 592 0
DWIDTH 31 0
BBX 25 39 4 0
BITMAP
03C78000
03C78000
03C78000
03C78000
03C78000
03838000
00000000
00000000
00000000
00000000
F0000780
F0000780
F0000780
F0000780
F0000780
F0000780
F0000780
F0000780
F0000780
F0000780
F0000780
F0000780
F0000780
F0000780
F0000780
F0000780
F0000780
F0000780
F0000780
F0001F80
F0001F80
FC001F80
FC001F80
3F007F80
3F007F80
0FFFE780
0FFFE780
03FE0780
03FE0380
ENDCHAR
STARTCHAR $00FD
ENCODING 253
SWIDTH 518 0
DWIDTH 27 0
BBX 27 50 0 -9
BITMAP
00001800
00001800
0001F800
0001F800
000FE000
001FE000
003E0000
003E0000
00080000
00080000
00000000
00000000
FC0001E0
7C0003E0
3C0007E0
3C000780
3C000780
0E000780
0F000780
0F001E00
0F001E00
0FC01E00
0FC01E00
03C07800
03C07800
03C07800
03C07800
00F1F800
00F1F800
00F1E000
00F1E000
00F9E000
00FDE000
003F8000
003F8000
003F8000
003F8000
000E0000
000E0000
000E0000
003E0000
003E0000
003C0000
00380000
00380000
00380000
00F00000
00F00000
00F00000
00F00000
ENDCHAR
STARTCHAR $00FE
ENCODING 254
SWIDTH 666 0
DWIDTH 35 0
BBX 29 48 4 -9
BITMAP
F0000000
F0000000
F0000000
F0000000
F0000000
F0000000
F0000000
F0000000
F0000000
F0000000
F03FE000
F07FF000
F3FFFE00
FFC01F80
FFC01F80
FC0001E0
FC0001E0
F00001F8
F00001F8
F0000078
F0000078
F0000078
F0000078
F0000078
F0000078
F0000078
F0000078
F0000078
F0000078
F00001F8
F00001F8
FC0001E0
FC0001E0
FFC01F80
FFC01F80
F3FFFE00
F3FFFE00
F03FE000
F03FE000
F0000000
F0000000
F0000000
F0000000
F0000000
F0000000
F0000000
F0000000
F0000000
ENDCHAR
STARTCHAR $00FF
ENCODING 255
SWIDTH 518 0
DWIDTH 27 0
BBX 27 48 0 -9
BITMAP
00F1E000
00F1E000
00F1E000
00F1E000
00F1E000
00E0E000
00000000
00000000
00000000
00000000
FC0001E0
FC0001E0
3C0007E0
3C0007C0
3C000780
0E000780
0F000780
0F000E00
0F001E00
0F801E00
0FC01E00
03C07800
03C07800
03C07800
03C07800
00F1F800
00F1F800
00F1E000
00F1E000
00F9E000
00FDE000
003F8000
003F8000
003F8000
003F8000
000E0000
000E0000
000E0000
001E0000
003E0000
003C0000
00380000
00380000
00380000
00F00000
00F00000
00F00000
00F00000
ENDCHAR
STARTCHAR $0100
ENCODING 256
SWIDTH 740 0
DWIDTH 39 0
BBX 35 46 2 1
BITMAP
00FFFFE000
00FFFFE000
00FFFFE000
00FFFFE000
0000000000
0000000000
0000000000
0000000000
0001E00000
0001F00000
0007F80000
0007F80000
0007F80000
000F1E0000
000E1E0000
000E1E0000
000E1E0000
003E1E0000
003E1E0000
003C078000
0038078000
0038078000
0038078000
00F001E000
00F001E000
00F001E000
00F001E000
03C001F800
03C001F800
03FFFFF800
03FFFFF800
0FFFFFF800
0FFFFFF800
0F00001E00
0F00001E00
0F00001E00
0E00001E00
3C00000780
3C00000780
3C00000780
F0000007C0
F0000007E0
F0000001E0
F0000001E0
F0000001E0
F0000001E0
ENDCHAR
STARTCHAR $0101
ENCODING 257
SWIDTH 666 0
DWIDTH 35 0
BBX 31 37 2 0
BITMAP
03FFFE00
03FFFE00
03FFFE00
03FFFE00
00000000
00000000
00000000
00000000
003FF81E
007FF81E
03FFFF9E
07FFFF9E
0FC007FE
3F0001FE
3F0001FE
3C00007E
3C00007E
FC00007E
FC00007E
F000001E
F000001E
F000001E
F000001E
F000001E
F000001E
FC00007E
FC00007E
3C00007E
3C00007E
3F0001FE
3F0001FE
0FC0079E
0FC0079E
03FFFE1E
03FFFE1E
003FF81E
003FF81C
ENDCHAR
STARTCHAR $0102
ENCODING 258
SWIDTH 740 0
DWIDTH 39 0
BBX 35 48 2 1
BITMAP
0038078000
0038078000
0038078000
003C078000
000FFE0000
000FFE0000
0001E00000
0000E00000
0000000000
0000000000
0001E00000
0001F00000
0007F80000
0007F80000
0007F80000
000F1E0000
000E1E0000
000E1E0000
000E1E0000
003E1E0000
003E1E0000
003C078000
0038078000
0038078000
0038078000
00F001E000
00F001E000
00F001E000
00E001E000
03C001F800
03C001F800
03FFFFF800
03FFFFF800
0FFFFFF800
0FFFFFF800
0F00001E00
0F00001E00
0F00001E00
1E00001E00
3C00000780
3C00000780
3C00000780
F0000007C0
F0000007E0
F0000001E0
F0000001E0
F0000001E0
F0000001E0
ENDCHAR
STARTCHAR $0103
ENCODING 259
SWIDTH 666 0
DWIDTH 35 0
BBX 31 39 2 0
BITMAP
00F01E00
00F01E00
00F01E00
00F01E00
003FF800
003FF800
00078000
00038000
00000000
00000000
003FF81E
007FFC1E
03FFFF9E
0FC007FE
0FC007FE
3F0001FE
3F0001FE
3C00007E
3C00007E
FC00007E
FC00007E
F000001E
F000001E
F000001E
F000001E
F000001E
F000001E
FC00007E
FC00007E
3C00007E
3C00007E
3F0001FE
3F0001FE
0FC0079E
0FC0079E
03FFFE1E
03FFFE1E
003FF81E
003FF81C
ENDCHAR
STARTCHAR $0104
ENCODING 260
SWIDTH 740 0
DWIDTH 39 0
BBX 37 52 2 -13
BITMAP
0001E00000
0001E00000
0007F80000
0007F80000
0007F80000
0007F80000
000E1E0000
000E1E0000
000E1E0000
001E1E0000
003E1E0000
003E0F0000
0038078000
0038078000
0038078000
00F001E000
00F001E000
00F001E000
00F001E000
03C001F800
03C001F800
03FFFFF800
03FFFFF800
0FFFFFF800
0FFFFFF800
0F00001E00
0F00001E00
0F00001E00
0F00001E00
3C00000780
3C00000780
3C00000780
3C00000780
F0000007E0
F0000007E0
F0000001E0
F0000001E0
F0000001E0
E0000001E0
00000001E0
0000000780
0000000780
0000000780
0000000780
0000001E00
0000001E00
0000000780
0000000780
00000007F8
00000007F8
00000001F8
00000001F8
ENDCHAR
STARTCHAR $0105
ENCODING 261
SWIDTH 666 0
DWIDTH 35 0
BBX 31 40 2 -11
BITMAP
003FF81E
003FF81E
03FFFF9E
03FFFF9E
0FC007FE
0F8007FE
3F0001FE
3E0001FE
3C00007E
3C00007E
FC00007E
F800007E
F000001E
F000001E
F000001E
F000001E
F000001E
FC00007E
FC00007E
3C00007E
3C00007E
3F0001FE
3F0001FE
0FC0079E
0FC0079E
03FFFE1E
03FFFE1E
003FF81E
003FF81E
00000078
00000078
000001E0
000001E0
00000180
00000180
000001E0
000001E0
000001FE
000000FE
0000007E
ENDCHAR
STARTCHAR $0106
ENCODING 262
SWIDTH 814 0
DWIDTH 43 0
BBX 39 48 2 1
BITMAP
000001E000
000001E000
000007E000
000007E000
00007F8000
00007F8000
0000780000
0000380000
0000000000
0000000000
0007FFE000
0007FFE000
003FFFFE00
03FC003FC0
03F8001FE0
0FC00003F0
0FC00001F8
0F000000F8
0F00000078
3C00000000
3C00000000
3C00000000
3C00000000
FC00000000
FC00000000
F000000000
F000000000
F000000000
F000000000
F000000000
F000000000
F000000000
F000000000
3C00000000
3C00000000
3C00000000
3C00000000
3F0000001E
3F0000003C
0FC0000078
07E00001E0
03F00001E0
01F8001F80
00F8001F80
007FFFFE00
003FFFFE00
0007FFE000
0007FFE000
ENDCHAR
STARTCHAR $0107
ENCODING 263
SWIDTH 629 0
DWIDTH 33 0
BBX 29 39 2 2
BITMAP
00007E00
00007E00
0001F800
0001F800
000FE000
000FE000
00060000
00020000
00000000
00000000
003FF800
007FFC00
03FFFF80
0FC007C0
0FC007E0
3F0001F8
3F0001F8
3C000078
3C000078
FC000000
FC000000
F0000000
F0000000
F0000000
F0000000
F0000000
F0000000
FC000000
FC000000
3C000078
3C000078
3F0001F8
3F0001F8
0FC007E0
0FC007E0
03FFFF80
03FFFF80
003FF800
003FF800
ENDCHAR
STARTCHAR $0108
ENCODING 264
SWIDTH 814 0
DWIDTH 43 0
BBX 39 46 2 1
BITMAP
00007E0000
00007E0000
0007E7E000
0007E7E000
000F81F800
000F81F800
0000000000
0000000000
0007FFE000
0007FFE000
003FFFFE00
007FFFFE00
03F8001FE0
0FC00003F0
0FC00001F8
0F000000F8
0F00000078
3C00000000
3C00000000
3C00000000
3C00000000
FC00000000
FC00000000
F000000000
F000000000
F000000000
F000000000
F000000000
F000000000
F000000000
F000000000
3C00000000
3C00000000
3C00000000
3C00000000
3F0000001E
3F0000003C
0FC0000078
0FC00000F0
03F00001E0
01F8001F80
00F8001F80
007FFFFE00
003FFFFE00
0007FFE000
0007FFE000
ENDCHAR
STARTCHAR $0109
ENCODING 265
SWIDTH 629 0
DWIDTH 33 0
BBX 29 39 2 0
BITMAP
00078000
00078000
000FE000
001FE000
00387800
00787800
03F01F80
03E01F80
00000000
00000000
003FF800
007FFC00
03FFFF80
0FC007C0
0FC007E0
3F0001F8
3F0001F8
3C000078
3C000078
FC000000
FC000000
F0000000
F0000000
F0000000
F0000000
F0000000
F0000000
FC000000
FC000000
3C000078
3C000078
3F0001F8
3F0001F8
0FC007E0
0FC007E0
03FFFF80
03FFFF80
003FF800
003FF800
ENDCHAR
STARTCHAR $010A
ENCODING 266
SWIDTH 814 0
DWIDTH 43 0
BBX 39 46 2 1
BITMAP
00001E0000
00001E0000
00001E0000
00001E0000
00001E0000
00001E0000
0000000000
0000000000
0007FFE000
0007FFE000
003FFFFE00
007FFFFE00
03F8001FE0
0FC00003F0
0FC00001F8
0F000000F8
0F00000078
3C00000000
3C00000000
3C00000000
3C00000000
FC00000000
FC00000000
F000000000
F000000000
F000000000
F000000000
F000000000
F000000000
F000000000
F000000000
3C00000000
3C00000000
3C00000000
3C00000000
3F0000001E
3F0000003C
0FC0000078
0FC00000F0
03F00001E0
01F8001F80
00F8001F80
007FFFFE00
003FFFFE00
0007FFE000
0007FFE000
ENDCHAR
STARTCHAR $010B
ENCODING 267
SWIDTH 629 0
DWIDTH 33 0
BBX 29 37 2 0
BITMAP
00078000
00078000
00078000
00078000
00078000
00038000
00000000
00000000
003FF800
007FF800
03FFFF80
07FFFF80
0FC007E0
3F0001F0
3F0001F8
3C000078
3C000078
FC000000
FC000000
F0000000
F0000000
F0000000
F0000000
F0000000
F0000000
FC000000
FC000000
3C000078
3C000078
3F0001F8
3F0001F8
0FC007E0
0FC007E0
03FFFF80
03FFFF80
003FF800
003FF800
ENDCHAR
STARTCHAR $010C
ENCODING 268
SWIDTH 814 0
DWIDTH 43 0
BBX 39 46 2 1
BITMAP
000F81F800
000F81F800
0001E78000
0001E78000
00007E0000
00007E0000
0000000000
0000000000
0007FFE000
0007FFE000
003FFFFE00
007FFFFE00
03F8001FE0
0FC00003F0
0FC00001F8
0F000000F8
0F00000078
3C00000000
3C00000000
3C00000000
3C00000000
FC00000000
FC00000000
F000000000
F000000000
F000000000
F000000000
F000000000
F000000000
F000000000
F000000000
3C00000000
3C00000000
3C00000000
3C00000000
3F0000001E
3F0000003C
0FC0000078
0FC00000F0
03F00001E0
01F8001F80
00F8001F80
007FFFFE00
003FFFFE00
0007FFE000
0007FFE000
ENDCHAR
STARTCHAR $010D
ENCODING 269
SWIDTH 629 0
DWIDTH 33 0
BBX 29 39 2 0
BITMAP
03F01F80
03F01F80
00387800
003C7800
000FE000
000FE000
00078000
00038000
00000000
00000000
003FF800
007FFC00
03FFFF80
0FC007C0
0FC007E0
3F0001F8
3F0001F8
3C000078
3C000078
FC000000
FC000000
F0000000
F0000000
F0000000
F0000000
F0000000
F0000000
FC000000
FC000000
3C000078
3C000078
3F0001F8
3F0001F8
0FC007E0
0FC007E0
03FFFF80
03FFFF80
003FF800
003FF800
ENDCHAR
STARTCHAR $010E
ENCODING 270
SWIDTH 740 0
DWIDTH 39 0
BBX 33 48 4 1
BITMAP
0F01F80000
0F01F80000
03C7800000
03C7800000
00FE000000
00FE000000
0038000000
0038000000
0000000000
0000000000
FFFFE00000
FFFFF00000
FFFFFE0000
F0001FC000
F0001FE000
F00001F800
F00001F800
F000007800
F000007800
F000001E00
F000001E00
F000001E00
F000001E00
F000000780
F000000780
F000000780
F000000780
F000000780
F000000780
F000000780
F000000780
F000000780
F000000780
F000000780
F000000700
F000001E00
F000001E00
F000001E00
F000003C00
F000007800
F00000F800
F00001F800
F0000FE000
F0001FE000
FFFFFE0000
FFFFFE0000
FFFFE00000
FFFFE00000
ENDCHAR
STARTCHAR $010F
ENCODING 271
SWIDTH 703 0
DWIDTH 37 0
BBX 40 39 2 0
BITMAP
0000001E07
0000001E07
0000001E1E
0000001E1E
0000001E1E
0000001E1E
0000001E1E
0000001E1E
0000001E1E
0000001E1C
003FF81E00
007FFC1E00
03FFFF9E00
0FC007FE00
0FC007FE00
3F0001FE00
3F0001FE00
3C00007E00
3C00007E00
FC00007E00
FC00007E00
F000001E00
F000001E00
F000001E00
F000001E00
F000001E00
F000001E00
FC00001E00
FC00001E00
3C00007E00
3C00007E00
3F0001FE00
3F0001FE00
0FC0079E00
0FC0079E00
03FFFE1E00
03FFFE1E00
003FF81E00
003FF81C00
ENDCHAR
STARTCHAR $0110
ENCODING 272
SWIDTH 777 0
DWIDTH 41 0
BBX 37 39 2 0
BITMAP
0FFFFE0000
0FFFFE0000
0FFFFFE000
0FFFFFE000
0F0001FE00
0F0001FE00
0F00001F80
0F00001F80
0F000007E0
0F000007E0
0F000001E0
0F000001E0
0F000001F8
0F000000F8
0F00000078
0F00000078
0F00000078
FFFFE00078
FFFFE00078
FFFFE00078
FFFFE00078
0F00000078
0F00000078
0F00000078
0F00000078
0F000001F8
0F000001F8
0F000001E0
0F000001E0
0F000007E0
0F000007E0
0F00001F80
0F00001F80
0F0001FE00
0F0001FE00
0FFFFFE000
0FFFFFE000
0FFFFE0000
0FFFFE0000
ENDCHAR
STARTCHAR $0111
ENCODING 273
SWIDTH 703 0
DWIDTH 37 0
BBX 33 39 2 0
BITMAP
0000001E00
0000001E00
0000001E00
0000001E00
00001FFF80
00001FFF80
00001FFF80
00001FFF80
0000001E00
0000001E00
003FF81E00
007FFC1E00
03FFFF9E00
0FC007FE00
0FC007FE00
3F0001FE00
3F0001FE00
3C00007E00
3C00007E00
FC00007E00
FC00007E00
F000001E00
F000001E00
F000001E00
F000001E00
F000001E00
F000001E00
FC00001E00
FC00001E00
3C00007E00
3C00007E00
3F0001FE00
3F0001FE00
0FC0079E00
0FC0079E00
03FFFE1E00
03FFFE1E00
003FF81E00
003FF81C00
ENDCHAR
STARTCHAR $0112
ENCODING 274
SWIDTH 518 0
DWIDTH 27 0
BBX 21 46 4 1
BITMAP
3FFFE0
3FFFE0
3FFFE0
3FFFE0
000000
000000
000000
000000
FFFFF8
FFFFF8
FFFFF8
FFFFF8
F00000
F00000
F00000
F00000
F00000
F00000
F00000
F00000
F00000
F00000
F00000
F00000
F00000
FFFFF8
FFFFF8
FFFFF8
FFFFF8
F00000
F00000
F00000
F00000
F00000
F00000
F00000
F00000
F00000
F00000
F00000
F00000
F00000
FFFFF8
FFFFF8
FFFFF8
FFFFF8
ENDCHAR
STARTCHAR $0113
ENCODING 275
SWIDTH 666 0
DWIDTH 35 0
BBX 29 37 2 0
BITMAP
03FFFE00
03FFFE00
03FFFE00
03FFFE00
00000000
00000000
00000000
00000000
003FF800
007FF800
03FFFF80
07FFFF80
0FC007E0
3F0001E0
3F0001E0
3C000078
3C000078
F0000078
F0000078
FFFFFFF8
FFFFFFF8
FFFFFFF8
FFFFFFF8
F0000000
F0000000
F0000000
F0000000
3C000078
3C000078
3F0001E0
3F0001E0
0FC00780
0FC00780
03FFFE00
03FFFE00
003FE000
003FE000
ENDCHAR
STARTCHAR $0114
ENCODING 276
SWIDTH 518 0
DWIDTH 27 0
BBX 21 48 4 1
BITMAP
3C01E0
3C01E0
0F0780
0F0780
0FFF80
0FFF80
003000
002000
000000
000000
FFFFF8
FFFFF8
FFFFF8
F00000
F00000
F00000
F00000
F00000
F00000
F00000
F00000
F00000
F00000
F00000
F00000
F00000
F00000
FFFFF8
FFFFF8
FFFFF8
FFFFF8
F00000
F00000
F00000
F00000
F00000
F00000
F00000
F00000
F00000
F00000
F00000
F00000
F00000
FFFFF8
FFFFF8
FFFFF8
FFFFF8
ENDCHAR
STARTCHAR $0115
ENCODING 277
SWIDTH 666 0
DWIDTH 35 0
BBX 29 39 2 0
BITMAP
00C01E00
00C01E00
00F01E00
00F01E00
003FF800
003FF800
00060000
00020000
00000000
00000000
003FF800
007FFC00
03FFFF80
0FC007C0
0FC007E0
3F0001E0
3F0001E0
3C000078
3C000078
F0000078
F0000078
FFFFFFF8
FFFFFFF8
FFFFFFF8
FFFFFFF8
F0000000
F0000000
F0000000
F0000000
3C000078
3C000078
3F0001E0
3F0001E0
0FC00780
0FC00780
03FFFE00
03FFFE00
003FE000
003FE000
ENDCHAR
STARTCHAR $0116
ENCODING 278
SWIDTH 518 0
DWIDTH 27 0
BBX 21 48 4 1
BITMAP
00F800
00F800
00F800
00F800
00F800
00F800
000000
000000
000000
000000
FFFFF8
FFFFF8
FFFFF8
F00000
F00000
F00000
F00000
F00000
F00000
F00000
F00000
F00000
F00000
F00000
F00000
F00000
F00000
FFFFF8
FFFFF8
FFFFF8
FFFFF8
F00000
F00000
F00000
F00000
F00000
F00000
F00000
F00000
F00000
F00000
F00000
F00000
F00000
FFFFF8
FFFFF8
FFFFF8
FFFFF8
ENDCHAR
STARTCHAR $0117
ENCODING 279
SWIDTH 666 0
DWIDTH 35 0
BBX 29 37 2 0
BITMAP
00078000
00078000
00078000
00078000
00078000
00038000
00000000
00000000
003FF800
007FF800
03FFFF80
07FFFF80
0FC007E0
3F0001E0
3F0001E0
3C000078
3C000078
F0000078
F0000078
FFFFFFF8
FFFFFFF8
FFFFFFF8
FFFFFFF8
F0000000
F0000000
F0000000
F0000000
3C000078
3C000078
3F0001E0
3F0001E0
0FC00780
0FC00780
03FFFE00
03FFFE00
003FE000
003FE000
ENDCHAR
STARTCHAR $0118
ENCODING 280
SWIDTH 518 0
DWIDTH 27 0
BBX 21 52 4 -13
BITMAP
FFFFF8
FFFFF8
FFFFF8
FFFFF8
F00000
F00000
F00000
F00000
F00000
F00000
F00000
F00000
F00000
F00000
F00000
F00000
F00000
FFFFF8
FFFFF8
FFFFF8
FFFFF8
F00000
F00000
F00000
F00000
F00000
F00000
F00000
F00000
F00000
F00000
F00000
F00000
F00000
F00000
FFFFF8
FFFFF8
FFFFF8
FFFFF8
0001E0
0003C0
000780
000780
000780
000780
000780
000780
000780
0007F8
0007F8
0001F8
0001F8
ENDCHAR
STARTCHAR $0119
ENCODING 281
SWIDTH 666 0
DWIDTH 35 0
BBX 29 40 2 -11
BITMAP
003FF800
003FF800
03FFFF80
03FFFF80
0FC007E0
0F8007E0
3F0001E0
3E0001E0
3C000078
38000078
F0000078
F0000078
FFFFFFF8
FFFFFFF8
FFFFFFF8
F0000000
F0000000
F0000000
F0000000
3C000078
3C000078
3F0001E0
3F0001E0
0FC00780
0FC00780
03FFFE00
03FFFE00
003FF800
003FF800
00018000
00018000
00078000
00078000
000E0000
000F0000
000F8000
000FC000
0007F800
0003F800
0001F800
ENDCHAR
STARTCHAR $011A
ENCODING 282
SWIDTH 518 0
DWIDTH 27 0
BBX 21 48 4 1
BITMAP
3C01E0
3C01E0
0FCF80
0FDF80
03FE00
03FE00
00F800
00F800
000000
000000
FFFFF8
FFFFF8
FFFFF8
F00000
F00000
F00000
F00000
F00000
F00000
F00000
F00000
F00000
F00000
F00000
F00000
F00000
F00000
FFFFF8
FFFFF8
FFFFF8
FFFFF8
F00000
F00000
F00000
F00000
F00000
F00000
F00000
F00000
F00000
F00000
F00000
F00000
F00000
FFFFF8
FFFFF8
FFFFF8
FFFFF8
ENDCHAR
STARTCHAR $011B
ENCODING 283
SWIDTH 666 0
DWIDTH 35 0
BBX 29 39 2 0
BITMAP
03F01E00
03F01E00
00F87800
00FC7800
003FE000
003FE000
00078000
00038000
00000000
00000000
003FF800
007FFC00
03FFFF80
0FC007C0
0FC007E0
3F0001E0
3F0001E0
3C000078
3C000078
F0000078
F0000078
FFFFFFF8
FFFFFFF8
FFFFFFF8
FFFFFFF8
F0000000
F0000000
F0000000
F0000000
3C000078
3C000078
3F0001E0
3F0001E0
0FC00780
0FC00780
03FFFE00
03FFFE00
003FE000
003FE000
ENDCHAR
STARTCHAR $011C
ENCODING 284
SWIDTH 888 0
DWIDTH 47 0
BBX 40 46 2 1
BITMAP
00007F8000
00007F8000
0001E7E000
0001E7E000
0007807800
0003807800
0000000000
0000000000
0001FFE000
0001FFE000
003FFFFF80
007FFFFF80
00F8001FE0
03F00003F0
03F00001F8
0F000000FC
0F0000007E
3F0000003E
3F0000001E
3C00000000
3C00000000
3C00000000
3C00000000
F000000000
F000000000
F000000000
F000000000
F000000000
F000000000
F001FFFFFF
F001FFFFFF
FC01FFFFFF
FC00FFFFFF
3C00000007
3C0000000F
3F0000001E
3F0000001E
0F0000001E
0F0000003C
03F00001F8
01F80007E0
00F80007E0
007FFFFF80
003FFFFF80
0001FFE000
0001FFE000
ENDCHAR
STARTCHAR $011D
ENCODING 285
SWIDTH 666 0
DWIDTH 35 0
BBX 29 50 2 -11
BITMAP
00078000
00078000
003FE000
003FE000
00F87800
00F87800
03F01E00
03E01E00
00000000
00000000
003FF878
007FFC78
03FFFE78
0FC01FF8
0FC01FF8
3F0001F8
3F0001F8
3C000078
3C000078
F0000078
F0000078
F0000078
F0000078
F0000078
F0000078
F0000078
F0000078
FC000078
FC000078
3C000078
3C000078
3F0001F8
3F0001F8
0FC007F8
0FC007F8
03FFFE78
03FFFE78
003FE078
003FE078
3C000078
3C000078
3C000078
0E0001E0
0F0001E0
0FE007E0
0FF007E0
03FFFF80
03FFFF80
001FF800
000FF800
ENDCHAR
STARTCHAR $011E
ENCODING 286
SWIDTH 888 0
DWIDTH 47 0
BBX 40 46 2 1
BITMAP
0007807800
0007807800
0007FFE000
0003FFE000
0001FF8000
0000FF8000
0000000000
0000000000
0001FFE000
0001FFE000
003FFFFF80
007FFFFF80
00F8001FE0
03F00003F0
03F00001F8
0F000000FC
0F0000007E
3F0000003E
3F0000001E
3C00000000
3C00000000
3C00000000
3C00000000
F000000000
F000000000
F000000000
F000000000
F000000000
F000000000
F001FFFFFF
F001FFFFFF
FC01FFFFFF
FC00FFFFFF
3C00000007
3C0000000F
3F0000001E
3F0000001E
0F0000001E
0F0000003C
03F00001F8
01F80007E0
00F80007E0
007FFFFF80
003FFFFF80
0001FFE000
0001FFE000
ENDCHAR
STARTCHAR $011F
ENCODING 287
SWIDTH 666 0
DWIDTH 35 0
BBX 29 50 2 -11
BITMAP
00C01E00
00C01E00
00F07800
00F07800
003FF800
003FF800
00060000
00020000
00000000
00000000
003FF878
007FFC78
03FFFE78
0FC01FF8
0FC01FF8
3F0001F8
3F0001F8
3C000078
3C000078
F0000078
F0000078
F0000078
F0000078
F0000078
F0000078
F0000078
F0000078
FC000078
FC000078
3C000078
3C000078
3F0001F8
3F0001F8
0FC007F8
0FC007F8
03FFFE78
03FFFE78
003FE078
003FE078
3C000078
3C000078
3C000078
0E0001E0
0F0001E0
0FE007E0
0FF007E0
03FFFF80
03FFFF80
001FF800
000FF800
ENDCHAR
STARTCHAR $0120
ENCODING 288
SWIDTH 888 0
DWIDTH 47 0
BBX 40 46 2 1
BITMAP
00001E0000
00001E0000
00001E0000
00001E0000
00001E0000
00001E0000
0000000000
0000000000
0001FFE000
0001FFE000
003FFFFF80
007FFFFF80
00F8001FE0
03F00003F0
03F00001F8
0F000000FC
0F0000007E
3F0000003E
3F0000001E
3C00000000
3C00000000
3C00000000
3C00000000
F000000000
F000000000
F000000000
F000000000
F000000000
F000000000
F001FFFFFF
F001FFFFFF
FC01FFFFFF
FC00FFFFFF
3C00000007
3C0000000F
3F0000001E
3F0000001E
0F0000001E
0F0000003C
03F00001F8
01F80007E0
00F80007E0
007FFFFF80
003FFFFF80
0001FFE000
0001FFE000
ENDCHAR
STARTCHAR $0121
ENCODING 289
SWIDTH 666 0
DWIDTH 35 0
BBX 29 48 2 -11
BITMAP
00078000
00078000
00078000
00078000
00078000
00038000
00000000
00000000
003FF878
007FF878
03FFFE78
07FFFF78
0FC01FF8
3F0001F8
3F0001F8
3C000078
3C000078
F0000078
F0000078
F0000078
F0000078
F0000078
F0000078
F0000078
F0000078
FC000078
FC000078
3C000078
3C000078
3F0001F8
3F0001F8
0FC007F8
0FC007F8
03FFFE78
03FFFE78
003FE078
003FE078
3C000078
3C000078
3C000078
1E0000E0
0F0001E0
0FE007E0
0FF007E0
03FFFF80
03FFFF80
001FF800
000FF800
ENDCHAR
STARTCHAR $0122
ENCODING 290
SWIDTH 888 0
DWIDTH 47 0
BBX 40 50 2 -11
BITMAP
0001FFE000
0001FFE000
003FFFFF80
003FFFFF80
00F8001FE0
00F8001FE0
03F00001F8
03E00001F8
0F0000007E
0F0000007E
3F0000001E
3E0000001C
3C00000000
3C00000000
3C00000000
F000000000
F000000000
F000000000
F000000000
F000000000
F000000000
F000FFFFFF
F001FFFFFF
FC01FFFFFF
FC01FFFFFF
3C00000007
3C00000007
3F0000001E
3F0000001E
0F0000001E
0F0000001C
03F00001F8
03F00001F0
00F80007E0
00FC0007C0
003FFFFF80
003FFFFF00
0001FFE000
0000FFC000
0000000000
00000E0000
00001E0000
00001E0000
00001E0000
0000380000
0000780000
0000780000
0000780000
0000780000
0000780000
ENDCHAR
STARTCHAR $0123
ENCODING 291
SWIDTH 666 0
DWIDTH 35 0
BBX 29 52 2 -12
BITMAP
00078000
00078000
00078000
00078000
00078000
00078000
000E0000
000E0000
000E0000
000E0000
00000000
00000000
003FF878
03FFFE78
03FFFE78
0FC01FF8
0FC01FF8
3F0001F8
3F0001F8
3C000078
3C000078
F0000078
F0000078
F0000078
F0000078
F0000078
F0000078
F0000078
F0000078
FC000078
FC000078
3C000078
3C000078
3F0001F8
3F0001F8
0FC007F8
0FC007F8
03FFFE78
03FFFE78
003FE078
38000078
3C000078
3C000078
3C000078
0E0001E0
0F0001E0
0FE007E0
0FF007E0
03FFFF80
03FFFF80
000FF800
000FF800
ENDCHAR
STARTCHAR $0124
ENCODING 292
SWIDTH 666 0
DWIDTH 35 0
BBX 27 48 4 1
BITMAP
000E0000
000E0000
003FE000
003FE000
00F1F800
00E0F800
03C07E00
03803E00
00000000
00000000
F00001E0
F00001E0
F00001E0
F00001E0
F00001E0
F00001E0
F00001E0
F00001E0
F00001E0
F00001E0
F00001E0
F00001E0
F00001E0
F00001E0
F00001E0
F00001E0
F00001E0
FFFFFFE0
FFFFFFE0
FFFFFFE0
FFFFFFE0
F00001E0
F00001E0
F00001E0
F00001E0
F00001E0
F00001E0
F00001E0
F00001E0
F00001E0
F00001E0
F00001E0
F00001E0
F00001E0
F00001E0
F00001E0
F00001E0
F00001E0
ENDCHAR
STARTCHAR $0125
ENCODING 293
SWIDTH 592 0
DWIDTH 31 0
BBX 25 48 4 1
BITMAP
00380000
003C0000
00FF8000
00FF8000
03C7E000
0383E000
0F01F800
0E00F800
00000000
00000000
F0000000
F0000000
F0000000
F0000000
F0000000
F0000000
F0000000
F0000000
F0000000
F0FF8000
F0FF8000
FFFFF800
FFFFF800
FF007E00
FF007E00
FC001E00
FC001E00
F0001E00
F0001E00
F0000780
F0000780
F0000780
F0000780
F0000780
F0000780
F0000780
F0000780
F0000780
F0000780
F0000780
F0000780
F0000780
F0000780
F0000780
F0000780
F0000780
F0000780
F0000780
ENDCHAR
STARTCHAR $0126
ENCODING 294
SWIDTH 666 0
DWIDTH 35 0
BBX 35 39 0 0
BITMAP
0F00001E00
0F00001E00
0F00001E00
0F00001E00
0F00001E00
0F00001E00
FFFFFFFFE0
FFFFFFFFE0
FFFFFFFFE0
FFFFFFFFC0
0F00001E00
0F00001E00
0F00001E00
0F00001E00
0F00001E00
0F00001E00
0F00001E00
0FFFFFFE00
0FFFFFFE00
0FFFFFFE00
0FFFFFFE00
0F00001E00
0F00001E00
0F00001E00
0F00001E00
0F00001E00
0F00001E00
0F00001E00
0F00001E00
0F00001E00
0F00001E00
0F00001E00
0F00001E00
0F00001E00
0F00001E00
0F00001E00
0F00001E00
0F00001E00
0E00001C00
ENDCHAR
STARTCHAR $0127
ENCODING 295
SWIDTH 592 0
DWIDTH 31 0
BBX 29 39 0 0
BITMAP
0F000000
0F000000
0F000000
0F000000
FFF00000
FFF00000
FFF00000
FFE00000
0F000000
0F000000
0F0FF800
0F1FFC00
0FFFFF80
0FF007C0
0FF007E0
0FC001E0
0FC001E0
0F0001F8
0F0001F8
0F000078
0F000078
0F000078
0F000078
0F000078
0F000078
0F000078
0F000078
0F000078
0F000078
0F000078
0F000078
0F000078
0F000078
0F000078
0F000078
0F000078
0F000078
0F000078
0E000030
ENDCHAR
STARTCHAR $0128
ENCODING 296
SWIDTH 222 0
DWIDTH 12 0
BBX 15 48 -2 1
BITMAP
0C00
0C00
FF06
FF06
30FE
30FE
0030
0020
0000
0000
03C0
03C0
03C0
03C0
03C0
03C0
03C0
03C0
03C0
03C0
03C0
03C0
03C0
03C0
03C0
03C0
03C0
03C0
03C0
03C0
03C0
03C0
03C0
03C0
03C0
03C0
03C0
03C0
03C0
03C0
03C0
03C0
03C0
03C0
03C0
03C0
03C0
03C0
ENDCHAR
STARTCHAR $0129
ENCODING 297
SWIDTH 185 0
DWIDTH 10 0
BBX 15 39 -2 0
BITMAP
3C00
3C00
FFFE
FFFE
C3F8
C3F8
0000
0000
0000
0000
03C0
03C0
03C0
03C0
03C0
03C0
03C0
03C0
03C0
03C0
03C0
03C0
03C0
03C0
03C0
03C0
03C0
03C0
03C0
03C0
03C0
03C0
03C0
03C0
03C0
03C0
03C0
03C0
0380
ENDCHAR
STARTCHAR $012A
ENCODING 298
SWIDTH 222 0
DWIDTH 12 0
BBX 19 46 -4 1
BITMAP
FFFFE0
FFFFE0
FFFFE0
FFFFE0
000000
000000
000000
000000
00F000
00F000
00F000
00F000
00F000
00F000
00F000
00F000
00F000
00F000
00F000
00F000
00F000
00F000
00F000
00F000
00F000
00F000
00F000
00F000
00F000
00F000
00F000
00F000
00F000
00F000
00F000
00F000
00F000
00F000
00F000
00F000
00F000
00F000
00F000
00F000
00F000
00F000
ENDCHAR
STARTCHAR $012B
ENCODING 299
SWIDTH 185 0
DWIDTH 10 0
BBX 17 37 -4 0
BITMAP
FFFF80
FFFF80
FFFF80
FFFF80
000000
000000
000000
000000
00F000
00F000
00F000
00F000
00F000
00F000
00F000
00F000
00F000
00F000
00F000
00F000
00F000
00F000
00F000
00F000
00F000
00F000
00F000
00F000
00F000
00F000
00F000
00F000
00F000
00F000
00F000
00F000
00E000
ENDCHAR
STARTCHAR $012C
ENCODING 300
SWIDTH 222 0
DWIDTH 12 0
BBX 15 48 -2 1
BITMAP
F00E
F00E
F00E
F01E
3FF8
3FF8
03C0
0380
0000
0000
03C0
03C0
03C0
03C0
03C0
03C0
03C0
03C0
03C0
03C0
03C0
03C0
03C0
03C0
03C0
03C0
03C0
03C0
03C0
03C0
03C0
03C0
03C0
03C0
03C0
03C0
03C0
03C0
03C0
03C0
03C0
03C0
03C0
03C0
03C0
03C0
03C0
03C0
ENDCHAR
STARTCHAR $012D
ENCODING 301
SWIDTH 185 0
DWIDTH 10 0
BBX 15 39 -2 0
BITMAP
C00E
C00E
F038
F038
3FF8
3FF8
0300
0200
0000
0000
03C0
03C0
03C0
03C0
03C0
03C0
03C0
03C0
03C0
03C0
03C0
03C0
03C0
03C0
03C0
03C0
03C0
03C0
03C0
03C0
03C0
03C0
03C0
03C0
03C0
03C0
03C0
03C0
0380
ENDCHAR
STARTCHAR $012E
ENCODING 302
SWIDTH 222 0
DWIDTH 12 0
BBX 8 52 0 -13
BITMAP
0F
0F
0F
0F
0F
0F
0F
0F
0F
0F
0F
0F
0F
0F
0F
0F
0F
0F
0F
0F
0F
0F
0F
0F
0F
0F
0F
0F
0F
0F
0F
0F
0F
0F
0F
0F
0F
0F
0F
0F
3C
3C
F0
F0
F0
F0
F0
F0
FF
FF
3F
3F
ENDCHAR
STARTCHAR $012F
ENCODING 303
SWIDTH 185 0
DWIDTH 10 0
BBX 10 52 -2 -13
BITMAP
03C0
03C0
03C0
03C0
03C0
0380
0000
0000
0000
0000
03C0
03C0
03C0
03C0
03C0
03C0
03C0
03C0
03C0
03C0
03C0
03C0
03C0
03C0
03C0
03C0
03C0
03C0
03C0
03C0
03C0
03C0
03C0
03C0
03C0
03C0
03C0
03C0
0780
0F00
3C00
3C00
3C00
3C00
F000
F000
3C00
3C00
3FC0
3FC0
0FC0
0FC0
ENDCHAR
STARTCHAR $0130
ENCODING 304
SWIDTH 222 0
DWIDTH 12 0
BBX 4 48 4 1
BITMAP
F0
F0
F0
F0
F0
F0
00
00
00
00
F0
F0
F0
F0
F0
F0
F0
F0
F0
F0
F0
F0
F0
F0
F0
F0
F0
F0
F0
F0
F0
F0
F0
F0
F0
F0
F0
F0
F0
F0
F0
F0
F0
F0
F0
F0
F0
F0
ENDCHAR
STARTCHAR $0131
ENCODING 305
SWIDTH 185 0
DWIDTH 10 0
BBX 4 29 4 0
BITMAP
F0
F0
F0
F0
F0
F0
F0
F0
F0
F0
F0
F0
F0
F0
F0
F0
F0
F0
F0
F0
F0
F0
F0
F0
F0
F0
F0
F0
F0
ENDCHAR
STARTCHAR $0132
ENCODING 306
SWIDTH 666 0
DWIDTH 35 0
BBX 27 39 4 0
BITMAP
F00001E0
F00001E0
F00001E0
F00001E0
F00001E0
F00001E0
F00001E0
F00001E0
F00001E0
F00001E0
F00001E0
F00001E0
F00001E0
F00001E0
F00001E0
F00001E0
F00001E0
F00001E0
F00001E0
F00001E0
F00001E0
F00001E0
F00001E0
F00001E0
F00001E0
F00001E0
F00001E0
F00001E0
F00001E0
F0F001E0
F0F001E0
F0F001E0
F0F001E0
F0F807E0
F0FC07E0
F03FFF80
F03FFF80
F00FF800
E00FF800
ENDCHAR
STARTCHAR $0133
ENCODING 307
SWIDTH 407 0
DWIDTH 22 0
BBX 13 48 4 -9
BITMAP
F038
F038
F038
F038
F038
F038
0000
0000
0000
0000
F038
F038
F038
F038
F038
F038
F038
F038
F038
F038
F038
F038
F038
F038
F038
F038
F038
F038
F038
F038
F038
F038
F038
F038
F038
F038
F038
F038
E038
0038
0038
0038
00F8
00F8
0FF0
0FF0
0F00
0F00
ENDCHAR
STARTCHAR $0134
ENCODING 308
SWIDTH 481 0
DWIDTH 26 0
BBX 29 48 0 1
BITMAP
00007800
00007800
0001FE00
0001FE00
00078780
00078780
003E01F8
003E01F8
00000000
00000000
00007800
00007800
00007800
00007800
00007800
00007800
00007800
00007800
00007800
00007800
00007800
00007800
00007800
00007800
00007800
00007800
00007800
00007800
00007800
00007800
00007800
00007800
00007800
00007800
00007800
00007800
00007800
00007800
00007800
F0007800
3800F800
3C01F800
3E01F000
3F01E000
0FFFC000
0FFF8000
03FF0000
03FE0000
ENDCHAR
STARTCHAR $0135
ENCODING 309
SWIDTH 185 0
DWIDTH 10 0
BBX 15 48 -2 -9
BITMAP
0FC0
0FC0
3FF0
3FF0
FC3E
FC3E
0000
0000
0000
0000
03C0
03C0
03C0
03C0
03C0
03C0
03C0
03C0
03C0
03C0
03C0
03C0
03C0
03C0
03C0
03C0
03C0
03C0
03C0
03C0
03C0
03C0
03C0
03C0
03C0
03C0
03C0
03C0
03C0
03C0
0F00
0F00
0F00
0F00
FC00
FC00
F000
F000
ENDCHAR
STARTCHAR $0136
ENCODING 310
SWIDTH 592 0
DWIDTH 31 0
BBX 25 50 4 -11
BITMAP
F0000780
F0000780
F0001F80
F0001F80
F0007E00
F0007E00
F001F800
F001F800
F001E000
F001E000
F0078000
F0078000
F00F8000
F03F0000
F03E0000
F0FC0000
F0F80000
F0F00000
F0F00000
F3F00000
F3F00000
FF380000
FF380000
FF1E0000
FF0E0000
FC0F8000
FC0F8000
F007E000
F003E000
F001E000
F000E000
F0007800
F0007800
F0007E00
F0003E00
F0001F80
F0000F80
F0000780
E0000380
00000000
000E0000
000E0000
000E0000
000E0000
003C0000
00380000
00380000
00380000
00380000
00380000
ENDCHAR
STARTCHAR $0137
ENCODING 311
SWIDTH 518 0
DWIDTH 27 0
BBX 21 50 4 -11
BITMAP
F00000
F00000
F00000
F00000
F00000
F00000
F00000
F00000
F00000
F00000
F001F8
F001F8
F007E0
F007C0
F00780
F00F00
F00E00
F03E00
F03E00
F0FC00
F0F800
F0F000
F0F000
F3C000
F3C000
FFF000
FFF000
FFF800
FFFC00
FC3E00
FC3F00
F00F80
F00F80
F00780
F003C0
F001E0
F001F0
F001F8
E000F8
000000
003800
003800
00F000
00F000
00F000
00F000
00F000
00F000
03C000
03C000
ENDCHAR
STARTCHAR $0139
ENCODING 313
SWIDTH 444 0
DWIDTH 24 0
BBX 21 48 2 3
BITMAP
03F000
03F000
0FC000
0FC000
FF0000
FF0000
300000
300000
000000
000000
3C0000
3C0000
3C0000
3C0000
3C0000
3C0000
3C0000
3C0000
3C0000
3C0000
3C0000
3C0000
3C0000
3C0000
3C0000
3C0000
3C0000
3C0000
3C0000
3C0000
3C0000
3C0000
3C0000
3C0000
3C0000
3C0000
3C0000
3C0000
3C0000
3C0000
3C0000
3C0000
3C0000
3C0000
3FFFF8
3FFFF8
3FFFF8
3FFFF8
ENDCHAR
STARTCHAR $013A
ENCODING 314
SWIDTH 185 0
DWIDTH 10 0
BBX 12 48 2 3
BITMAP
03F0
03F0
3FC0
3FC0
FC00
FC00
F000
F000
0000
0000
3C00
3C00
3C00
3C00
3C00
3C00
3C00
3C00
3C00
3C00
3C00
3C00
3C00
3C00
3C00
3C00
3C00
3C00
3C00
3C00
3C00
3C00
3C00
3C00
3C00
3C00
3C00
3C00
3C00
3C00
3C00
3C00
3C00
3C00
3C00
3C00
3C00
3C00
ENDCHAR
STARTCHAR $013B
ENCODING 315
SWIDTH 444 0
DWIDTH 24 0
BBX 19 50 4 -11
BITMAP
F00000
F00000
F00000
F00000
F00000
F00000
F00000
F00000
F00000
F00000
F00000
F00000
F00000
F00000
F00000
F00000
F00000
F00000
F00000
F00000
F00000
F00000
F00000
F00000
F00000
F00000
F00000
F00000
F00000
F00000
F00000
F00000
F00000
F00000
F00000
FFFFE0
FFFFE0
FFFFE0
FFFFE0
000000
00E000
00F000
00F000
00F000
00F000
00F000
00F000
00F000
03C000
03C000
ENDCHAR
STARTCHAR $013C
ENCODING 316
SWIDTH 185 0
DWIDTH 10 0
BBX 6 50 2 -11
BITMAP
3C
3C
3C
3C
3C
3C
3C
3C
3C
3C
3C
3C
3C
3C
3C
3C
3C
3C
3C
3C
3C
3C
3C
3C
3C
3C
3C
3C
3C
3C
3C
3C
3C
3C
3C
3C
3C
3C
38
00
38
3C
3C
3C
F0
F0
F0
F0
F0
F0
ENDCHAR
STARTCHAR $013D
ENCODING 317
SWIDTH 444 0
DWIDTH 24 0
BBX 19 39 4 0
BITMAP
F03800
F03800
F03800
F03800
F0F000
F0F000
F0F000
F0F000
F0F000
F0E000
F00000
F00000
F00000
F00000
F00000
F00000
F00000
F00000
F00000
F00000
F00000
F00000
F00000
F00000
F00000
F00000
F00000
F00000
F00000
F00000
F00000
F00000
F00000
F00000
F00000
FFFFE0
FFFFE0
FFFFE0
FFFFE0
ENDCHAR
STARTCHAR $013E
ENCODING 318
SWIDTH 185 0
DWIDTH 10 0
BBX 13 39 4 0
BITMAP
F038
F038
F0F0
F0F0
F0F0
F0F0
F0F0
F1E0
F3C0
F380
F000
F000
F000
F000
F000
F000
F000
F000
F000
F000
F000
F000
F000
F000
F000
F000
F000
F000
F000
F000
F000
F000
F000
F000
F000
F000
F000
F000
E000
ENDCHAR
STARTCHAR $013F
ENCODING 319
SWIDTH 444 0
DWIDTH 24 0
BBX 19 39 4 0
BITMAP
F00000
F00000
F00000
F00000
F00000
F00000
F00000
F00000
F00000
F00000
F00000
F00000
F00000
F00000
F00000
F00E00
F00E00
F00E00
F00E00
F00E00
F00E00
F00000
F00000
F00000
F00000
F00000
F00000
F00000
F00000
F00000
F00000
F00000
F00000
F00000
F00000
FFFFE0
FFFFE0
FFFFE0
FFFFE0
ENDCHAR
STARTCHAR $0140
ENCODING 320
SWIDTH 259 0
DWIDTH 14 0
BBX 10 39 4 0
BITMAP
F000
F000
F000
F000
F000
F000
F000
F000
F000
F000
F000
F000
F000
F000
F000
F380
F3C0
F3C0
F3C0
F3C0
F3C0
F000
F000
F000
F000
F000
F000
F000
F000
F000
F000
F000
F000
F000
F000
F000
F000
F000
E000
ENDCHAR
STARTCHAR $0141
ENCODING 321
SWIDTH 518 0
DWIDTH 27 0
BBX 25 39 2 0
BITMAP
0F000000
0F000000
0F000000
0F000000
0F000000
0F000000
0F000000
0F000000
0F000000
0F000000
0F018000
0F018000
0F0F8000
0F3F0000
0F3E0000
0FFC0000
0FF80000
0FC00000
0FC00000
3F000000
3F000000
FF000000
FF000000
CF000000
CF000000
0F000000
0F000000
0F000000
0F000000
0F000000
0F000000
0F000000
0F000000
0F000000
0F000000
0FFFFF80
0FFFFF80
0FFFFF80
0FFFFF80
ENDCHAR
STARTCHAR $0142
ENCODING 322
SWIDTH 296 0
DWIDTH 16 0
BBX 12 39 2 0
BITMAP
0F00
0F00
0F00
0F00
0F00
0F00
0F00
0F00
0F00
0F00
0F00
0F00
0F00
0F20
0F30
0FF0
0FF0
3F00
3F00
FF00
FF00
CF00
CF00
0F00
0F00
0F00
0F00
0F00
0F00
0F00
0F00
0F00
0F00
0F00
0F00
0F00
0F00
0F00
0E00
ENDCHAR
STARTCHAR $0143
ENCODING 323
SWIDTH 740 0
DWIDTH 39 0
BBX 31 48 4 3
BITMAP
00007E00
00007E00
0001F800
0001F800
000F8000
000F8000
00060000
00020000
00000000
00000000
FC00001E
FC00001E
FF00001E
FF00001E
FF00001E
F780001E
F3C0001E
F3E0001E
F3F0001E
F0F0001E
F0F0001E
F038001E
F038001E
F03E001E
F03E001E
F00E001E
F00E001E
F007801E
F007801E
F007E01E
F003E01E
F001F81E
F000F81E
F000781E
F000381E
F0001E1E
F0001E1E
F0001F9E
F0000F9E
F000079E
F00001FE
F00001FE
F00001FE
F00001FE
F000007E
F000007E
F000001E
F000001E
ENDCHAR
STARTCHAR $0144
ENCODING 324
SWIDTH 592 0
DWIDTH 31 0
BBX 25 40 4 1
BITMAP
00006000
00006000
0007E000
0007E000
003F8000
007F8000
00F80000
00F80000
00000000
00000000
00000000
00000000
F0FF8000
FFFFF800
FFFFF800
FF007E00
FF007E00
FC001E00
FC001E00
F0001E00
F0001E00
F0000780
F0000780
F0000780
F0000780
F0000780
F0000780
F0000780
F0000780
F0000780
F0000780
F0000780
F0000780
F0000780
F0000780
F0000780
F0000780
F0000780
F0000780
F0000780
ENDCHAR
STARTCHAR $0145
ENCODING 325
SWIDTH 740 0
DWIDTH 39 0
BBX 31 50 4 -11
BITMAP
FC00001E
FC00001E
FF00001E
FF00001E
FF00001E
FF00001E
F3C0001E
F3C0001E
F3F0001E
F3F0001E
F0F0001E
F0F0001E
F038001E
F03E001E
F03E001E
F01E001E
F00E001E
F007801E
F007801E
F007E01E
F007E01E
F001F81E
F001F81E
F000781E
F000781E
F0001E1E
F0001E1E
F0001F9E
F0001F9E
F000079E
F000079E
F00001FE
F00001FE
F00001FE
F00001FE
F000007E
F000007E
F000001E
E000001C
00000000
00038000
00078000
00078000
00078000
00078000
00078000
000F0000
000E0000
000E0000
000E0000
ENDCHAR
STARTCHAR $0146
ENCODING 326
SWIDTH 592 0
DWIDTH 31 0
BBX 25 40 4 -11
BITMAP
F0FF8000
F0FF8000
FFFFF800
FFFFF800
FF007E00
FF007E00
FC001E00
FC001E00
F0001E00
F0000E00
F0000780
F0000780
F0000780
F0000780
F0000780
F0000780
F0000780
F0000780
F0000780
F0000780
F0000780
F0000780
F0000780
F0000780
F0000780
F0000780
F0000780
F0000780
F0000780
00000000
00000000
003E0000
003E0000
00380000
00380000
00380000
00380000
00380000
00780000
00F00000
ENDCHAR
STARTCHAR $0147
ENCODING 327
SWIDTH 740 0
DWIDTH 39 0
BBX 31 48 4 1
BITMAP
03F01E00
03F01E00
00387800
003C7800
000FE000
000FE000
00078000
00038000
00000000
00000000
FC00001E
FC00001E
FF00001E
FF00001E
FF00001E
F780001E
F3C0001E
F3E0001E
F3F0001E
F0F0001E
F0F0001E
F038001E
F038001E
F03E001E
F03E001E
F00E001E
F00E001E
F007801E
F007801E
F007E01E
F003E01E
F001F81E
F000F81E
F000781E
F000381E
F0001E1E
F0001E1E
F0001F9E
F0000F9E
F000079E
F00001FE
F00001FE
F00001FE
F00001FE
F000007E
F000007E
F000001E
F000001E
ENDCHAR
STARTCHAR $0148
ENCODING 328
SWIDTH 592 0
DWIDTH 31 0
BBX 25 39 4 0
BITMAP
0F01E000
0F01E000
03F78000
03F78000
00FE0000
00FE0000
00000000
00000000
00000000
00000000
F0FF8000
F1FFC000
FFFFF800
FF007E00
FF007E00
FC001E00
FC001E00
F0001E00
F0001E00
F0000780
F0000780
F0000780
F0000780
F0000780
F0000780
F0000780
F0000780
F0000780
F0000780
F0000780
F0000780
F0000780
F0000780
F0000780
F0000780
F0000780
F0000780
F0000780
E0000380
ENDCHAR
STARTCHAR $014A
ENCODING 330
SWIDTH 740 0
DWIDTH 39 0
BBX 31 52 4 -13
BITMAP
FC00001E
FC00001E
FF00001E
FF00001E
FF00001E
FF00001E
F3C0001E
F3C0001E
F3F0001E
F3F0001E
F0F0001E
F0F0001E
F038001E
F03E001E
F03E001E
F01E001E
F00E001E
F007801E
F007801E
F007E01E
F007E01E
F001F81E
F001F81E
F000781E
F000781E
F0001E1E
F0001E1E
F0001F9E
F0001F9E
F000079E
F000079E
F00001FE
F00001FE
F00001FE
F00001FE
F000007E
F000007E
F000001E
E000001E
0000001E
0000001E
0000001E
0038001E
0038001E
001E0078
000E0078
000F81F8
000F81F8
0007FFE0
0007FFE0
0001FE00
0001FE00
ENDCHAR
STARTCHAR $014B
ENCODING 331
SWIDTH 592 0
DWIDTH 31 0
BBX 25 39 4 -10
BITMAP
F0FF8000
F0FF8000
FFFFF800
FFFFF800
FF007E00
FF007E00
FC001E00
FC001E00
F0001E00
F0000E00
F0000780
F0000780
F0000780
F0000780
F0000780
F0000780
F0000780
F0000780
F0000780
F0000780
F0000780
F0000780
F0000780
F0000780
F0000780
F0000780
F0000780
F0000780
F0000780
00000780
00000780
00001E00
00001E00
00001E00
00001E00
0001F800
0001F800
0001E000
0000E000
ENDCHAR
STARTCHAR $014C
ENCODING 332
SWIDTH 851 0
DWIDTH 45 0
BBX 40 46 2 1
BITMAP
000FFFF800
000FFFF800
000FFFF800
000FFFF800
0000000000
0000000000
0000000000
0000000000
0001FFE000
0001FFE000
003FFFFE00
007FFFFE00
00F8001FE0
03F00003F0
03F00001F8
0F000000FC
0F0000007E
3F0000003E
3F0000001E
3C0000001F
3C0000001F
3C0000000F
3C00000007
F000000007
F000000007
F000000007
F000000007
F000000007
F000000007
F000000007
F000000007
3C00000007
3C0000000F
3C0000001F
3C0000001F
3F0000001E
3F0000003E
0FC000007E
0FC00000FC
03F00001F8
01F8001FE0
00F8001FE0
007FFFFE00
003FFFFE00
0007FFE000
0007FFE000
ENDCHAR
STARTCHAR $014D
ENCODING 333
SWIDTH 666 0
DWIDTH 35 0
BBX 31 37 2 0
BITMAP
03FFFE00
03FFFE00
03FFFE00
03FFFE00
00000000
00000000
00000000
00000000
003FF800
007FF800
03FFFF80
07FFFF80
0FC007E0
3F0001F0
3F0001F8
3C000078
3C000078
FC000078
FC000078
F000007E
F000007E
F000001E
F000001E
F0000078
F0000078
FC000078
FC000078
3C000078
3C000078
3F0001E0
3F0001E0
0FC007E0
0FC007E0
03FFFF80
03FFFF80
003FF800
003FF800
ENDCHAR
STARTCHAR $014E
ENCODING 334
SWIDTH 851 0
DWIDTH 45 0
BBX 40 46 2 1
BITMAP
0007807800
0007807800
0007FFE000
0003FFE000
0001FF8000
0000FF8000
0000000000
0000000000
0001FFE000
0001FFE000
003FFFFE00
007FFFFE00
00F8001FE0
03F00003F0
03F00001F8
0F000000FC
0F0000007E
3F0000003E
3F0000001E
3C0000001F
3C0000001F
3C0000000F
3C00000007
F000000007
F000000007
F000000007
F000000007
F000000007
F000000007
F000000007
F000000007
3C00000007
3C0000000F
3C0000001F
3C0000001F
3F0000001E
3F0000003E
0FC000007E
0FC00000FC
03F00001F8
01F8001FE0
00F8001FE0
007FFFFE00
003FFFFE00
0007FFE000
0007FFE000
ENDCHAR
STARTCHAR $014F
ENCODING 335
SWIDTH 666 0
DWIDTH 35 0
BBX 31 39 2 0
BITMAP
00F01E00
00F01E00
00F01E00
00F01E00
003FF800
003FF800
00060000
00020000
00000000
00000000
003FF800
007FFC00
03FFFF80
0FC007C0
0FC007E0
3F0001F8
3F0001F8
3C000078
3C000078
FC000078
FC000078
F000007E
F000007E
F000001E
F000001E
F0000078
F0000078
FC000078
FC000078
3C000078
3C000078
3F0001E0
3F0001E0
0FC007E0
0FC007E0
03FFFF80
03FFFF80
003FF800
003FF800
ENDCHAR
STARTCHAR $0150
ENCODING 336
SWIDTH 851 0
DWIDTH 45 0
BBX 40 48 2 1
BITMAP
00000601E0
00000601E0
00007E0780
00007E0780
0001F87E00
0001F87E00
0007807800
0003807800
0000000000
0000000000
0001FFE000
0001FFE000
003FFFFE00
00FC003FC0
00F8001FE0
03F00003F0
03F00001F8
0F000000FC
0F0000007E
3F0000003E
3F0000001E
3C0000001F
3C0000001F
3C00000007
3C00000007
F000000007
F000000007
F000000007
F000000007
F000000007
F000000007
F000000007
F000000007
3C00000007
3C0000000F
3C0000001F
3C0000001F
3F0000001E
3F0000003E
0FC000007E
07E00001F8
03F00001F8
01F8001FE0
00F8001FE0
007FFFFE00
003FFFFE00
0007FFE000
0007FFE000
ENDCHAR
STARTCHAR $0151
ENCODING 337
SWIDTH 666 0
DWIDTH 35 0
BBX 31 39 2 0
BITMAP
0001E078
0001E078
000F81F8
001F81F8
003E1F80
003E1F80
00301E00
00201E00
00000000
00000000
003FF800
007FFC00
03FFFF80
0FC007C0
0FC007E0
3F0001F8
3F0001F8
3C000078
3C000078
FC000078
FC000078
F000007E
F000007E
F000001E
F000001E
F0000078
F0000078
FC000078
FC000078
3C000078
3C000078
3F0001E0
3F0001E0
0FC007E0
0FC007E0
03FFFF80
03FFFF80
003FF800
003FF800
ENDCHAR
STARTCHAR $0152
ENCODING 338
SWIDTH 1185 0
DWIDTH 62 0
BBX 58 39 2 0
BITMAP
0007FFE007FFFFC0
0007FFE007FFFFC0
003FFFFE07FFFFC0
003FFFFE07FFFFC0
00F8001FE7000000
00F8001FEF000000
03C00001FF000000
03800001FF000000
0F0000007F000000
0F0000007F000000
3F0000001F000000
3E0000001F000000
3C0000001F000000
3C0000000F000000
3C00000007000000
F000000007000000
F000000007000000
F000000007FFFF00
F000000007FFFF00
F000000007FFFF00
F000000007FFFF00
F000000007800000
F000000007000000
3C00000007000000
3C00000007000000
3C0000001F000000
3C0000001F000000
3F0000001F000000
3F0000001F000000
0F0000007F000000
0F0000007F000000
03F00001FF000000
03F00001FF000000
00F8001FE7000000
00FC001FC7800000
003FFFFE07FFFFC0
003FFFFC07FFFFC0
0007FFE007FFFFC0
0003FFC007FFFF80
ENDCHAR
STARTCHAR $0153
ENCODING 339
SWIDTH 1148 0
DWIDTH 60 0
BBX 56 29 2 0
BITMAP
003FF8001FFC00
003FF8001FFC00
03FFFE01FFFFC0
03FFFE01FFFFC0
0FC00787E003F0
0F800787E003F0
3F0001E78000FC
3E0001E78000FC
3C00007E00003C
3800007E00003C
F000007E00000C
F000007E00000C
F000007FFFFFFF
F000007FFFFFFF
F000007FFFFFFF
F0000078000000
F0000078000000
FC00007E000000
FC00007E000000
3C00007E00003C
3C00007E00003C
3F0001E78000FC
3F0001E78000FC
0FC00787F803F0
0FC00787F803F0
03FFFE007FFFC0
03FFFE007FFFC0
003FF8001FFC00
003FF8001FFC00
ENDCHAR
STARTCHAR $0154
ENCODING 340
SWIDTH 592 0
DWIDTH 31 0
BBX 27 48 4 3
BITMAP
0007E000
0007E000
000F8000
001F8000
00FE0000
00FE0000
00300000
00200000
00000000
00000000
FFFF8000
FFFFC000
FFFFF800
F0007E00
F0007E00
F0000780
F0000780
F0000780
F0000780
F00007E0
F00007E0
F00001E0
F00001E0
F00007E0
F00007E0
F0000780
F0000780
F0000780
F0000780
F0007E00
F0007E00
F0FFF800
F0FFF800
F03E0000
F03E0000
F00E0000
F00F0000
F0078000
F007C000
F007E000
F001F800
F001F800
F0007800
F0007800
F0001E00
F0001E00
F0001F80
F0001F80
ENDCHAR
STARTCHAR $0155
ENCODING 341
SWIDTH 296 0
DWIDTH 16 0
BBX 12 39 4 2
BITMAP
03F0
03F0
3FC0
3FC0
FC00
FC00
C000
C000
0000
0000
F0F0
F1F0
FFF0
FF00
FF00
FC00
FC00
F000
F000
F000
F000
F000
F000
F000
F000
F000
F000
F000
F000
F000
F000
F000
F000
F000
F000
F000
F000
F000
E000
ENDCHAR
STARTCHAR $0156
ENCODING 342
SWIDTH 592 0
DWIDTH 31 0
BBX 27 50 4 -11
BITMAP
FFFF8000
FFFF8000
FFFFF800
FFFFF800
F0007E00
F0007E00
F0000780
F0000780
F0000780
F0000780
F00007E0
F00003E0
F00001E0
F00003E0
F00007E0
F0000780
F0000780
F0000780
F0000780
F0003E00
F0007E00
F0FFF800
F0FFF800
F03E0000
F03E0000
F00E0000
F00E0000
F0078000
F0078000
F007E000
F003E000
F001F800
F000F800
F0007800
F0003800
F0001E00
F0001E00
F0001F80
E0000F80
00000000
00380000
00380000
00380000
00380000
00380000
00380000
00380000
00380000
00F00000
00F00000
ENDCHAR
STARTCHAR $0157
ENCODING 343
SWIDTH 296 0
DWIDTH 16 0
BBX 13 40 2 -11
BITMAP
3C38
3C38
3FF8
3FF8
3FC0
3F80
3F00
3E00
3C00
3C00
3C00
3C00
3C00
3C00
3C00
3C00
3C00
3C00
3C00
3C00
3C00
3C00
3C00
3C00
3C00
3C00
3C00
3C00
3C00
0000
0000
3C00
3C00
3C00
3C00
F000
F000
F000
F000
F000
ENDCHAR
STARTCHAR $0158
ENCODING 344
SWIDTH 592 0
DWIDTH 31 0
BBX 27 48 4 1
BITMAP
0F01F800
0F01F800
03C7E000
03C7E000
00FE0000
00FE0000
00380000
00380000
00000000
00000000
FFFF8000
FFFFC000
FFFFF800
F0007E00
F0007E00
F0000780
F0000780
F0000780
F0000780
F00007E0
F00007E0
F00001E0
F00001E0
F00007E0
F00007E0
F0000780
F0000780
F0000780
F0000780
F0007E00
F0007E00
F0FFF800
F0FFF800
F03E0000
F03E0000
F00E0000
F00F0000
F0078000
F007C000
F007E000
F001F800
F001F800
F0007800
F0007800
F0001E00
F0001E00
F0001F80
F0001F80
ENDCHAR
STARTCHAR $0159
ENCODING 345
SWIDTH 296 0
DWIDTH 16 0
BBX 17 39 -2 0
BITMAP
FC0780
FC0780
3F3E00
3F3E00
0FF800
0FF800
00F000
00E000
000000
000000
03C780
03C780
03FF80
03FC00
03F800
03F000
03F000
03C000
03C000
03C000
03C000
03C000
03C000
03C000
03C000
03C000
03C000
03C000
03C000
03C000
03C000
03C000
03C000
03C000
03C000
03C000
03C000
03C000
038000
ENDCHAR
STARTCHAR $015A
ENCODING 346
SWIDTH 481 0
DWIDTH 26 0
BBX 23 48 2 1
BITMAP
000180
000180
000F80
001F80
00FE00
00FE00
00F000
00E000
000000
000000
03FE00
07FF00
0FFFE0
3F01F8
3F01F8
3C0078
3C0078
F00078
F00078
F00000
F00000
FC0000
FC0000
3F0000
3F0000
0FF000
0FF000
03FF80
03FF80
000FE0
000FE0
0001F8
0000F8
00007E
00003E
00001E
00001E
F0001E
F0001E
F0001E
F8003C
FC0078
3E00F8
3F01F8
0FFFE0
0FFFE0
03FF00
03FE00
ENDCHAR
STARTCHAR $015B
ENCODING 347
SWIDTH 370 0
DWIDTH 20 0
BBX 19 39 0 2
BITMAP
000780
000780
003E00
003E00
03F800
03F800
00C000
008000
000000
000000
03F800
07FC00
0FFF80
3F0780
3F0780
3C0780
3C0780
3C0000
3C0000
3F0000
3F0000
0FE000
0FF000
00FE00
00FE00
000F80
000F80
0007E0
0003E0
F001E0
F001E0
3C01E0
3C01E0
3C0780
3C0780
0FFF80
0FFF80
03F800
03F800
ENDCHAR
STARTCHAR $015C
ENCODING 348
SWIDTH 481 0
DWIDTH 26 0
BBX 23 46 2 1
BITMAP
00FE00
00FE00
03CF80
03CF80
0F01E0
0F00E0
000000
000000
03FE00
07FF00
0FFFE0
1FFFF0
3F01F8
3C0078
3C0078
F00078
F00078
F00000
F00000
FC0000
FC0000
3F0000
3F0000
0FE000
0FF000
03FF80
03FF80
000FE0
000FE0
0001F8
0000F8
00007E
00003E
00001E
00001E
F0001E
F0001E
F0001E
F0001E
FC0078
3E00F8
3F01F8
0FFFF0
0FFFE0
03FF00
03FE00
ENDCHAR
STARTCHAR $015D
ENCODING 349
SWIDTH 370 0
DWIDTH 20 0
BBX 19 39 0 0
BITMAP
00F000
00F000
03F800
03FC00
0F0F80
0F0F80
3C07E0
3C03E0
000000
000000
03F800
07FC00
0FFF80
3F0780
3F0780
3C0780
3C0780
3C0000
3C0000
3F0000
3F0000
0FE000
0FF000
00FE00
00FE00
000F80
000F80
0007E0
0003E0
F001E0
F001E0
3C01E0
3C01E0
3C0780
3C0780
0FFF80
0FFF80
03F800
03F800
ENDCHAR
STARTCHAR $015E
ENCODING 350
SWIDTH 481 0
DWIDTH 26 0
BBX 23 50 2 -12
BITMAP
03FE00
03FE00
0FFFE0
0FFFE0
3F01F8
3F00F8
3C0078
3C0078
F00078
F00038
F00000
F00000
FC0000
7E0000
3F0000
0FE000
0FF000
03FF80
03FF80
001FE0
000FE0
0001F8
0001F8
00007E
00007E
00001E
00001E
F0001E
F0001E
F0001E
F0001E
F00078
F00078
3C01F8
3C01F8
3FFFE0
3FFFE0
03FF80
03FF80
003000
00FE00
00FE00
00FF80
00FF80
000180
000180
008380
00C780
00FE00
00FE00
ENDCHAR
STARTCHAR $015F
ENCODING 351
SWIDTH 370 0
DWIDTH 20 0
BBX 17 40 2 -12
BITMAP
0FF000
0FF000
3FFE00
3FFE00
FC0E00
FC0E00
F00E00
F00E00
F00000
F00000
FC0000
FC0000
3FC000
1FF800
0FF800
007E00
003E00
001F80
000F80
000780
000780
F00780
F00780
F00E00
F00E00
FFFE00
FFFE00
3FF800
3FF800
00C000
00C000
03F800
03F800
03F800
03FC00
000E00
000E00
0F0E00
0F1E00
03F800
ENDCHAR
STARTCHAR $0160
ENCODING 352
SWIDTH 481 0
DWIDTH 26 0
BBX 23 46 2 1
BITMAP
0F07E0
0F07E0
03FE00
03FE00
00F800
00F800
000000
000000
03FE00
07FF00
0FFFE0
1FFFF0
3F01F8
3C0078
3C0078
F00078
F00078
F00000
F00000
FC0000
FC0000
3F0000
3F0000
0FE000
0FF000
03FF80
03FF80
000FE0
000FE0
0001F8
0000F8
00007E
00003E
00001E
00001E
F0001E
F0001E
F0001E
F0001E
FC0078
3E00F8
3F01F8
0FFFF0
0FFFE0
03FF00
03FE00
ENDCHAR
STARTCHAR $0161
ENCODING 353
SWIDTH 370 0
DWIDTH 20 0
BBX 19 39 0 0
BITMAP
3C07E0
3C07E0
0F0F80
0F1F80
03F800
03F800
00F000
00E000
000000
000000
03F800
07FC00
0FFF80
3F0780
3F0780
3C0780
3C0780
3C0000
3C0000
3F0000
3F0000
0FE000
0FF000
00FE00
00FE00
000F80
000F80
0007E0
0003E0
F001E0
F001E0
3C01E0
3C01E0
3C0780
3C0780
0FFF80
0FFF80
03F800
03F800
ENDCHAR
STARTCHAR $0162
ENCODING 354
SWIDTH 444 0
DWIDTH 24 0
BBX 21 50 0 -12
BITMAP
FFFFF8
FFFFF8
FFFFF8
FFFFF8
003800
003800
003800
003800
003800
003800
003800
003800
003800
003800
003800
003800
003800
003800
003800
003800
003800
003800
003800
003800
003800
003800
003800
003800
003800
003800
003800
003800
003800
003800
003800
003800
003800
003800
003800
003000
00FE00
00FE00
00FE00
00FE00
000780
000780
038780
03C780
00FE00
00FE00
ENDCHAR
STARTCHAR $0163
ENCODING 355
SWIDTH 333 0
DWIDTH 18 0
BBX 17 50 0 -12
BITMAP
03F000
03F000
03F000
03F000
03F000
03F000
03F000
03F000
03F000
07F000
FFFF80
FFFF80
FFFF80
07F000
03F000
03F000
03F000
03F000
03F000
03F000
03F000
03F000
03F000
03F000
03F000
03F000
03F000
03F000
03F000
03F000
03F000
03F000
03F000
03F000
03F000
03F000
03F000
03F000
03E000
03C000
03E000
03F000
0FF800
0FF800
001E00
000E00
0F0C00
0F0800
03F800
03F800
ENDCHAR
STARTCHAR $0164
ENCODING 356
SWIDTH 444 0
DWIDTH 24 0
BBX 21 48 0 1
BITMAP
3F01E0
3F01E0
0FC780
0FC780
00FE00
00FE00
003800
003800
000000
000000
FFFFF8
FFFFF8
FFFFF8
007C00
003800
003800
003800
003800
003800
003800
003800
003800
003800
003800
003800
003800
003800
003800
003800
003800
003800
003800
003800
003800
003800
003800
003800
003800
003800
003800
003800
003800
003800
003800
003800
003800
003800
003800
ENDCHAR
STARTCHAR $0165
ENCODING 357
SWIDTH 333 0
DWIDTH 18 0
BBX 17 39 0 0
BITMAP
03F780
03F780
03F780
03F780
03F780
03F780
03F780
03F380
03F000
07F000
FFFF80
FFFF80
FFFF80
07F000
03F000
03F000
03F000
03F000
03F000
03F000
03F000
03F000
03F000
03F000
03F000
03F000
03F000
03F000
03F000
03F000
03F000
03F000
03F000
03F000
03F000
03F000
03F000
03F000
03E000
ENDCHAR
STARTCHAR $0168
ENCODING 360
SWIDTH 666 0
DWIDTH 35 0
BBX 27 48 4 1
BITMAP
00300000
00300000
03F86000
03FC6000
030FF800
030FF800
00018000
00008000
00000000
00000000
F00001E0
F00001E0
F00001E0
F00001E0
F00001E0
F00001E0
F00001E0
F00001E0
F00001E0
F00001E0
F00001E0
F00001E0
F00001E0
F00001E0
F00001E0
F00001E0
F00001E0
F00001E0
F00001E0
F00001E0
F00001E0
F00001E0
F00001E0
F00001E0
F00001E0
F00001E0
F00001E0
F0000780
F0000780
FC000780
3C000780
3C000780
3E000E00
3F001E00
0FFFF800
0FFFF800
00FFE000
00FFE000
ENDCHAR
STARTCHAR $0169
ENCODING 361
SWIDTH 592 0
DWIDTH 31 0
BBX 25 39 4 0
BITMAP
00C00000
00C00000
0FFFE000
0FFFE000
030F8000
030F8000
00000000
00000000
00000000
00000000
F0000780
F0000780
F0000780
F0000780
F0000780
F0000780
F0000780
F0000780
F0000780
F0000780
F0000780
F0000780
F0000780
F0000780
F0000780
F0000780
F0000780
F0000780
F0000780
F0001F80
F0001F80
FC001F80
FC001F80
3F007F80
3F007F80
0FFFE780
0FFFE780
03FE0780
03FE0380
ENDCHAR
STARTCHAR $016A
ENCODING 362
SWIDTH 666 0
DWIDTH 35 0
BBX 27 46 4 1
BITMAP
0FFFF800
0FFFF800
0FFFF800
0FFFF800
00000000
00000000
00000000
00000000
F00001E0
F00001E0
F00001E0
F00001E0
F00001E0
F00001E0
F00001E0
F00001E0
F00001E0
F00001E0
F00001E0
F00001E0
F00001E0
F00001E0
F00001E0
F00001E0
F00001E0
F00001E0
F00001E0
F00001E0
F00001E0
F00001E0
F00001E0
F00001E0
F00001E0
F00001E0
F00001E0
F0000780
F0000780
FC000780
FC000780
3C000780
3E000F00
3F001E00
0FFFF800
0FFFF800
01FFE000
00FFE000
ENDCHAR
STARTCHAR $016B
ENCODING 363
SWIDTH 592 0
DWIDTH 31 0
BBX 25 37 4 0
BITMAP
0FFFF800
0FFFF800
0FFFF800
0FFFF800
00000000
00000000
00000000
00000000
F0000780
F0000780
F0000780
F0000780
F0000780
F0000780
F0000780
F0000780
F0000780
F0000780
F0000780
F0000780
F0000780
F0000780
F0000780
F0000780
F0000780
F0000780
F0000780
F0001F80
F0001F80
FC001F80
FC001F80
3F007F80
3F007F80
0FFFE780
0FFFE780
03FE0780
03FE0380
ENDCHAR
STARTCHAR $016C
ENCODING 364
SWIDTH 666 0
DWIDTH 35 0
BBX 27 48 4 1
BITMAP
03C07800
03C07800
03C07800
03C07800
00FFE000
00FFE000
00080000
00080000
00000000
00000000
F00001E0
F00001E0
F00001E0
F00001E0
F00001E0
F00001E0
F00001E0
F00001E0
F00001E0
F00001E0
F00001E0
F00001E0
F00001E0
F00001E0
F00001E0
F00001E0
F00001E0
F00001E0
F00001E0
F00001E0
F00001E0
F00001E0
F00001E0
F00001E0
F00001E0
F00001E0
F00001E0
F0000780
F0000780
FC000780
3C000780
3C000780
3E000E00
3F001E00
0FFFF800
0FFFF800
00FFE000
00FFE000
ENDCHAR
STARTCHAR $016D
ENCODING 365
SWIDTH 592 0
DWIDTH 31 0
BBX 25 39 4 0
BITMAP
0F006000
0F006000
0F01E000
0F01E000
03FF8000
03FF8000
00380000
00380000
00000000
00000000
F0000780
F0000780
F0000780
F0000780
F0000780
F0000780
F0000780
F0000780
F0000780
F0000780
F0000780
F0000780
F0000780
F0000780
F0000780
F0000780
F0000780
F0000780
F0000780
F0001F80
F0001F80
FC001F80
FC001F80
3F007F80
3F007F80
0FFFE780
0FFFE780
03FE0780
03FE0380
ENDCHAR
STARTCHAR $016E
ENCODING 366
SWIDTH 666 0
DWIDTH 35 0
BBX 27 52 4 0
BITMAP
003E0000
003E0000
00318000
00218000
00C1E000
00C1E000
00C1E000
00C1E000
00F18000
00F18000
003E0000
003E0000
00000000
E00000C0
F00001E0
F00001E0
F00001E0
F00001E0
F00001E0
F00001E0
F00001E0
F00001E0
F00001E0
F00001E0
F00001E0
F00001E0
F00001E0
F00001E0
F00001E0
F00001E0
F00001E0
F00001E0
F00001E0
F00001E0
F00001E0
F00001E0
F00001E0
F00001E0
F00001E0
F00001E0
F0000380
F0000780
F8000780
FC000780
3C000780
3C000780
3F001E00
3F001E00
0FFFF800
0FFFF800
00FFE000
00FFE000
ENDCHAR
STARTCHAR $016F
ENCODING 367
SWIDTH 592 0
DWIDTH 31 0
BBX 25 42 4 1
BITMAP
003E0000
003E0000
00C78000
00C38000
03C18000
03C18000
00C78000
00C78000
00FE0000
00FE0000
00000000
00000000
00000000
E0000380
F0000780
F0000780
F0000780
F0000780
F0000780
F0000780
F0000780
F0000780
F0000780
F0000780
F0000780
F0000780
F0000780
F0000780
F0000780
F0000780
F0000780
F0000780
F0000780
F0001F80
F0001F80
FC001F80
FC001F80
3F007F80
3F007F80
0FFFE780
07FF0780
03FE0780
ENDCHAR
STARTCHAR $0170
ENCODING 368
SWIDTH 666 0
DWIDTH 35 0
BBX 27 48 4 3
BITMAP
000F81E0
000F81E0
003E1F80
003E1F80
00F07E00
00E07E00
00C06000
00802000
00000000
00000000
F00001E0
F00001E0
F00001E0
F00001E0
F00001E0
F00001E0
F00001E0
F00001E0
F00001E0
F00001E0
F00001E0
F00001E0
F00001E0
F00001E0
F00001E0
F00001E0
F00001E0
F00001E0
F00001E0
F00001E0
F00001E0
F00001E0
F00001E0
F00001E0
F00001E0
F00001E0
F00001E0
F0000780
F0000780
FC000780
3C000780
3C000780
3E000E00
3F001E00
0FFFF800
0FFFF800
00FFE000
00FFE000
ENDCHAR
STARTCHAR $0171
ENCODING 369
SWIDTH 592 0
DWIDTH 31 0
BBX 25 40 4 1
BITMAP
00000180
00000180
000E0780
001E0780
00F81E00
00F81E00
03F1F800
03E0F800
03006000
02002000
00000000
00000000
F0000780
F0000780
F0000780
F0000780
F0000780
F0000780
F0000780
F0000780
F0000780
F0000780
F0000780
F0000780
F0000780
F0000780
F0000780
F0000780
F0000780
F0000780
F0000780
F0001F80
F0001F80
FC001F80
FC001F80
3F007F80
3F007F80
0FFFE780
0FFFE780
03FE0780
ENDCHAR
STARTCHAR $0172
ENCODING 370
SWIDTH 666 0
DWIDTH 35 0
BBX 27 50 4 -11
BITMAP
F00001E0
F00001E0
F00001E0
F00001E0
F00001E0
F00001E0
F00001E0
F00001E0
F00001E0
F00001E0
F00001E0
F00001E0
F00001E0
F00001E0
F00001E0
F00001E0
F00001E0
F00001E0
F00001E0
F00001E0
F00001E0
F00001E0
F00001E0
F00001E0
F00001E0
F00001E0
F00001E0
F0000780
F0000780
FC000780
FC000780
3C000780
3C000780
3F001E00
3F001E00
0FFFF800
0FFFF800
00FFE000
00FFE000
00060000
000E0000
000E0000
003C0000
00380000
003E0000
003E0000
001FE000
000FE000
0007E000
0007E000
ENDCHAR
STARTCHAR $0173
ENCODING 371
SWIDTH 592 0
DWIDTH 31 0
BBX 25 40 4 -11
BITMAP
F0000780
F0000780
F0000780
F0000780
F0000780
F0000780
F0000780
F0000780
F0000780
F0000780
F0000780
F0000780
F0000780
F0000780
F0000780
F0000780
F0000780
F0000780
F0000780
F0001F80
F0001F80
FC001F80
FC001F80
3F007F80
3F007F80
0FFFE780
0FFFE780
03FE0780
03FE0780
00001E00
00001E00
00007800
00007800
0001E000
0000F000
00007800
00007C00
00007F80
00003F80
00001F80
ENDCHAR
STARTCHAR $0174
ENCODING 372
SWIDTH 962 0
DWIDTH 51 0
BBX 48 48 0 1
BITMAP
000001E00000
000001E00000
000007F80000
000007F80000
00001E1E0000
00001E1E0000
0001F807E000
0000F807C000
000000000000
000000000000
F00001E0000F
F00001E0000F
3C0001E0000F
3C0003F0000F
3C0007F8000F
3C0007F8000F
3C0007F8000F
0E0007F8001C
0F0007F8003C
0F001E78003C
0F001E78003C
0F001E1E003C
0F001E1E003C
0F001E1E0070
0F001E1E00F0
03C01E1E00F0
03C01E1E00F0
03C0781F80F0
03C0781F80F0
03C0780780F0
03C0780780F0
00F0780781C0
00F0780781C0
00F0780781C0
00F0780781C0
00F1E001E1C0
00F1E001E3C0
00F1E001E700
00F1E001E700
0039E001E700
003FC001E700
003F8001E700
003F8000FF00
003F80007F00
001F80007E00
000F80007E00
000F80007E00
000F80007E00
ENDCHAR
STARTCHAR $0175
ENCODING 373
SWIDTH 814 0
DWIDTH 43 0
BBX 42 39 0 0
BITMAP
00001F800000
00001F800000
00007FE00000
00007FE00000
0007E0780000
0003E0780000
000000000000
000000000000
000000000000
000000000000
F000000001C0
F000000001C0
3C00000001C0
3C000E000780
3C001E000700
3E001F800700
3F001F800700
0F003F800700
0F007F800700
0F007F801E00
0F007F801E00
03C079E01E00
03C079E01E00
03C061E07800
03C061E07800
03C1E1E07800
03C1E1E07800
00F1E0787800
00F1E0787800
00F18079E000
00F18079E000
00FF8079E000
00FF8079C000
003F80198000
003F80198000
003E001F8000
003E001F8000
000E001F8000
000E001F0000
ENDCHAR
STARTCHAR $0176
ENCODING 374
SWIDTH 592 0
DWIDTH 31 0
BBX 31 48 0 1
BITMAP
00078000
00078000
000FE000
001FE000
00387800
00787800
03F01F80
03E01F80
00000000
00000000
FC00007E
FC00007C
3C000078
3E0000F8
3F0001F8
0F0001E0
0F0001E0
0F8007E0
0FC007E0
03C00780
03C00780
03E01F80
03F01F80
00F01E00
00F01E00
00F87800
00F87800
00387800
003C7800
003FE000
003FE000
000FE000
000FE000
00078000
00078000
00078000
00078000
00078000
00078000
00078000
00078000
00078000
00078000
00078000
00078000
00078000
00078000
00078000
ENDCHAR
STARTCHAR $0177
ENCODING 375
SWIDTH 518 0
DWIDTH 27 0
BBX 27 48 0 -9
BITMAP
000F8000
000F8000
003FE000
003FE000
03F07800
03E07800
00000000
00000000
00000000
00000000
FC0001E0
FC0001E0
3C0007E0
3C0007C0
3C000780
0E000780
0F000780
0F000E00
0F001E00
0F801E00
0FC01E00
03C07800
03C07800
03C07800
03C07800
00F1F800
00F1F800
00F1E000
00F1E000
00F9E000
00FDE000
003F8000
003F8000
003F8000
003F8000
000E0000
000E0000
000E0000
001E0000
003E0000
003C0000
00380000
00380000
00380000
00F00000
00F00000
00F00000
00F00000
ENDCHAR
STARTCHAR $0178
ENCODING 376
SWIDTH 592 0
DWIDTH 31 0
BBX 31 48 0 1
BITMAP
00387800
00387800
00387800
00387800
00387800
00387800
00000000
00000000
00000000
00000000
FC00007E
FC00007C
3C000078
3E0000F8
3F0001F8
0F0001E0
0F0001E0
0F8007E0
0FC007E0
03C00780
03C00780
03E01F80
03F01F80
00F01E00
00F01E00
00F87800
00F87800
00387800
003C7800
003FE000
003FE000
000FE000
000FE000
00078000
00078000
00078000
00078000
00078000
00078000
00078000
00078000
00078000
00078000
00078000
00078000
00078000
00078000
00078000
ENDCHAR
STARTCHAR $0179
ENCODING 377
SWIDTH 481 0
DWIDTH 26 0
BBX 25 48 0 3
BITMAP
0001E000
0001E000
000FE000
001FE000
003E0000
003E0000
00300000
00200000
00000000
00000000
3FFFFE00
3FFFFE00
3FFFFE00
00001E00
00001E00
00003C00
00007800
00007800
00007800
0000E000
0001E000
0003E000
0007E000
00078000
00078000
000F8000
000F8000
000E0000
001E0000
00380000
00380000
00F80000
00F80000
00F00000
01F00000
03F00000
03E00000
03C00000
07800000
0F000000
3F000000
3F000000
3C000000
3C000000
FFFFFF80
FFFFFF80
FFFFFF80
FFFFFF80
ENDCHAR
STARTCHAR $017A
ENCODING 378
SWIDTH 407 0
DWIDTH 22 0
BBX 21 40 0 1
BITMAP
000180
000180
000FE0
001FE0
003E00
007E00
00F800
00F800
00C000
008000
000000
000000
3FFFF8
3FFFF8
3FFFF8
0001F0
0001E0
0003C0
000780
000F80
000F80
000F00
000E00
003C00
003800
00F800
00F800
00F000
00E000
03C000
03C000
0FC000
0F8000
3F0000
3E0000
3C0000
3C0000
FFFFF8
FFFFF8
FFFFF8
ENDCHAR
STARTCHAR $017B
ENCODING 379
SWIDTH 481 0
DWIDTH 26 0
BBX 25 48 0 1
BITMAP
000E0000
000E0000
000E0000
000E0000
000E0000
000E0000
00000000
00000000
00000000
00000000
3FFFFE00
3FFFFE00
3FFFFE00
00001E00
00001E00
00003C00
00007800
00007800
00007800
0000E000
0001E000
0003E000
0007E000
00078000
00078000
000F8000
000F8000
000E0000
001E0000
00380000
00380000
00F80000
00F80000
00F00000
01F00000
03F00000
03E00000
03C00000
07800000
0F000000
3F000000
3F000000
3C000000
3C000000
FFFFFF80
FFFFFF80
FFFFFF80
FFFFFF80
ENDCHAR
STARTCHAR $017C
ENCODING 380
SWIDTH 407 0
DWIDTH 22 0
BBX 21 39 0 0
BITMAP
003800
003800
003800
003800
003800
003800
000000
000000
000000
000000
3FFFF8
3FFFF8
3FFFF8
0001F0
0001E0
0003C0
000780
000F80
000F80
000F00
000E00
003C00
003800
00F800
00F800
00F000
00F000
03C000
03C000
0FC000
0FC000
3F0000
3F0000
3C0000
3C0000
FFFFF8
FFFFF8
FFFFF8
FFFFF8
ENDCHAR
STARTCHAR $017D
ENCODING 381
SWIDTH 481 0
DWIDTH 26 0
BBX 25 48 0 1
BITMAP
0FC07800
0FC07800
03F7E000
03F7E000
00FF8000
00FF8000
000E0000
000E0000
00000000
00000000
3FFFFE00
3FFFFE00
3FFFFE00
00001E00
00001E00
00003C00
00007800
00007800
00007800
0000E000
0001E000
0003E000
0007E000
00078000
00078000
000F8000
000F8000
000E0000
001E0000
00380000
00380000
00F80000
00F80000
00F00000
01F00000
03F00000
03E00000
03C00000
07800000
0F000000
3F000000
3F000000
3C000000
3C000000
FFFFFF80
FFFFFF80
FFFFFF80
FFFFFF80
ENDCHAR
STARTCHAR $017E
ENCODING 382
SWIDTH 407 0
DWIDTH 22 0
BBX 21 39 0 0
BITMAP
3F07E0
3F07E0
03CF80
03DF80
00FE00
00FE00
000000
000000
000000
000000
3FFFF8
3FFFF8
3FFFF8
0001F0
0001E0
0003C0
000780
000F80
000F80
000F00
000E00
003C00
003800
00F800
00F800
00F000
00F000
03C000
03C000
0FC000
0FC000
3F0000
3F0000
3C0000
3C0000
FFFFF8
FFFFF8
FFFFF8
FFFFF8
ENDCHAR
STARTCHAR $017F
ENCODING 383
SWIDTH 296 0
DWIDTH 16 0
BBX 15 39 0 0
BITMAP
000E
000E
00FE
00FE
03F0
03E0
03C0
03C0
03C0
07C0
FFC0
FFC0
FFC0
07C0
03C0
03C0
03C0
03C0
03C0
03C0
03C0
03C0
03C0
03C0
03C0
03C0
03C0
03C0
03C0
03C0
03C0
03C0
03C0
03C0
03C0
03C0
03C0
03C0
0380
ENDCHAR
STARTCHAR $018E
ENCODING 398
SWIDTH 518 0
DWIDTH 27 0
BBX 21 39 4 0
BITMAP
FFFFF8
FFFFF8
FFFFF8
FFFFF8
000078
000078
000078
000078
000078
000078
000078
000078
000078
000078
000078
000078
000078
FFFFF8
FFFFF8
FFFFF8
FFFFF8
000078
000078
000078
000078
000078
000078
000078
000078
000078
000078
000078
000078
000078
000078
FFFFF8
FFFFF8
FFFFF8
FFFFF8
ENDCHAR
STARTCHAR $0192
ENCODING 402
SWIDTH 555 0
DWIDTH 29 0
BBX 27 50 2 -7
BITMAP
000007E0
000007E0
00001FE0
00001FE0
00007800
00007800
0001E000
0001E000
0001E000
0001E000
0001E000
0001F000
003FFF80
00FFFF00
00FFFE00
0007C000
00078000
00078000
00078000
00078000
00078000
00078000
00078000
00060000
00060000
000E0000
000E0000
000E0000
000E0000
000E0000
000E0000
000E0000
000E0000
00080000
00180000
00380000
00380000
00380000
00380000
00380000
00380000
00380000
00F00000
00F00000
00F00000
00F00000
FFC00000
FFC00000
FF000000
FF000000
ENDCHAR
STARTCHAR $01A0
ENCODING 416
SWIDTH 851 0
DWIDTH 45 0
BBX 40 39 2 0
BITMAP
0001FFE007
0001FFE007
003FFFFE07
003FFFFE07
00F8001FE7
00F8001FEF
03F00001FE
03E00001FE
0F0000007E
0F0000007E
3F0000001E
3E0000001E
3C0000001F
3C0000000F
3C00000007
F000000007
F000000007
F000000007
F000000007
F000000007
F000000007
F000000007
F000000007
3C00000007
3C00000007
3C0000001F
3C0000001F
3F0000001E
3F0000001C
0FC0000078
0FC0000078
03F00001F8
03F00001F0
00F8001FE0
00FC001FC0
003FFFFE00
003FFFFC00
0007FFE000
0003FFC000
ENDCHAR
STARTCHAR $01A1
ENCODING 417
SWIDTH 666 0
DWIDTH 35 0
BBX 33 29 2 0
BITMAP
003FF80780
003FF80780
03FFFF8600
03FFFF8600
0FC007FE00
0F8007FE00
3F0001F800
3E0001F800
3C00007800
3C00007800
FC00007800
F800007800
F000007E00
F000003E00
F000001E00
F000007800
F000007800
FC00007800
FC00007800
3C00007800
3C00007800
3F0001E000
3F0001E000
0FC007E000
0FC007E000
03FFFF8000
03FFFF8000
003FF80000
003FF80000
ENDCHAR
STARTCHAR $01AF
ENCODING 431
SWIDTH 703 0
DWIDTH 37 0
BBX 33 39 4 0
BITMAP
F00001E780
F00001E780
F00001E600
F00001E600
F00001FE00
F00001FE00
F00001F800
F00001F800
F00001E000
F00001E000
F00001E000
F00001E000
F00001E000
F00001E000
F00001E000
F00001E000
F00001E000
F00001E000
F00001E000
F00001E000
F00001E000
F00001E000
F00001E000
F00001E000
F00001E000
F00001E000
F00001E000
F000078000
F000078000
FC00078000
FC00078000
3C00078000
3C00078000
3F007E0000
3F007E0000
0FFFF80000
0FFFF80000
00FF800000
00FF800000
ENDCHAR
STARTCHAR $01B0
ENCODING 432
SWIDTH 666 0
DWIDTH 35 0
BBX 31 29 4 0
BITMAP
F000079E
F000079E
F000079E
F000079E
F00007F8
F00007F8
F00007F8
F00007F8
F00007E0
F00007E0
F0000780
F0000780
F0000780
F0000780
F0000780
F0000780
F0000780
F0000780
F0000780
F0001F80
F0001F80
FC001F80
FC001F80
3F007F80
3F007F80
0FFFE780
0FFFE780
03FE0780
03FE0780
ENDCHAR
STARTCHAR $01CD
ENCODING 461
SWIDTH 740 0
DWIDTH 39 0
BBX 35 48 2 1
BITMAP
00F8078000
00FC078000
000E1E0000
000E1E0000
0007F80000
0003F80000
0001E00000
0000E00000
0000000000
0000000000
0001E00000
0001F00000
0007F80000
0007F80000
0007F80000
000F1E0000
000E1E0000
000E1E0000
000E1E0000
003E1E0000
003E1E0000
003C078000
0038078000
0038078000
0038078000
00F001E000
00F001E000
00F001E000
00E001E000
03C001F800
03C001F800
03FFFFF800
03FFFFF800
0FFFFFF800
0FFFFFF800
0F00001E00
0F00001E00
0F00001E00
1E00001E00
3C00000780
3C00000780
3C00000780
F0000007C0
F0000007E0
F0000001E0
F0000001E0
F0000001E0
F0000001E0
ENDCHAR
STARTCHAR $01CE
ENCODING 462
SWIDTH 666 0
DWIDTH 35 0
BBX 31 39 2 0
BITMAP
03F01F80
03F01F80
00F87800
00FC7800
000FE000
000FE000
00078000
00038000
00000000
00000000
003FF81E
007FFC1E
03FFFF9E
0FC007FE
0FC007FE
3F0001FE
3F0001FE
3C00007E
3C00007E
FC00007E
FC00007E
F000001E
F000001E
F000001E
F000001E
F000001E
F000001E
FC00007E
FC00007E
3C00007E
3C00007E
3F0001FE
3F0001FE
0FC0079E
0FC0079E
03FFFE1E
03FFFE1E
003FF81E
003FF81C
ENDCHAR
STARTCHAR $01CF
ENCODING 463
SWIDTH 222 0
DWIDTH 12 0
BBX 17 48 -2 1
BITMAP
F00F80
F00F80
3C3800
3C3800
0FF000
0FE000
03C000
038000
000000
000000
03C000
03C000
03C000
03C000
03C000
03C000
03C000
03C000
03C000
03C000
03C000
03C000
03C000
03C000
03C000
03C000
03C000
03C000
03C000
03C000
03C000
03C000
03C000
03C000
03C000
03C000
03C000
03C000
03C000
03C000
03C000
03C000
03C000
03C000
03C000
03C000
03C000
03C000
ENDCHAR
STARTCHAR $01D0
ENCODING 464
SWIDTH 185 0
DWIDTH 10 0
BBX 17 39 -4 0
BITMAP
FC0F80
FC0F80
0F3E00
0F3E00
03F800
03F800
000000
000000
000000
000000
00F000
00F000
00F000
00F000
00F000
00F000
00F000
00F000
00F000
00F000
00F000
00F000
00F000
00F000
00F000
00F000
00F000
00F000
00F000
00F000
00F000
00F000
00F000
00F000
00F000
00F000
00F000
00F000
00E000
ENDCHAR
STARTCHAR $01D1
ENCODING 465
SWIDTH 851 0
DWIDTH 45 0
BBX 40 46 2 1
BITMAP
000781F800
000381F800
0001FF8000
0001FF8000
00007E0000
00007E0000
0000000000
0000000000
0001FFE000
0001FFE000
003FFFFE00
007FFFFE00
00F8001FE0
03F00003F0
03F00001F8
0F000000FC
0F0000007E
3F0000003E
3F0000001E
3C0000001F
3C0000001F
3C0000000F
3C00000007
F000000007
F000000007
F000000007
F000000007
F000000007
F000000007
F000000007
F000000007
3C00000007
3C0000000F
3C0000001F
3C0000001F
3F0000001E
3F0000003E
0FC000007E
0FC00000FC
03F00001F8
01F8001FE0
00F8001FE0
007FFFFE00
003FFFFE00
0007FFE000
0007FFE000
ENDCHAR
STARTCHAR $01D2
ENCODING 466
SWIDTH 666 0
DWIDTH 35 0
BBX 31 39 2 0
BITMAP
03F01F80
03F01F80
00F87800
00FC7800
000FE000
000FE000
00078000
00038000
00000000
00000000
003FF800
007FFC00
03FFFF80
0FC007C0
0FC007E0
3F0001F8
3F0001F8
3C000078
3C000078
FC000078
FC000078
F000007E
F000007E
F000001E
F000001E
F0000078
F0000078
FC000078
FC000078
3C000078
3C000078
3F0001E0
3F0001E0
0FC007E0
0FC007E0
03FFFF80
03FFFF80
003FF800
003FF800
ENDCHAR
STARTCHAR $01D3
ENCODING 467
SWIDTH 666 0
DWIDTH 35 0
BBX 27 48 4 1
BITMAP
0FC07800
0FC07800
03F1E000
03F1E000
003F8000
003F8000
000E0000
000E0000
00000000
00000000
F00001E0
F00001E0
F00001E0
F00001E0
F00001E0
F00001E0
F00001E0
F00001E0
F00001E0
F00001E0
F00001E0
F00001E0
F00001E0
F00001E0
F00001E0
F00001E0
F00001E0
F00001E0
F00001E0
F00001E0
F00001E0
F00001E0
F00001E0
F00001E0
F00001E0
F00001E0
F00001E0
F0000780
F0000780
FC000780
3C000780
3C000780
3E000E00
3F001E00
0FFFF800
0FFFF800
00FFE000
00FFE000
ENDCHAR
STARTCHAR $01D4
ENCODING 468
SWIDTH 592 0
DWIDTH 31 0
BBX 25 39 4 0
BITMAP
0F01E000
0F01E000
03F78000
03F78000
00FE0000
00FE0000
00000000
00000000
00000000
00000000
F0000780
F0000780
F0000780
F0000780
F0000780
F0000780
F0000780
F0000780
F0000780
F0000780
F0000780
F0000780
F0000780
F0000780
F0000780
F0000780
F0000780
F0000780
F0000780
F0001F80
F0001F80
FC001F80
FC001F80
3F007F80
3F007F80
0FFFE780
0FFFE780
03FE0780
03FE0380
ENDCHAR
STARTCHAR $01D7
ENCODING 471
SWIDTH 666 0
DWIDTH 35 0
BBX 27 58 4 2
BITMAP
0001F800
0001F800
000FE000
001FE000
003E0000
003E0000
00380000
00380000
00000000
00000000
00F1E000
00F1E000
00F1E000
00F1E000
00F1E000
00000000
00000000
00000000
00000000
F00001E0
F00001E0
F00001E0
F00001E0
F00001E0
F00001E0
F00001E0
F00001E0
F00001E0
F00001E0
F00001E0
F00001E0
F00001E0
F00001E0
F00001E0
F00001E0
F00001E0
F00001E0
F00001E0
F00001E0
F00001E0
F00001E0
F00001E0
F00001E0
F00001E0
F00001E0
F00001E0
F0000780
F0000780
FC000780
FC000780
3C000780
3C000780
3F001E00
3F001E00
0FFFF800
0FFFF800
00FFE000
00FFE000
ENDCHAR
STARTCHAR $01D8
ENCODING 472
SWIDTH 592 0
DWIDTH 31 0
BBX 25 50 4 1
BITMAP
0001E000
0001E000
0007E000
0007E000
003F8000
007F8000
00F80000
00F80000
00000000
00000000
00000000
00000000
03C78000
03C78000
03C78000
03C78000
03C78000
00000000
00000000
00000000
00000000
F0000780
F0000780
F0000780
F0000780
F0000780
F0000780
F0000780
F0000780
F0000780
F0000780
F0000780
F0000780
F0000780
F0000780
F0000780
F0000780
F0000780
F0000780
F0000780
F0000F80
F0001F80
F8001F80
FC001F80
3E003F80
3F007F80
0FFFE780
0FFFE780
03FE0780
03FE0780
ENDCHAR
STARTCHAR $01D9
ENCODING 473
SWIDTH 666 0
DWIDTH 35 0
BBX 27 58 4 0
BITMAP
0FC07800
0FC07800
03F1E000
03F1E000
003F8000
003F8000
000E0000
000E0000
00000000
00000000
00F1E000
00F1E000
00F1E000
00F1E000
00F1E000
00000000
00000000
00000000
00000000
F00001E0
F00001E0
F00001E0
F00001E0
F00001E0
F00001E0
F00001E0
F00001E0
F00001E0
F00001E0
F00001E0
F00001E0
F00001E0
F00001E0
F00001E0
F00001E0
F00001E0
F00001E0
F00001E0
F00001E0
F00001E0
F00001E0
F00001E0
F00001E0
F00001E0
F00001E0
F00001E0
F0000780
F0000780
FC000780
FC000780
3C000780
3C000780
3F001E00
3F001E00
0FFFF800
0FFFF800
00FFE000
00FFE000
ENDCHAR
STARTCHAR $01DA
ENCODING 474
SWIDTH 592 0
DWIDTH 31 0
BBX 25 48 4 1
BITMAP
0FC1E000
0FC1E000
03F78000
03F78000
00FE0000
00FE0000
00000000
00000000
00000000
00000000
03C78000
03C78000
03C78000
03C78000
03C78000
00000000
00000000
00000000
00000000
F0000780
F0000780
F0000780
F0000780
F0000780
F0000780
F0000780
F0000780
F0000780
F0000780
F0000780
F0000780
F0000780
F0000780
F0000780
F0000780
F0000780
F0000780
F0000780
F0000780
F0001F80
F8001F80
FC001F80
3E003F80
3F007F80
0FFFE780
0FFFE780
03FF0780
03FE0780
ENDCHAR
STARTCHAR $01DB
ENCODING 475
SWIDTH 666 0
DWIDTH 35 0
BBX 27 58 4 2
BITMAP
03F00000
03F00000
00F80000
00FC0000
003F8000
003F8000
00060000
00020000
00000000
00000000
00F1E000
00F1E000
00F1E000
00F1E000
00F1E000
00000000
00000000
00000000
00000000
F00001E0
F00001E0
F00001E0
F00001E0
F00001E0
F00001E0
F00001E0
F00001E0
F00001E0
F00001E0
F00001E0
F00001E0
F00001E0
F00001E0
F00001E0
F00001E0
F00001E0
F00001E0
F00001E0
F00001E0
F00001E0
F00001E0
F00001E0
F00001E0
F00001E0
F00001E0
F00001E0
F0000780
F0000780
FC000780
FC000780
3C000780
3C000780
3F001E00
3F001E00
0FFFF800
0FFFF800
00FFE000
00FFE000
ENDCHAR
STARTCHAR $01DC
ENCODING 476
SWIDTH 592 0
DWIDTH 31 0
BBX 25 50 4 1
BITMAP
03000000
03000000
0FF00000
0FF00000
00F80000
00FC0000
003E0000
003E0000
00000000
00000000
00000000
00000000
03C78000
03C78000
03C78000
03C78000
03C78000
00000000
00000000
00000000
00000000
F0000780
F0000780
F0000780
F0000780
F0000780
F0000780
F0000780
F0000780
F0000780
F0000780
F0000780
F0000780
F0000780
F0000780
F0000780
F0000780
F0000780
F0000780
F0000780
F0000F80
F0001F80
F8001F80
FC001F80
3E003F80
3F007F80
0FFFE780
0FFFE780
03FE0780
03FE0780
ENDCHAR
STARTCHAR $01DD
ENCODING 477
SWIDTH 666 0
DWIDTH 35 0
BBX 29 29 2 0
BITMAP
003FF800
003FF800
03FFFE00
03FFFE00
0FC01FE0
0F801FE0
3F0001E0
3E0001E0
3C000078
38000078
00000078
00000078
00000078
FFFFFFF8
FFFFFFF8
FFFFFFF8
FFFFFFF8
F0000078
F0000078
3C000078
3C000078
3F0001E0
3F0001E0
0FC007E0
0FC007E0
03FFFE00
03FFFE00
003FF800
003FF800
ENDCHAR
STARTCHAR $01E6
ENCODING 486
SWIDTH 888 0
DWIDTH 47 0
BBX 40 46 2 1
BITMAP
000781F800
000381F800
0001FF8000
0001FF8000
00007E0000
00007E0000
0000000000
0000000000
0001FFE000
0001FFE000
003FFFFF80
007FFFFF80
00F8001FE0
03F00003F0
03F00001F8
0F000000FC
0F0000007E
3F0000003E
3F0000001E
3C00000000
3C00000000
3C00000000
3C00000000
F000000000
F000000000
F000000000
F000000000
F000000000
F000000000
F001FFFFFF
F001FFFFFF
FC01FFFFFF
FC00FFFFFF
3C00000007
3C0000000F
3F0000001E
3F0000001E
0F0000001E
0F0000003C
03F00001F8
01F80007E0
00F80007E0
007FFFFF80
003FFFFF80
0001FFE000
0001FFE000
ENDCHAR
STARTCHAR $01E7
ENCODING 487
SWIDTH 666 0
DWIDTH 35 0
BBX 29 50 2 -11
BITMAP
03F01E00
03F01E00
00F87800
00FC7800
003FE000
003FE000
000F8000
000F8000
00000000
00000000
003FF878
007FFC78
03FFFE78
0FC01FF8
0FC01FF8
3F0001F8
3F0001F8
3C000078
3C000078
F0000078
F0000078
F0000078
F0000078
F0000078
F0000078
F0000078
F0000078
FC000078
FC000078
3C000078
3C000078
3F0001F8
3F0001F8
0FC007F8
0FC007F8
03FFFE78
03FFFE78
003FE078
003FE078
3C000078
3C000078
3C000078
0E0001E0
0F0001E0
0FE007E0
0FF007E0
03FFFF80
03FFFF80
001FF800
000FF800
ENDCHAR
STARTCHAR $01EA
ENCODING 490
SWIDTH 851 0
DWIDTH 45 0
BBX 40 50 2 -11
BITMAP
0001FFE000
0001FFE000
003FFFFE00
003FFFFE00
00F8001FE0
00F8001FE0
03F00001F8
03E00001F8
0F0000007E
0F0000007E
3F0000001E
3E0000001E
3C0000001F
3C0000000F
3C00000007
F000000007
F000000007
F000000007
F000000007
F000000007
F000000007
F000000007
F000000007
3C00000007
3C00000007
3C0000001F
3C0000001F
3F0000001E
3F0000001C
0FC0000078
0FC0000078
03F00001F8
03F00001F0
00F8001FE0
00FC001FC0
003FFFFE00
003FFFFC00
0007FFE000
0003FFC000
0000078000
00000F0000
00001E0000
0000380000
0000780000
00007E0000
00007E0000
00001FE000
00001FE000
000007E000
000007E000
ENDCHAR
STARTCHAR $01EB
ENCODING 491
SWIDTH 666 0
DWIDTH 35 0
BBX 31 40 2 -11
BITMAP
003FF800
003FF800
03FFFF80
03FFFF80
0FC007E0
0F8007E0
3F0001F8
3E0001F8
3C000078
3C000078
FC000078
F8000078
F000007E
F000003E
F000001E
F0000078
F0000078
FC000078
FC000078
3C000078
3C000078
3F0001E0
3F0001E0
0FC007E0
0FC007E0
03FFFF80
03FFFF80
003FF800
003FF800
0001E000
0001E000
00078000
00078000
00078000
00078000
00078000
0007C000
0007F800
0003F800
0001F800
ENDCHAR
STARTCHAR $01F0
ENCODING 496
SWIDTH 185 0
DWIDTH 10 0
BBX 15 48 -2 -9
BITMAP
F03E
F03E
3CF8
3CF8
0FF0
0FE0
0000
0000
0000
0000
03C0
03C0
03C0
03C0
03C0
03C0
03C0
03C0
03C0
03C0
03C0
03C0
03C0
03C0
03C0
03C0
03C0
03C0
03C0
03C0
03C0
03C0
03C0
03C0
03C0
03C0
03C0
03C0
03C0
03C0
0F00
0F00
0F00
0F00
FC00
FC00
F000
F000
ENDCHAR
STARTCHAR $01F4
ENCODING 500
SWIDTH 888 0
DWIDTH 47 0
BBX 40 48 2 1
BITMAP
0000006000
0000006000
000007F800
000007F800
00007F8000
00007F8000
0000780000
0000380000
0000000000
0000000000
0001FFE000
0001FFE000
003FFFFF80
00FC003FC0
00F8001FE0
03F00003F0
03F00001F8
0F000000FC
0F0000007E
3F0000003E
3F0000001E
3C00000000
3C00000000
3C00000000
3C00000000
F000000000
F000000000
F000000000
F000000000
F000000000
F000000000
F001FFFFFF
F001FFFFFF
FC01FFFFFF
FC00FFFFFF
3C00000007
3C0000000F
3F0000001E
3F0000001E
0F0000001E
07E00001F8
03F00001F8
01F80007E0
00F80007E0
007FFFFF80
003FFFFF80
0001FFE000
0001FFE000
ENDCHAR
STARTCHAR $01F5
ENCODING 501
SWIDTH 666 0
DWIDTH 35 0
BBX 29 50 2 -9
BITMAP
00007800
00007800
0007F800
0007F800
000F8000
000F8000
000E0000
000E0000
00000000
00000000
003FF878
007FFC78
03FFFE78
0FC01FF8
0FC01FF8
3F0001F8
3F0001F8
3C000078
3C000078
F0000078
F0000078
F0000078
F0000078
F0000078
F0000078
F0000078
F0000078
FC000078
FC000078
3C000078
3C000078
3F0001F8
3F0001F8
0FC007F8
0FC007F8
03FFFE78
03FFFE78
003FE078
003FE078
3C000078
3C000078
3C000078
0E0001E0
0F0001E0
0FE007E0
0FF007E0
03FFFF80
03FFFF80
001FF800
000FF800
ENDCHAR
STARTCHAR $01FA
ENCODING 506
SWIDTH 740 0
DWIDTH 39 0
BBX 35 62 2 0
BITMAP
0000078000
0000078000
00007F8000
00007F8000
0001F80000
0001F80000
0007800000
0003800000
0000000000
0000000000
0001F80000
0001F80000
0006180000
000E1E0000
000E1E0000
000E1E0000
000E1E0000
0006180000
0006180000
0007F80000
0007F80000
0000000000
0000000000
0001E00000
0001E00000
0003F80000
0007F80000
0007F80000
0007F80000
000E1E0000
000E1E0000
000E1E0000
001E1E0000
003E1E0000
003E0E0000
0038078000
0038078000
0038078000
007803C000
00F001E000
00F001E000
00F001E000
03C001F800
03C001F800
03FFFFF800
03FFFFF800
0FFFFFF800
0FFFFFF800
0F00001E00
0F00001E00
0F00001E00
0F00001E00
3C00000780
3C00000780
3C00000780
3C00000780
F0000007E0
F0000007E0
F0000001E0
F0000001E0
F0000001E0
F0000001C0
ENDCHAR
STARTCHAR $01FB
ENCODING 507
SWIDTH 666 0
DWIDTH 35 0
BBX 31 50 2 1
BITMAP
00001E00
00001E00
0001F800
0001F800
000FE000
000FE000
000E0000
000E0000
00000000
00000000
000FE000
001FE000
00386000
00307800
00307800
00387000
00386000
001F8000
000F8000
00000000
00000000
003FF81E
003FF81E
03FFFF9E
03FFFF9E
0FC007FE
0FC007FE
3F0001FE
3F0001FE
3C00007E
3C00007E
FC00007E
FC00007E
F000001E
F000001E
F000001E
F000001E
F000001E
F000003E
FC00007E
3C00007E
3C00007E
3E0001FE
3F0001FE
0F80079E
0FC0079E
03FFFE1E
03FFFE1E
003FF81E
003FF81E
ENDCHAR
STARTCHAR $01FC
ENCODING 508
SWIDTH 1000 0
DWIDTH 52 0
BBX 46 48 2 3
BITMAP
00000001E000
00000001E000
0000001FE000
0000001FE000
0000007E0000
0000007E0000
000000600000
000000600000
000000000000
000000000000
0000007FFFFC
0000007FFFFC
000001FFFFFC
000003FE0000
000007FE0000
0000079E0000
0000079E0000
00000E1E0000
00001E1E0000
00003E1E0000
00007E1E0000
0000781E0000
0000781E0000
0001F81E0000
0001F81E0000
0003E01E0000
0007E01E0000
0007801FFFFC
0007801FFFFC
000F801FFFFC
001F801FFFFC
003E001E0000
007F001E0000
00FFFFFE0000
00FFFFFE0000
00FFFFFE0000
01FFFFFE0000
03F0001E0000
07E0001E0000
0FC0001E0000
0F00001E0000
0F00001E0000
3F00001E0000
3F00001E0000
FC00001FFFFC
FC00001FFFFC
F000001FFFFC
F000001FFFFC
ENDCHAR
STARTCHAR $01FD
ENCODING 509
SWIDTH 1148 0
DWIDTH 60 0
BBX 56 39 2 2
BITMAP
00000001E00000
00000001E00000
0000001FE00000
0000001FE00000
0000007E000000
0000007E000000
00000060000000
00000060000000
00000000000000
00000000000000
003FF81E07FF00
007FFC1E0FFF80
03FFFF9E7FFFC0
0FC007FFF803F0
0FC007FFF803F0
3F0001FF80003C
3F0001FF80003C
3C00007F80000F
3C00007F80000F
FC00001E00000F
FC00001E00000F
F000001FFFFFFF
F000001FFFFFFF
F000001FFFFFFF
F000001FFFFFFF
F000001E000000
F000001E000000
FC00007E000000
FC00007E000000
3C00007F80003F
3C00007F80003F
3F0001FFE0003C
3F0001FFE0003C
0FC007FFF803F0
0FC007FFF803F0
03FFFE1E7FFFC0
03FFFE1E7FFFC0
003FF81E07FC00
003FF81C07FC00
ENDCHAR
STARTCHAR $01FE
ENCODING 510
SWIDTH 851 0
DWIDTH 45 0
BBX 40 52 2 -4
BITMAP
0000006000
0000006000
000007E000
000007E000
00007F8000
00007F8000
0000780018
0000380018
000000001E
000000003C
0007FFE078
0007FFE0F0
003FFFFFE0
00FC003FE0
00F8001FE0
03F00007F0
03F00007F8
0F00001EFC
0F00001E7E
3F0000783E
3F0000781E
3C0001F81F
3C0001F81F
3C0001E007
3C0001E007
F000078007
F000078007
F0001E0007
F0001E0007
F0007E0007
F0007E0007
F001F80007
F001F80007
3C01E00007
3C01E0000F
3C0780001F
3C0780001F
3F0E00001E
3F1E00003E
0F3E00007E
07FC0001F8
03F80001F8
01F8001FE0
00F8001FE0
03FFFFFE00
03FFFFFE00
0FC7FFE000
0FC7FFE000
3F00000000
3F00000000
0C00000000
0C00000000
ENDCHAR
STARTCHAR $01FF
ENCODING 511
SWIDTH 666 0
DWIDTH 35 0
BBX 29 40 2 1
BITMAP
00007E00
00007E00
0001F800
0001F800
000F8000
000F8000
000E0000
000E0000
00000060
00000060
003FF9F8
007FFDF0
03FFFFE0
0FC007E0
0FC007E0
3F000FE0
3F001FE0
3C003878
3C007878
FC00F878
FC01F878
F003E078
F007E078
F0078078
F0078078
F00E0078
F00E0078
F0380078
F0380078
3CF80078
3CF80078
3FF001E0
3FE001E0
0FC007E0
0FC007E0
0FFFFF80
0FFFFF80
3C3FF800
3C3FF800
0C000000
ENDCHAR
STARTCHAR $0200
ENCODING 512
SWIDTH 740 0
DWIDTH 39 0
BBX 35 48 2 3
BITMAP
0F07800000
0F03800000
03F1F80000
03F1F80000
00F87E0000
00F87E0000
0008060000
0008060000
0000000000
0000000000
0001E00000
0001F00000
0007F80000
0007F80000
0007F80000
000F1E0000
000E1E0000
000E1E0000
000E1E0000
003E1E0000
003E1E0000
003C078000
0038078000
0038078000
0038078000
00F001E000
00F001E000
00F001E000
00E001E000
03C001F800
03C001F800
03FFFFF800
03FFFFF800
0FFFFFF800
0FFFFFF800
0F00001E00
0F00001E00
0F00001E00
1E00001E00
3C00000780
3C00000780
3C00000780
F0000007C0
F0000007E0
F0000001E0
F0000001E0
F0000001E0
F0000001E0
ENDCHAR
STARTCHAR $0201
ENCODING 513
SWIDTH 666 0
DWIDTH 35 0
BBX 31 39 2 0
BITMAP
3C0E0000
3C0E0000
3F0F8000
3F0F8000
03C1F800
03C0F800
00F07800
00E03800
00000000
00000000
003FF81E
007FFC1E
03FFFF9E
0FC007FE
0FC007FE
3F0001FE
3F0001FE
3C00007E
3C00007E
FC00007E
FC00007E
F000001E
F000001E
F000001E
F000001E
F000001E
F000001E
FC00007E
FC00007E
3C00007E
3C00007E
3F0001FE
3F0001FE
0FC0079E
0FC0079E
03FFFE1E
03FFFE1E
003FF81E
003FF81C
ENDCHAR
STARTCHAR $0204
ENCODING 516
SWIDTH 518 0
DWIDTH 27 0
BBX 25 50 0 1
BITMAP
00080000
000C0000
FC0E0000
FC0E0000
3F078000
3F038000
03C1F800
03C0F800
00C06000
00802000
00000000
00000000
0FFFFF80
0FFFFF80
0FFFFF80
0F000000
0F000000
0F000000
0F000000
0F000000
0F000000
0F000000
0F000000
0F000000
0F000000
0F000000
0F000000
0F000000
0F000000
0FFFFF80
0FFFFF80
0FFFFF80
0FFFFF80
0F000000
0F000000
0F000000
0F000000
0F000000
0F000000
0F000000
0F000000
0F000000
0F000000
0F000000
0F000000
0F000000
0FFFFF80
0FFFFF80
0FFFFF80
0FFFFF80
ENDCHAR
STARTCHAR $0205
ENCODING 517
SWIDTH 666 0
DWIDTH 35 0
BBX 29 39 2 0
BITMAP
3C0E0000
3C0E0000
3F0F8000
3F0F8000
0FC1F800
0FC0F800
00F07800
00E03800
00000000
00000000
003FF800
007FFC00
03FFFF80
0FC007C0
0FC007E0
3F0001E0
3F0001E0
3C000078
3C000078
F0000078
F0000078
FFFFFFF8
FFFFFFF8
FFFFFFF8
FFFFFFF8
F0000000
F0000000
F0000000
F0000000
3C000078
3C000078
3F0001E0
3F0001E0
0FC00780
0FC00780
03FFFE00
03FFFE00
003FE000
003FE000
ENDCHAR
STARTCHAR $0208
ENCODING 520
SWIDTH 222 0
DWIDTH 12 0
BBX 19 48 -8 3
BITMAP
F03E00
F03E00
3F0F80
3F0F80
0FC1E0
0FC0E0
00C060
008020
000000
000000
000E00
000E00
000E00
000E00
000E00
000E00
000E00
000E00
000E00
000E00
000E00
000E00
000E00
000E00
000E00
000E00
000E00
000E00
000E00
000E00
000E00
000E00
000E00
000E00
000E00
000E00
000E00
000E00
000E00
000E00
000E00
000E00
000E00
000E00
000E00
000E00
000E00
000E00
ENDCHAR
STARTCHAR $0209
ENCODING 521
SWIDTH 185 0
DWIDTH 10 0
BBX 21 40 -10 1
BITMAP
300000
300000
FC0E00
FC0E00
3F07E0
3F03E0
03F1F8
03E0F8
00C018
008008
000000
000000
000780
000780
000780
000780
000780
000780
000780
000780
000780
000780
000780
000780
000780
000780
000780
000780
000780
000780
000780
000780
000780
000780
000780
000780
000780
000780
000780
000780
ENDCHAR
STARTCHAR $020C
ENCODING 524
SWIDTH 851 0
DWIDTH 45 0
BBX 40 48 2 1
BITMAP
00C0780000
00C0780000
00F87E0000
00FC7E0000
003E07E000
003F07E000
000781E000
000381E000
0000000000
0000000000
0001FFE000
0001FFE000
003FFFFE00
00FC003FC0
00F8001FE0
03F00003F0
03F00001F8
0F000000FC
0F0000007E
3F0000003E
3F0000001E
3C0000001F
3C0000001F
3C00000007
3C00000007
F000000007
F000000007
F000000007
F000000007
F000000007
F000000007
F000000007
F000000007
3C00000007
3C0000000F
3C0000001F
3C0000001F
3F0000001E
3F0000003E
0FC000007E
07E00001F8
03F00001F8
01F8001FE0
00F8001FE0
007FFFFE00
003FFFFE00
0007FFE000
0007FFE000
ENDCHAR
STARTCHAR $020D
ENCODING 525
SWIDTH 666 0
DWIDTH 35 0
BBX 31 39 2 0
BITMAP
3C0E0000
3C0E0000
3F0F8000
3F0F8000
03C1F800
03C0F800
00F07800
00E03800
00000000
00000000
003FF800
007FFC00
03FFFF80
0FC007C0
0FC007E0
3F0001F8
3F0001F8
3C000078
3C000078
FC000078
FC000078
F000007E
F000007E
F000001E
F000001E
F0000078
F0000078
FC000078
FC000078
3C000078
3C000078
3F0001E0
3F0001E0
0FC007E0
0FC007E0
03FFFF80
03FFFF80
003FF800
003FF800
ENDCHAR
STARTCHAR $0210
ENCODING 528
SWIDTH 592 0
DWIDTH 31 0
BBX 29 48 2 3
BITMAP
F03E0000
F03E0000
3F0F8000
3F0F8000
0FC1E000
0FC0E000
00C06000
00802000
00000000
00000000
3FFFE000
3FFFF000
3FFFFE00
3C001F80
3C001F80
3C0001E0
3C0001E0
3C0001E0
3C0001E0
3C0001F8
3C0001F8
3C000078
3C000078
3C0001F8
3C0001F8
3C0001E0
3C0001E0
3C0001E0
3C0001E0
3C001F80
3C001F80
3C3FFE00
3C3FFE00
3C0F8000
3C0F8000
3C078000
3C03C000
3C01E000
3C01F000
3C01F800
3C007E00
3C007E00
3C001E00
3C001E00
3C000780
3C000780
3C0007E0
3C0007E0
ENDCHAR
STARTCHAR $0211
ENCODING 529
SWIDTH 296 0
DWIDTH 16 0
BBX 21 39 -6 0
BITMAP
F03800
F03C00
FC3E00
FC3E00
0F07E0
0F03E0
03C1E0
0380E0
000000
000000
003878
003C78
003FF8
003FC0
003F80
003F00
003E00
003C00
003800
003800
003800
003800
003800
003800
003800
003800
003800
003800
003800
003800
003800
003800
003800
003800
003800
003800
003800
003800
003800
ENDCHAR
STARTCHAR $0214
ENCODING 532
SWIDTH 666 0
DWIDTH 35 0
BBX 27 50 4 1
BITMAP
C0000000
C0000000
F0380000
F03C0000
3C0F8000
3C0F8000
0FC7E000
0FC3E000
03C06000
03802000
00000000
00000000
F00001E0
F00001E0
F00001E0
F00001E0
F00001E0
F00001E0
F00001E0
F00001E0
F00001E0
F00001E0
F00001E0
F00001E0
F00001E0
F00001E0
F00001E0
F00001E0
F00001E0
F00001E0
F00001E0
F00001E0
F00001E0
F00001E0
F00001E0
F00001E0
F00001E0
F00001E0
F00001C0
F0000780
F8000780
FC000780
3C000780
3C000780
3E001E00
3F001E00
0FFFF800
0FFFF800
00FFE000
00FFE000
ENDCHAR
STARTCHAR $0215
ENCODING 533
SWIDTH 592 0
DWIDTH 31 0
BBX 27 39 2 2
BITMAP
F03E0000
F03E0000
3F0F8000
3F0F8000
0FC1E000
0FC0E000
00C06000
00802000
00000000
00000000
3C0001E0
3C0001E0
3C0001E0
3C0001E0
3C0001E0
3C0001E0
3C0001E0
3C0001E0
3C0001E0
3C0001E0
3C0001E0
3C0001E0
3C0001E0
3C0001E0
3C0001E0
3C0001E0
3C0001E0
3C0001E0
3C0001E0
3C0007E0
3C0007E0
3F0007E0
3F0007E0
0FC01FE0
0FC01FE0
03FFF9E0
03FFF9E0
00FF81E0
00FF80C0
ENDCHAR
STARTCHAR $0218
ENCODING 536
SWIDTH 481 0
DWIDTH 26 0
BBX 23 50 2 -11
BITMAP
03FE00
03FE00
0FFFE0
0FFFE0
3F01F8
3F00F8
3C0078
3C0078
F00078
F00038
F00000
F00000
FC0000
7E0000
3F0000
0FE000
0FF000
03FF80
03FF80
001FE0
000FE0
0001F8
0001F8
00007E
00007E
00001E
00001E
F0001E
F0001E
F0001E
F0001E
FC0078
FC0078
3F01F8
3F01F8
0FFFE0
0FFFE0
03FE00
03FE00
000000
003800
003800
003800
003800
00F000
00F000
00F000
00F000
00F000
00F000
ENDCHAR
STARTCHAR $0219
ENCODING 537
SWIDTH 370 0
DWIDTH 20 0
BBX 19 40 0 -11
BITMAP
03F800
03FC00
0FFF80
0FFF80
3F0780
3F0780
3C0780
3C0380
3C0000
3C0000
3F0000
3F0000
0FF000
01FE00
00FE00
001F80
000F80
0007E0
0007E0
F001E0
F001E0
3C01E0
3C01E0
3C0380
3C0780
0FFF80
0FFF80
03F800
03F800
000000
000000
00F000
00F000
00F000
00F000
00F000
00F000
00F000
01E000
03C000
ENDCHAR
STARTCHAR $021A
ENCODING 538
SWIDTH 444 0
DWIDTH 24 0
BBX 21 50 0 -11
BITMAP
FFFFF8
FFFFF8
FFFFF8
FFFFF8
003800
003800
003800
003800
003800
003800
003800
003800
003800
003800
003800
003800
003800
003800
003800
003800
003800
003800
003800
003800
003800
003800
003800
003800
003800
003800
003800
003800
003800
003800
003800
003800
003800
003800
003800
000000
003800
003800
003800
003800
00F000
00F000
00F000
00F000
00F000
00F000
ENDCHAR
STARTCHAR $021B
ENCODING 539
SWIDTH 333 0
DWIDTH 18 0
BBX 17 50 0 -11
BITMAP
03F000
03F000
03F000
03F000
03F000
03F000
03F000
03F000
03F000
07F000
FFFF80
FFFF80
FFFF80
07F000
03F000
03F000
03F000
03F000
03F000
03F000
03F000
03F000
03F000
03F000
03F000
03F000
03F000
03F000
03F000
03F000
03F000
03F000
03F000
03F000
03F000
03F000
03F000
03F000
03E000
000000
00E000
00F000
00C000
00C000
03C000
03C000
03C000
03C000
03C000
03C000
ENDCHAR
STARTCHAR $0237
ENCODING 567
SWIDTH 185 0
DWIDTH 10 0
BBX 10 39 -2 -10
BITMAP
03C0
03C0
03C0
03C0
03C0
03C0
03C0
03C0
03C0
03C0
03C0
03C0
03C0
03C0
03C0
03C0
03C0
03C0
03C0
03C0
03C0
03C0
03C0
03C0
03C0
03C0
03C0
03C0
03C0
03C0
03C0
0F00
0F00
0F00
0E00
FC00
F800
F000
E000
ENDCHAR
STARTCHAR $0258
ENCODING 600
SWIDTH 666 0
DWIDTH 35 0
BBX 29 29 2 0
BITMAP
003FF800
003FF800
03FFFF80
03FFFF80
0FC007E0
0F8007E0
3F0001E0
3E0001E0
3C000078
38000078
F0000078
F0000078
FFFFFFF8
FFFFFFF8
FFFFFFF8
00000078
00000078
00000078
00000078
3C000078
3C000078
3F0001E0
3F0001E0
0FC01F80
0FC01F80
03FFFE00
03FFFE00
003FE000
003FE000
ENDCHAR
STARTCHAR $0259
ENCODING 601
SWIDTH 666 0
DWIDTH 35 0
BBX 29 29 2 0
BITMAP
003FF800
003FF800
03FFFE00
03FFFE00
0FC01FE0
0F801FE0
3F0001E0
3E0001E0
3C000078
38000078
00000078
00000078
00000078
FFFFFFF8
FFFFFFF8
FFFFFFF8
FFFFFFF8
F0000078
F0000078
3C000078
3C000078
3F0001E0
3F0001E0
0FC007E0
0FC007E0
03FFFE00
03FFFE00
003FF800
003FF800
ENDCHAR
STARTCHAR $02BE
ENCODING 702
SWIDTH 518 0
DWIDTH 27 0
BBX 19 21 4 16
BITMAP
0FF800
0FFC00
3FFF80
3FFF80
F007E0
F003E0
F001E0
F001E0
0001E0
0000E0
000060
000060
0001E0
E001E0
F001E0
F803C0
FC0780
3FFF00
3FFE00
03F000
03F000
ENDCHAR
STARTCHAR $02BF
ENCODING 703
SWIDTH 518 0
DWIDTH 27 0
BBX 19 21 4 16
BITMAP
03FE00
03FE00
3FFF80
3FFF80
3C07E0
3C03E0
F001E0
F000E0
F00000
F00000
C00000
C00000
F00000
F000E0
F001E0
3803E0
3C07E0
0FFFC0
0FFF80
00FC00
00F800
ENDCHAR
STARTCHAR $02C6
ENCODING 710
SWIDTH 518 0
DWIDTH 27 0
BBX 15 6 6 33
BITMAP
0FC0
0FC0
3FF0
3FF0
FC3E
FC3E
ENDCHAR
STARTCHAR $02C7
ENCODING 711
SWIDTH 518 0
DWIDTH 27 0
BBX 15 6 6 33
BITMAP
F03E
F03E
3CF8
3CF8
0FF0
0FE0
ENDCHAR
STARTCHAR $02D8
ENCODING 728
SWIDTH 444 0
DWIDTH 24 0
BBX 15 8 4 31
BITMAP
F00E
F00E
F00E
F01E
3FF8
3FF8
03C0
0380
ENDCHAR
STARTCHAR $02D9
ENCODING 729
SWIDTH 222 0
DWIDTH 12 0
BBX 4 6 4 33
BITMAP
F0
F0
F0
F0
F0
F0
ENDCHAR
STARTCHAR $02DA
ENCODING 730
SWIDTH 333 0
DWIDTH 18 0
BBX 10 10 4 31
BITMAP
3F00
3F00
F3C0
F3C0
C0C0
C0C0
C0C0
C080
3F00
3E00
ENDCHAR
STARTCHAR $02DB
ENCODING 731
SWIDTH 296 0
DWIDTH 16 0
BBX 8 13 4 -12
BITMAP
3C
3C
F0
F0
F0
F0
F0
F0
F0
F0
FF
FF
3F
ENDCHAR
STARTCHAR $02DC
ENCODING 732
SWIDTH 444 0
DWIDTH 24 0
BBX 15 8 4 31
BITMAP
0C00
0C00
FF08
FF1C
C0FE
C0FE
0030
0020
ENDCHAR
STARTCHAR $02DD
ENCODING 733
SWIDTH 555 0
DWIDTH 29 0
BBX 21 10 8 31
BITMAP
00C000
00C000
03C1F8
03C1F8
0F07E0
0F07E0
FC3E00
FC3E00
F00800
F00800
ENDCHAR
STARTCHAR $0300
ENCODING 768
SWIDTH 0 0
DWIDTH 0 0
BBX 12 8 -25 33
BITMAP
FC00
FC00
3F00
3F00
0FF0
0FE0
00C0
0080
ENDCHAR
STARTCHAR $0301
ENCODING 769
SWIDTH 0 0
DWIDTH 0 0
BBX 12 8 -21 33
BITMAP
03F0
03F0
3FC0
3FC0
FC00
FC00
F000
F000
ENDCHAR
STARTCHAR $0302
ENCODING 770
SWIDTH 0 0
DWIDTH 0 0
BBX 15 6 -25 33
BITMAP
0FC0
0FC0
3FF0
3FF0
FC3E
FC3E
ENDCHAR
STARTCHAR $0303
ENCODING 771
SWIDTH 0 0
DWIDTH 0 0
BBX 15 8 -25 31
BITMAP
3C00
3C00
FF08
FF1C
C3FE
C3FE
0030
0020
ENDCHAR
STARTCHAR $0304
ENCODING 772
SWIDTH 0 0
DWIDTH 0 0
BBX 17 4 -27 33
BITMAP
FFFF80
FFFF80
FFFF80
FFFF80
ENDCHAR
STARTCHAR $0305
ENCODING 773
SWIDTH 0 0
DWIDTH 0 0
BBX 15 4 -19 35
BITMAP
FFFE
FFFE
FFFE
FFFE
ENDCHAR
STARTCHAR $0306
ENCODING 774
SWIDTH 0 0
DWIDTH 0 0
BBX 15 8 -25 31
BITMAP
C00E
C00E
F00E
F01E
3FF8
3FF8
0300
0200
ENDCHAR
STARTCHAR $0307
ENCODING 775
SWIDTH 0 0
DWIDTH 0 0
BBX 4 6 -19 33
BITMAP
F0
F0
F0
F0
F0
F0
ENDCHAR
STARTCHAR $0308
ENCODING 776
SWIDTH 0 0
DWIDTH 0 0
BBX 12 6 -23 33
BITMAP
F0F0
F0F0
F0F0
F0F0
F0F0
F0E0
ENDCHAR
STARTCHAR $0309
ENCODING 777
SWIDTH 0 0
DWIDTH 0 0
BBX 10 10 -23 31
BITMAP
3FC0
3FC0
F0C0
F0C0
03C0
03C0
03C0
0380
0F00
0E00
ENDCHAR
STARTCHAR $030A
ENCODING 778
SWIDTH 0 0
DWIDTH 0 0
BBX 12 10 -23 31
BITMAP
3F00
3F00
F3C0
F3C0
C0F0
C0E0
F0C0
F1C0
3FC0
3F80
ENDCHAR
STARTCHAR $030B
ENCODING 779
SWIDTH 0 0
DWIDTH 0 0
BBX 19 8 -23 33
BITMAP
0FC1E0
0FC1E0
3F0F80
3F1F80
F03E00
F03E00
C03000
C02000
ENDCHAR
STARTCHAR $030C
ENCODING 780
SWIDTH 0 0
DWIDTH 0 0
BBX 15 6 -25 33
BITMAP
F00E
F00E
3CF8
3CF8
0FF0
0FE0
ENDCHAR
STARTCHAR $030F
ENCODING 783
SWIDTH 0 0
DWIDTH 0 0
BBX 19 10 -31 31
BITMAP
C00000
C00000
F03800
F03C00
3C0F80
3C0F80
0FC7E0
0F83E0
030060
020020
ENDCHAR
STARTCHAR $0311
ENCODING 785
SWIDTH 0 0
DWIDTH 0 0
BBX 15 8 -25 31
BITMAP
0300
0300
3FF8
3FFC
F03E
F03E
C00E
C00E
ENDCHAR
STARTCHAR $0323
ENCODING 803
SWIDTH 0 0
DWIDTH 0 0
BBX 4 6 -19 -10
BITMAP
F0
F0
F0
F0
F0
F0
ENDCHAR
STARTCHAR $0326
ENCODING 806
SWIDTH 0 0
DWIDTH 0 0
BBX 6 10 -21 -12
BITMAP
3C
3C
3C
3C
F0
F0
F0
F0
F0
F0
ENDCHAR
STARTCHAR $0327
ENCODING 807
SWIDTH 0 0
DWIDTH 0 0
BBX 10 12 -21 -13
BITMAP
3000
3000
FF00
FF00
FFC0
FFC0
00C0
01C0
C3C0
C780
FF00
FE00
ENDCHAR
STARTCHAR $0328
ENCODING 808
SWIDTH 0 0
DWIDTH 0 0
BBX 10 13 -23 -12
BITMAP
0F00
0F00
3C00
3C00
3C00
3C00
F000
F000
3C00
3C00
3FC0
3FC0
0FC0
ENDCHAR
STARTCHAR $032C
ENCODING 812
SWIDTH 0 0
DWIDTH 0 0
BBX 15 6 -25 -10
BITMAP
F03E
F03E
3FF0
3FE0
0FC0
0F80
ENDCHAR
STARTCHAR $032D
ENCODING 813
SWIDTH 0 0
DWIDTH 0 0
BBX 15 6 -25 -10
BITMAP
0FF0
0FF0
3CF8
3CFC
F00E
F00E
ENDCHAR
STARTCHAR $032E
ENCODING 814
SWIDTH 0 0
DWIDTH 0 0
BBX 15 6 -25 -10
BITMAP
F00E
F00E
FFF8
FFF8
3FF0
3FE0
ENDCHAR
STARTCHAR $032F
ENCODING 815
SWIDTH 0 0
DWIDTH 0 0
BBX 15 8 -25 -10
BITMAP
0300
0300
3FF8
3FFC
F00E
F00E
C00E
C00E
ENDCHAR
STARTCHAR $0330
ENCODING 816
SWIDTH 0 0
DWIDTH 0 0
BBX 15 6 -25 -10
BITMAP
3F08
3F0C
FFFE
FFFE
0030
0020
ENDCHAR
STARTCHAR $0331
ENCODING 817
SWIDTH 0 0
DWIDTH 0 0
BBX 17 4 -27 -8
BITMAP
FFFF80
FFFF80
FFFF80
FFFF80
ENDCHAR
STARTCHAR $0332
ENCODING 818
SWIDTH 0 0
DWIDTH 0 0
BBX 15 4 -19 -8
BITMAP
FFFE
FFFE
FFFE
FFFE
ENDCHAR
STARTCHAR $0333
ENCODING 819
SWIDTH 0 0
DWIDTH 0 0
BBX 15 12 -19 -15
BITMAP
FFFE
FFFE
FFFE
FFFE
0000
0000
0000
0000
FFFE
FFFE
FFFE
FFFE
ENDCHAR
STARTCHAR $0338
ENCODING 824
SWIDTH 0 0
DWIDTH 0 0
BBX 17 42 -19 -7
BITMAP
000780
000780
000780
000780
000E00
000E00
000E00
000E00
000E00
001E00
003800
003800
003800
00F800
00F800
00F000
00F000
00F000
00F000
03F000
03F000
03C000
03C000
03C000
03C000
0FC000
0FC000
0F0000
0F0000
0F0000
0F0000
3C0000
3C0000
3C0000
3C0000
3C0000
380000
F00000
F00000
F00000
F00000
F00000
ENDCHAR
STARTCHAR $033F
ENCODING 831
SWIDTH 0 0
DWIDTH 0 0
BBX 15 12 -19 35
BITMAP
FFFE
FFFE
FFFE
FFFE
0000
0000
0000
0000
FFFE
FFFE
FFFE
FFFE
ENDCHAR
STARTCHAR $034D
ENCODING 845
SWIDTH 0 0
DWIDTH 0 0
BBX 31 15 -27 -16
BITMAP
00381E00
00381E00
03F81F80
03F81F80
3FC001F8
3FC001F8
FFFFFFFE
FFFFFFFE
FFFFFFFE
FFFFFFFE
0FC007F8
0FC007F0
00F81F80
00781C00
00381800
ENDCHAR
STARTCHAR $0361
ENCODING 865
SWIDTH 259 0
DWIDTH 14 0
BBX 15 6 6 35
BITMAP
0FF8
0FFC
FFFE
FFFE
F00E
F00E
ENDCHAR
STARTCHAR $0391
ENCODING 913
SWIDTH 740 0
DWIDTH 39 0
BBX 35 39 2 0
BITMAP
0001E00000
0001E00000
0007F80000
0007F80000
0007F80000
0007F80000
000E1E0000
000E1E0000
000E1E0000
001E1E0000
003E1E0000
003E0F0000
0038078000
0038078000
0038078000
00F001E000
00F001E000
00F001E000
00F001E000
03C001F800
03C001F800
03FFFFF800
03FFFFF800
0FFFFFF800
0FFFFFF800
0F00001E00
0F00001E00
0F00001E00
0F00001E00
3C00000780
3C00000780
3C00000780
3C00000780
F0000007E0
F0000007E0
F0000001E0
F0000001E0
F0000001E0
E0000001C0
ENDCHAR
STARTCHAR $0392
ENCODING 914
SWIDTH 592 0
DWIDTH 31 0
BBX 25 39 4 0
BITMAP
FFFE0000
FFFE0000
FFFFE000
FFFFE000
F001F800
F000F800
F0007800
F0007800
F0007E00
F0003E00
F0001E00
F0001E00
F0007800
F0007800
F0007800
F000F800
F001F800
FFFFF000
FFFFE000
FFFFF800
FFFFF800
F0007E00
F0007E00
F0001E00
F0001E00
F0000780
F0000780
F0000780
F0000780
F0000780
F0000780
F0001E00
F0001E00
F0007E00
F0007E00
FFFFF800
FFFFF800
FFFF8000
FFFF8000
ENDCHAR
STARTCHAR $0393
ENCODING 915
SWIDTH 481 0
DWIDTH 26 0
BBX 19 39 4 0
BITMAP
FFFFE0
FFFFE0
FFFFE0
FFFFE0
F00000
F00000
F00000
F00000
F00000
F00000
F00000
F00000
F00000
F00000
F00000
F00000
F00000
F00000
F00000
F00000
F00000
F00000
F00000
F00000
F00000
F00000
F00000
F00000
F00000
F00000
F00000
F00000
F00000
F00000
F00000
F00000
F00000
F00000
E00000
ENDCHAR
STARTCHAR $0394
ENCODING 916
SWIDTH 629 0
DWIDTH 33 0
BBX 33 35 0 0
BITMAP
0007E00000
0007E00000
0007E00000
0007E00000
000FF80000
000FF80000
000E780000
000E780000
000E7E0000
001E3E0000
00381E0000
00381F0000
00381F8000
00F8078000
00F8078000
00F0078000
00F0078000
00F001E000
00F001E000
03C001E000
03C001E000
03C001F800
03C001F800
0FC0007800
0FC0007800
0F00007E00
0F00007E00
3F00001E00
3F00001E00
3C00001E00
3C00001E00
3FFFFFFF80
3FFFFFFF80
FFFFFFFF80
FFFFFFFF00
ENDCHAR
STARTCHAR $0395
ENCODING 917
SWIDTH 518 0
DWIDTH 27 0
BBX 21 39 4 0
BITMAP
FFFFF8
FFFFF8
FFFFF8
FFFFF8
F00000
F00000
F00000
F00000
F00000
F00000
F00000
F00000
F00000
F00000
F00000
F00000
F00000
FFFFF8
FFFFF8
FFFFF8
FFFFF8
F00000
F00000
F00000
F00000
F00000
F00000
F00000
F00000
F00000
F00000
F00000
F00000
F00000
F00000
FFFFF8
FFFFF8
FFFFF8
FFFFF8
ENDCHAR
STARTCHAR $0396
ENCODING 918
SWIDTH 481 0
DWIDTH 26 0
BBX 25 39 0 0
BITMAP
3FFFFE00
3FFFFE00
3FFFFE00
3FFFFE00
00001E00
00001E00
00007800
00007800
00007800
00007800
0001E000
0001E000
0007E000
0007C000
00078000
000F8000
000F8000
000F0000
000E0000
003C0000
00380000
00F80000
00F80000
00F00000
00F00000
03F00000
03F00000
03C00000
03C00000
0F000000
0F000000
3F000000
3F000000
3C000000
3C000000
FFFFFF80
FFFFFF80
FFFFFF80
FFFFFF80
ENDCHAR
STARTCHAR $0397
ENCODING 919
SWIDTH 666 0
DWIDTH 35 0
BBX 27 39 4 0
BITMAP
F00001E0
F00001E0
F00001E0
F00001E0
F00001E0
F00001E0
F00001E0
F00001E0
F00001E0
F00001E0
F00001E0
F00001E0
F00001E0
F00001E0
F00001E0
F00001E0
F00001E0
FFFFFFE0
FFFFFFE0
FFFFFFE0
FFFFFFE0
F00001E0
F00001E0
F00001E0
F00001E0
F00001E0
F00001E0
F00001E0
F00001E0
F00001E0
F00001E0
F00001E0
F00001E0
F00001E0
F00001E0
F00001E0
F00001E0
F00001E0
E00000C0
ENDCHAR
STARTCHAR $0398
ENCODING 920
SWIDTH 851 0
DWIDTH 45 0
BBX 40 39 2 0
BITMAP
0001FFE000
0001FFE000
003FFFFE00
003FFFFE00
00F8001FE0
00F8001FE0
03F00001F8
03E00001F8
0F0000007E
0F0000007E
3F0000001E
3E0000001E
3C0000001F
3C0000000F
3C00000007
F000000007
F000000007
F003FFF807
F007FFF807
F007FFF807
F007FFF807
F000000007
F000000007
3C00000007
3C00000007
3C0000001F
3C0000001F
3F0000001E
3F0000001E
0FC000007E
0FC000007C
03F00001F8
03F00001F0
00F8001FE0
00FC001FC0
003FFFFE00
003FFFFC00
0007FFE000
0003FFC000
ENDCHAR
STARTCHAR $0399
ENCODING 921
SWIDTH 222 0
DWIDTH 12 0
BBX 4 39 4 0
BITMAP
F0
F0
F0
F0
F0
F0
F0
F0
F0
F0
F0
F0
F0
F0
F0
F0
F0
F0
F0
F0
F0
F0
F0
F0
F0
F0
F0
F0
F0
F0
F0
F0
F0
F0
F0
F0
F0
F0
E0
ENDCHAR
STARTCHAR $039A
ENCODING 922
SWIDTH 592 0
DWIDTH 31 0
BBX 25 39 4 0
BITMAP
F0000780
F0000780
F0001F80
F0001F80
F0007E00
F0007E00
F001F800
F001F800
F001E000
F001E000
F0078000
F0078000
F00F8000
F03F0000
F03E0000
F0FC0000
F0F80000
F0F00000
F0F00000
F3F00000
F3F00000
FF380000
FF380000
FF1E0000
FF0E0000
FC0F8000
FC0F8000
F007E000
F003E000
F001E000
F000E000
F0007800
F0007800
F0007E00
F0003E00
F0001F80
F0000F80
F0000780
E0000380
ENDCHAR
STARTCHAR $039B
ENCODING 923
SWIDTH 740 0
DWIDTH 39 0
BBX 35 39 2 0
BITMAP
0001E00000
0001E00000
0007F80000
0007F80000
0007F80000
0007F80000
000E7E0000
000E3E0000
000E1E0000
001E1E0000
003E1E0000
003E0F0000
0038078000
0038078000
0038078000
00F001E000
00F001E000
00F001E000
00F001E000
03C001F800
03C001F800
03C0007800
03C0007800
0FC0007800
0FC0007800
0F00001E00
0F00001E00
0F00001E00
0F00001E00
3C00000780
3C00000780
3C00000780
3C00000780
F0000007E0
F0000007E0
F0000001E0
F0000001E0
F0000001E0
E0000001C0
ENDCHAR
STARTCHAR $039C
ENCODING 924
SWIDTH 925 0
DWIDTH 49 0
BBX 40 39 4 0
BITMAP
FC0000007F
FC0000007F
FF0000007F
FF0000007F
FF0000007F
FF0000007F
F3C00001E7
F3C00001E7
F3C00001E7
F3C00001C7
F3C0000787
F3C0000787
F0F0000787
F0F0001F87
F0F0001F87
F078001E07
F038001E07
F038001E07
F038001E07
F01E007807
F00E007807
F00E007807
F00E007807
F00E01E007
F00E01E007
F00781E007
F00781E007
F00787E007
F00387E007
F001E78007
F001E78007
F001E78007
F001E78007
F001FE0007
F000FE0007
F0007E0007
F0007E0007
F000780007
E000380007
ENDCHAR
STARTCHAR $039D
ENCODING 925
SWIDTH 740 0
DWIDTH 39 0
BBX 31 39 4 0
BITMAP
FC00001E
FC00001E
FF00001E
FF00001E
FF00001E
FF00001E
F3C0001E
F3C0001E
F3F0001E
F3F0001E
F0F0001E
F0F0001E
F038001E
F03E001E
F03E001E
F01E001E
F00E001E
F007801E
F007801E
F007E01E
F007E01E
F001F81E
F001F81E
F000781E
F000781E
F0001E1E
F0001E1E
F0001F9E
F0001F9E
F000079E
F000079E
F00001FE
F00001FE
F00001FE
F00001FE
F000007E
F000007E
F000001E
E000001C
ENDCHAR
STARTCHAR $039E
ENCODING 926
SWIDTH 666 0
DWIDTH 35 0
BBX 31 39 2 0
BITMAP
FFFFFFFE
FFFFFFFE
FFFFFFFE
FFFFFFFE
00000000
00000000
00000000
00000000
00000000
00000000
00000000
00000000
00000000
00000000
00000000
00000000
00000000
0FFFFFE0
0FFFFFE0
0FFFFFE0
0FFFFFE0
00000000
00000000
00000000
00000000
00000000
00000000
00000000
00000000
00000000
00000000
00000000
00000000
00000000
00000000
FFFFFFFE
FFFFFFFE
FFFFFFFE
FFFFFFFC
ENDCHAR
STARTCHAR $039F
ENCODING 927
SWIDTH 851 0
DWIDTH 45 0
BBX 40 39 2 0
BITMAP
0001FFE000
0001FFE000
003FFFFE00
003FFFFE00
00F8001FE0
00F8001FE0
03F00001F8
03E00001F8
0F0000007E
0F0000007E
3F0000001E
3E0000001E
3C0000001F
3C0000000F
3C00000007
F000000007
F000000007
F000000007
F000000007
F000000007
F000000007
F000000007
F000000007
3C00000007
3C00000007
3C0000001F
3C0000001F
3F0000001E
3F0000001E
0FC000007E
0FC000007C
03F00001F8
03F00001F0
00F8001FE0
00FC001FC0
003FFFFE00
003FFFFC00
0007FFE000
0003FFC000
ENDCHAR
STARTCHAR $03A0
ENCODING 928
SWIDTH 629 0
DWIDTH 33 0
BBX 27 35 4 0
BITMAP
FFFFFFE0
FFFFFFE0
FFFFFFE0
FFFFFFE0
F00001E0
F00001E0
F00001E0
F00001E0
F00001E0
F00001E0
F00001E0
F00001E0
F00001E0
F00001E0
F00001E0
F00001E0
F00001E0
F00001E0
F00001E0
F00001E0
F00001E0
F00001E0
F00001E0
F00001E0
F00001E0
F00001E0
F00001E0
F00001E0
F00001E0
F00001E0
F00001E0
F00001E0
F00001E0
F00001E0
F00001E0
ENDCHAR
STARTCHAR $03A1
ENCODING 929
SWIDTH 592 0
DWIDTH 31 0
BBX 25 39 4 0
BITMAP
FFFFE000
FFFFE000
FFFFFE00
FFFFFE00
F0001E00
F0001E00
F0000780
F0000780
F0000780
F0000780
F0000780
F0000780
F0000780
F0000780
F0000780
F0000780
F0000780
F0003E00
F0007E00
FFFFF800
FFFFF800
FFFF8000
FFFF8000
F0000000
F0000000
F0000000
F0000000
F0000000
F0000000
F0000000
F0000000
F0000000
F0000000
F0000000
F0000000
F0000000
F0000000
F0000000
E0000000
ENDCHAR
STARTCHAR $03A3
ENCODING 931
SWIDTH 444 0
DWIDTH 24 0
BBX 23 35 0 0
BITMAP
FFFFFE
FFFFFE
FFFFFE
FFFFFE
3C0000
3C0000
3F0000
3F0000
0FC000
0FC000
03C000
03C000
03F000
01F000
00F000
007800
003800
00F800
00F800
00F000
00F000
03F000
03F000
03C000
03C000
0F0000
0F0000
3F0000
3F0000
3C0000
3C0000
FFFFFE
FFFFFE
FFFFFE
FFFFFE
ENDCHAR
STARTCHAR $03A4
ENCODING 932
SWIDTH 444 0
DWIDTH 24 0
BBX 21 39 0 0
BITMAP
FFFFF8
FFFFF8
FFFFF8
FFFFF8
003800
003800
003800
003800
003800
003800
003800
003800
003800
003800
003800
003800
003800
003800
003800
003800
003800
003800
003800
003800
003800
003800
003800
003800
003800
003800
003800
003800
003800
003800
003800
003800
003800
003800
003800
ENDCHAR
STARTCHAR $03A5
ENCODING 933
SWIDTH 592 0
DWIDTH 31 0
BBX 31 39 0 0
BITMAP
FC00007E
FC00007E
3C000078
3C000078
3F0001F8
3F0001F8
0F0001E0
0F0001E0
0FC007E0
0FC007E0
03C00780
03C00780
03F01F80
01F01F00
00F01E00
00F83C00
00F87800
00787800
00387800
003FE000
003FE000
001FE000
000FE000
00078000
00078000
00078000
00078000
00078000
00078000
00078000
00078000
00078000
00078000
00078000
00078000
00078000
00078000
00078000
00038000
ENDCHAR
STARTCHAR $03A6
ENCODING 934
SWIDTH 814 0
DWIDTH 43 0
BBX 35 39 4 0
BITMAP
0001E00000
0001E00000
0001E00000
0001E00000
0001E00000
0001E00000
0001E00000
0001E00000
003FFF8000
007FFF8000
03FFFFF800
07FFFFF800
3FC1E07F80
FC01E00F80
FC01E00780
F001E003C0
F001E001E0
F001E001E0
F001E001E0
F001E001E0
F001E001E0
F001E001E0
F001E001E0
FC01E00780
FC01E00780
3FC1E07F80
3FC1E07F80
0FFFFFF800
0FFFFFF800
003FFF8000
003FFF8000
0001E00000
0001E00000
0001E00000
0001E00000
0001E00000
0001E00000
0001E00000
0000E00000
ENDCHAR
STARTCHAR $03A7
ENCODING 935
SWIDTH 592 0
DWIDTH 31 0
BBX 29 39 2 0
BITMAP
F00001E0
F00001E0
3C0007E0
3C0007E0
3F000780
3F000780
0F001F80
0F001F80
03C01E00
03C01E00
03F07800
03F07800
00F1F800
00F9F000
00F9E000
007FC000
003F8000
001F8000
000F8000
003F8000
003F8000
003FE000
003FE000
00FDE000
00F9E000
00F07800
00F07800
03C07E00
03C07E00
0FC01E00
0FC01E00
0F000780
0F000780
3C0007E0
3C0007E0
FC0001E0
F80001E0
F0000078
E0000030
ENDCHAR
STARTCHAR $03A8
ENCODING 936
SWIDTH 777 0
DWIDTH 41 0
BBX 35 39 4 0
BITMAP
F001E001E0
F001E001E0
F001E001E0
F001E001E0
F001E001E0
F001E001E0
F001E001E0
F001E001E0
F001E001E0
F001E001E0
F001E001E0
F001E001E0
F001E001E0
F001E007E0
F001E007E0
F801E00780
FC01E00780
3C01E01F80
3C01E01F80
3F01E07E00
3F01E07E00
0FE1E1F800
0FF1E1F800
00FFFFE000
00FFFFE000
003FFE0000
003FFE0000
0001E00000
0001E00000
0001E00000
0001E00000
0001E00000
0001E00000
0001E00000
0001E00000
0001E00000
0001E00000
0001E00000
0000E00000
ENDCHAR
STARTCHAR $03A9
ENCODING 937
SWIDTH 814 0
DWIDTH 43 0
BBX 39 37 2 0
BITMAP
0007FF8000
0007FF8000
003FFFF800
003FFFF800
03FE01FE00
03FE01FE00
0FC0001F80
0F80001F80
0F000007E0
0E000007E0
3C000001F8
3C000001F8
3C00000078
F000000078
F000000078
F00000007C
F00000007E
F00000007E
F00000007E
F00000007E
F00000007E
F000000078
F000000078
FC00000078
FC00000078
3C000001F8
3C000001F8
3F000001E0
3F000001E0
0FC00007E0
0FC00007E0
03F8007F80
03FC007F80
3FFE01FFE0
3FFE01FFE0
3FFE01FFE0
3FFE01FFC0
ENDCHAR
STARTCHAR $03B1
ENCODING 945
SWIDTH 703 0
DWIDTH 37 0
BBX 29 29 4 0
BITMAP
00FF8078
00FF8078
03FFF878
03FFF878
0FC079E0
0F8079E0
3C001FE0
3C001FE0
FC001FE0
F8000FE0
F00007E0
F00007E0
F0000780
F0000780
F0000780
F0000780
F0000780
F0000F80
F0001F80
F0001F80
F0001F80
3C001FE0
3C001FE0
3FC079E0
3FC079E0
03FFE078
03FFE078
00FF8018
00FF8018
ENDCHAR
STARTCHAR $03B2
ENCODING 946
SWIDTH 481 0
DWIDTH 26 0
BBX 19 50 2 -9
BITMAP
00FE00
00FE00
0FFF80
0FFF80
0F0780
0F0380
3C01E0
3C01E0
3C01E0
3C01E0
3C01E0
3C01E0
3C01E0
3C03E0
3C07E0
3C0FC0
3C0F80
3CFF00
3CFE00
3CFE00
3CFE00
3C1F80
3C0F80
3C07E0
3C07E0
3C01E0
3C01E0
3C01E0
3C01E0
3C01E0
3C01E0
3C01E0
3C01E0
3C01E0
3C01E0
3F07E0
3F07E0
3FFF80
3FFF80
3FFE00
3C0000
3C0000
3C0000
3C0000
3C0000
3C0000
F00000
F00000
F00000
F00000
ENDCHAR
STARTCHAR $03B3
ENCODING 947
SWIDTH 481 0
DWIDTH 26 0
BBX 27 37 0 -8
BITMAP
FC0001E0
FC0001E0
3F0001E0
3F0001E0
0FC00780
0FC00780
03C00780
03C00780
03F01F80
03F01F80
00F01E00
00F01E00
00F81E00
00783C00
00387800
00387800
00387800
003FF800
003FF800
001FE000
000FE000
000FE000
000FE000
000F8000
000F8000
000F8000
000F8000
000E0000
000E0000
000E0000
000E0000
000E0000
000E0000
000E0000
000E0000
000E0000
000E0000
ENDCHAR
STARTCHAR $03B4
ENCODING 948
SWIDTH 703 0
DWIDTH 37 0
BBX 29 39 4 0
BITMAP
0FFFFF80
0FFFFF80
0FFFFF80
0FFFFF80
03F00000
03F00000
00FE0000
00FF0000
000F8000
001FC000
00FFF800
01FFFC00
03FFFE00
0F001F80
0F001F80
3C0001E0
3C0001E0
F00001F8
F00001F8
F0000078
F0000078
F0000078
F0000078
F0000078
F0000078
F0000078
F0000078
F0000078
F0000078
FC0001F8
FC0001F8
3C0001E0
3C0001E0
0FC01F80
0FC01F80
03FFFE00
03FFFE00
003FE000
003FE000
ENDCHAR
STARTCHAR $03B5
ENCODING 949
SWIDTH 481 0
DWIDTH 26 0
BBX 19 33 4 -2
BITMAP
03FE00
03FE00
3FFFE0
3FFFE0
3C01E0
3C00E0
F00000
F00000
F00000
F00000
F00000
F00000
3C0000
3FF800
3FF800
3FF800
3FF800
FC0000
FC0000
F00000
F00000
F00000
F00000
F00000
F00000
F00000
F00000
3F01E0
3F01E0
3FFFE0
3FFFE0
03FE00
03FE00
ENDCHAR
STARTCHAR $03B6
ENCODING 950
SWIDTH 407 0
DWIDTH 22 0
BBX 15 48 4 -9
BITMAP
FFFE
FFFE
FFFE
FFFE
00F0
00E0
03C0
0380
0F00
0F00
0F00
1E00
3C00
3C00
3C00
F000
F000
F000
F000
F000
F000
F000
F000
F000
F000
F000
F000
F000
F000
F000
F000
F000
F000
3C00
3C00
3FF0
3FF0
0FF8
0FF8
0038
001E
000E
000E
000E
000E
000E
000E
000E
ENDCHAR
STARTCHAR $03B7
ENCODING 951
SWIDTH 592 0
DWIDTH 31 0
BBX 25 39 4 -10
BITMAP
F0FF8000
F0FF8000
FFFFF800
FFFFF800
FF007E00
FF007E00
FC001E00
FC001E00
F0001E00
F0000E00
F0000780
F0000780
F0000780
F0000780
F0000780
F0000780
F0000780
F0000780
F0000780
F0000780
F0000780
F0000780
F0000780
F0000780
F0000780
F0000780
F0000780
F0000780
F0000780
00000780
00000780
00000780
00000780
00000780
00000780
00000780
00000780
00000780
00000380
ENDCHAR
STARTCHAR $03B8
ENCODING 952
SWIDTH 555 0
DWIDTH 29 0
BBX 21 39 4 0
BITMAP
03FE00
03FE00
0FFF80
0FFF80
3F07E0
3F03E0
3C01E0
3C01E0
F001E0
F000F0
F00078
F00078
F00078
F00078
F00078
F00078
F00078
FFFFF8
FFFFF8
FFFFF8
FFFFF8
F00078
F00078
F00078
F00078
F00078
F00078
F00078
F00078
F001E0
F001E0
3C01E0
3C01E0
3F0780
3F0780
0FFF80
0FFF80
03F800
03F800
ENDCHAR
STARTCHAR $03B9
ENCODING 953
SWIDTH 333 0
DWIDTH 18 0
BBX 8 29 6 0
BITMAP
F0
F0
F0
F0
F0
F0
F0
F0
F0
F0
F0
F0
F0
F0
F0
F0
F0
F0
F0
30
30
3C
3C
3C
3C
3F
3F
0F
0F
ENDCHAR
STARTCHAR $03BA
ENCODING 954
SWIDTH 518 0
DWIDTH 27 0
BBX 21 29 4 0
BITMAP
F001F8
F001F8
F007E0
F007E0
F00780
F00780
F00E00
F01E00
F03E00
F07E00
F0F800
F0F800
F0F000
F3C000
F3C000
FFE000
FFF000
FFF800
FFF800
FC7E00
FC3E00
F01F80
F00F80
F00780
F00780
F001E0
F001E0
F001F8
F001F8
ENDCHAR
STARTCHAR $03BB
ENCODING 955
SWIDTH 592 0
DWIDTH 31 0
BBX 25 39 4 0
BITMAP
0F000000
0F000000
0FF00000
0FF00000
00F80000
00F80000
00380000
003C0000
000E0000
000E0000
000E0000
000E0000
000E0000
000F8000
000F8000
003F8000
003F8000
003F8000
003F8000
00FDE000
00F9E000
00F1E000
00F1E000
03F1E000
03F1E000
03C07800
03C07800
0FC07800
0FC07800
0F007800
0F007800
3F007E00
3F003E00
3C001E00
3C001E00
FC001E00
F8001E00
F0001F80
E0000F80
ENDCHAR
STARTCHAR $03BC
ENCODING 956
SWIDTH 592 0
DWIDTH 31 0
BBX 25 39 4 -10
BITMAP
F0000780
F0000780
F0000780
F0000780
F0000780
F0000780
F0000780
F0000780
F0000780
F0000780
F0000780
F0000780
F0000780
F0000780
F0000780
F0000780
F0000780
F0000780
F0000780
F0001F80
F0001F80
FC001F80
FC001F80
FF007F80
FF007F80
F3FFE780
F3FFE780
F0FF8780
F0FF8780
F0000000
F0000000
F0000000
F0000000
F0000000
F0000000
F0000000
F0000000
F0000000
E0000000
ENDCHAR
STARTCHAR $03BD
ENCODING 957
SWIDTH 481 0
DWIDTH 26 0
BBX 21 29 2 0
BITMAP
F001E0
F001E0
F001E0
F001E0
FC0078
FC0078
3C0078
3C0078
3C0078
3C0078
3C0078
3C0078
0F0078
0F00F0
0F01E0
0F01E0
0F01E0
0F81E0
0FC1E0
03C3C0
03C780
03CF80
03CF80
03FE00
03FE00
00FC00
00F800
00F000
00E000
ENDCHAR
STARTCHAR $03BE
ENCODING 958
SWIDTH 407 0
DWIDTH 22 0
BBX 13 48 4 -9
BITMAP
FFF8
FFF8
FFF8
FFF8
3C00
3C00
F000
F000
F000
F000
F000
F000
FC00
7E00
3F00
0FE0
0FF0
0FF0
0FF0
3F00
3F00
FC00
FC00
F000
F000
F000
F000
F000
F000
F000
F000
F000
F000
FC00
FC00
3FF0
3FF0
0FF0
0FF0
0038
0038
0038
0038
0038
0038
0038
0038
0038
ENDCHAR
STARTCHAR $03BF
ENCODING 959
SWIDTH 666 0
DWIDTH 35 0
BBX 31 29 2 0
BITMAP
003FF800
003FF800
03FFFF80
03FFFF80
0FC007E0
0F8007E0
3F0001F8
3E0001F8
3C000078
3C000078
FC000078
F8000078
F000007E
F000003E
F000001E
F0000078
F0000078
FC000078
FC000078
3C000078
3C000078
3F0001E0
3F0001E0
0FC007E0
0FC007E0
03FFFF80
03FFFF80
003FF800
003FF800
ENDCHAR
STARTCHAR $03C0
ENCODING 960
SWIDTH 666 0
DWIDTH 35 0
BBX 27 29 4 0
BITMAP
FFFFFFE0
FFFFFFE0
FFFFFFE0
FFFFFFE0
0F001E00
0F001E00
0F001E00
0F001E00
0F001E00
0F001E00
0F001E00
0F001E00
0F001E00
0F001E00
0F001E00
0F001E00
0F001E00
0F001E00
0F001E00
0F001E00
0F001E00
0F001E00
0F001E00
0F001E00
0F001E00
0F000780
0F000780
0F000180
0F000180
ENDCHAR
STARTCHAR $03C1
ENCODING 961
SWIDTH 592 0
DWIDTH 31 0
BBX 25 37 4 -8
BITMAP
00FF8000
00FF8000
0FFFE000
0FFFE000
3F01F800
3F00F800
3C007E00
3C003E00
F0001E00
F0001E00
F0001E00
F0000F00
F0000780
F0000780
F0000780
F0000780
F0000780
F0000E00
F0001E00
F0001E00
F0001E00
F0007E00
F0007E00
FF01F800
FF01F800
FFFFE000
FFFFE000
F0FE0000
F0FE0000
F0000000
F0000000
F0000000
F0000000
F0000000
F0000000
F0000000
F0000000
ENDCHAR
STARTCHAR $03C2
ENCODING 962
SWIDTH 555 0
DWIDTH 29 0
BBX 21 39 4 -10
BITMAP
00FE00
00FE00
0FFF80
0FFF80
3F01E0
3F00E0
3C0078
3C0078
F00060
F00020
F00000
F00000
F00000
F00000
F00000
F00000
F00000
F00000
F00000
F00000
F00000
3C0000
3C0000
3F0000
3F0000
0FFF80
0FFF80
00FFE0
00FFE0
0001F8
0000F8
000078
000078
000078
000078
000078
000078
000078
000038
ENDCHAR
STARTCHAR $03C3
ENCODING 963
SWIDTH 740 0
DWIDTH 39 0
BBX 33 31 4 0
BITMAP
0000001F80
0000001F80
003FFFFF80
003FFFFF80
03FFFF8000
03FFFF8000
0FC01F8000
0F801F8000
3C0007E000
3C0007E000
FC0001F800
F80000F800
F000007800
F000007800
F000007800
F000007800
F000007800
F000007800
F000007800
F000007800
F000007800
FC0001F800
FC0001F800
3C0001E000
3C0001E000
0FC01F8000
0FC01F8000
03FFFE0000
03FFFE0000
003FE00000
003FE00000
ENDCHAR
STARTCHAR $03C4
ENCODING 964
SWIDTH 481 0
DWIDTH 26 0
BBX 17 29 4 0
BITMAP
FFFF80
FFFF80
FFFF80
FFFF80
03C000
03C000
03C000
03C000
03C000
03C000
03C000
03C000
03C000
03C000
03C000
03C000
03C000
03E000
03F000
00F000
00F000
00F000
00F000
003800
003800
003F80
003F80
000780
000380
ENDCHAR
STARTCHAR $03C5
ENCODING 965
SWIDTH 555 0
DWIDTH 29 0
BBX 21 29 4 0
BITMAP
F001E0
F001E0
F001F8
F001F8
F00078
F00078
F00078
F00078
F00078
F00078
F00078
F00078
F00078
F00078
F00078
F00078
F00078
F00078
F00078
F000F8
F001F8
F001E0
F001E0
FC03E0
FC07E0
3FFF80
3FFF80
03F800
03F800
ENDCHAR
STARTCHAR $03C6
ENCODING 966
SWIDTH 703 0
DWIDTH 37 0
BBX 29 37 4 -8
BITMAP
03007F80
03007F80
0F01FFE0
0F01FFE0
3F07E1E0
3F07E1E0
3C078078
3C078078
F0078078
F0078078
F0078078
F0078078
F0078078
F0078078
F0078078
F00F8078
F00F8078
F00F8078
F00F8078
FC0F81F8
FC0F81F8
3F0F81E0
3F0F81E0
0FCF9F80
0FCF9F80
03FFFE00
03FFFE00
00FFE000
00FFE000
000F8000
000F8000
000F8000
000F8000
000F8000
000F8000
000F8000
000F8000
ENDCHAR
STARTCHAR $03C7
ENCODING 967
SWIDTH 555 0
DWIDTH 29 0
BBX 21 37 4 -8
BITMAP
F00078
F00078
FC01F8
FC01F8
3C01E0
3C01E0
3F01E0
3F01E0
0F0780
0F0780
0FC780
0FC780
03CE00
03FE00
03FE00
01FC00
00F800
00F800
00F800
00F800
00F800
00FE00
00FE00
03DE00
03CE00
03CF80
03CF80
0F0780
0F0780
0F07E0
0F03E0
3C01E0
3C01E0
3C01F8
3C00F8
F00078
F00038
ENDCHAR
STARTCHAR $03C8
ENCODING 968
SWIDTH 703 0
DWIDTH 37 0
BBX 29 46 4 -7
BITMAP
00078000
00078000
00078000
00078000
00078000
00078000
00078000
00078000
00078000
00078000
F0078078
F0078078
F0078078
F0078078
F0078078
F0078078
F0078078
F0078078
F0078078
F0078078
F0078078
F0078078
F0078078
F0078078
F0078078
F0078078
F0078078
F0078078
F0078078
F0078078
F0078078
F0078078
F0078078
3F0787E0
3F07C7E0
0FFFFF80
0FFFFF80
00FFF800
00FFF800
00078000
00078000
00078000
00078000
00078000
00078000
00078000
ENDCHAR
STARTCHAR $03C9
ENCODING 969
SWIDTH 703 0
DWIDTH 37 0
BBX 31 29 4 0
BITMAP
F0000078
F0000078
F0000078
F0000078
F0000078
F0000078
F000001E
F000001E
F000001E
F000001E
F007801E
F007801E
F007801E
F007801E
F007801E
F007801E
F007801E
F007801E
F007801E
F0078018
F0078018
F00F8078
F00F8078
3C0FE078
3C0FE078
3FFDFFE0
3FF9FFE0
0FF07F80
0FE07F80
ENDCHAR
STARTCHAR $03D1
ENCODING 977
SWIDTH 592 0
DWIDTH 31 0
BBX 23 40 4 1
BITMAP
03FE00
03FE00
0FFF80
0FFF80
3C07E0
3C03E0
F001E0
F000E0
F00078
F00078
F00078
F00078
FC0078
7F8078
3FC078
0FFFFE
0FFFFE
001FFE
000FFE
000078
000078
F00078
F00078
F00078
F00078
F00078
F00078
F00078
F00078
F00078
F00078
F00078
F00078
FC01E0
FC01E0
3F07E0
3F07E0
0FFF80
0FFF80
03FE00
ENDCHAR
STARTCHAR $03D5
ENCODING 981
SWIDTH 666 0
DWIDTH 35 0
BBX 31 46 2 -7
BITMAP
00078000
00078000
00078000
00078000
00078000
00078000
00078000
00078000
00078000
0007C000
003FF800
007FFC00
03FFFF80
0FC7C7C0
0FC787E0
3F0781E0
3F0781E0
3C078078
3C078078
F0078078
F0078078
F007807E
F007807E
F007801E
F007801E
F0078078
F0078078
FC078078
FC078078
3C078078
3C078078
3F0781F8
3F0781F8
0FC787E0
0FC7C7E0
03FFFF80
03FFFF80
003FF800
003FF800
00078000
00078000
00078000
00078000
00078000
00078000
00078000
ENDCHAR
STARTCHAR $03D6
ENCODING 982
SWIDTH 703 0
DWIDTH 37 0
BBX 31 39 4 0
BITMAP
003FE000
003FE000
0FFFFE00
0FFFFE00
0FC01F80
0F801F80
000001E0
000001E0
000001E0
000001E0
F0000078
F0000078
F0000078
F0000078
F0000078
F0000078
F0000078
F000001E
F000001E
F003801E
F007801E
F007801E
F007801E
F007801E
F007801E
F007801E
F007801E
F007801E
F007801E
F0078018
F0078018
F00F8078
F00FC078
3C0FE078
3C1FF078
3FF9FFE0
3FF8FFE0
0FF07F80
0FE03F80
ENDCHAR
STARTCHAR $03F0
ENCODING 1008
SWIDTH 592 0
DWIDTH 31 0
BBX 27 29 2 0
BITMAP
30000180
30000180
3F0007E0
3F0007E0
0F0007E0
0F0007E0
0FC01F80
0FC01F80
03C01F80
03C01F80
03C07E00
03C07E00
03C7FE00
03FFFC00
03FFF800
03FC7800
03F87800
0FC07800
0FC07800
0F001E00
0F001E00
3F001E00
3F001E00
3F001F80
3F001F80
FC0007E0
FC0007E0
3C0001E0
3C0001E0
ENDCHAR
STARTCHAR $03F1
ENCODING 1009
SWIDTH 703 0
DWIDTH 37 0
BBX 29 40 4 -11
BITMAP
003FE000
003FE000
03FFFE00
03FFFE00
0FC01F80
0F801F80
3C0007E0
3C0007E0
FC0001F8
F80001F8
F0000078
F0000078
F0000078
F0000078
F0000078
F0000078
F0000078
F0000078
F0000078
FC0001F8
FC0001F8
FC0001E0
FC0001E0
FFC01F80
FFC01F80
3FFFFE00
3FFFFE00
3F3FE000
3F3FE000
0FC00000
0FC00000
03F00000
03F00000
00FFE000
00FFF000
000FFF80
000FFF80
000007E0
000003E0
00000078
ENDCHAR
STARTCHAR $03F4
ENCODING 1012
SWIDTH 814 0
DWIDTH 43 0
BBX 40 39 2 0
BITMAP
0001FFE000
0001FFE000
003FFFFE00
003FFFFE00
00F8001FE0
00F8001FE0
03F00001F8
03E00001F8
0F0000007E
0F0000007E
3F0000001E
3E0000001E
3C0000001F
3C0000000F
3C00000007
F000000007
F000000007
FFFFFFFFFF
FFFFFFFFFF
FFFFFFFFFF
FFFFFFFFFF
F00000000F
F000000007
3C00000007
3C00000007
3C0000001F
3C0000001F
3F0000001E
3F0000001E
0FC000007E
0FC000007C
03F00001F8
03F00001F0
00F8001FE0
00FC001FC0
003FFFFE00
003FFFFC00
0007FFE000
0003FFC000
ENDCHAR
STARTCHAR $03F5
ENCODING 1013
SWIDTH 629 0
DWIDTH 33 0
BBX 29 29 2 0
BITMAP
003FF800
003FF800
03FFFF80
03FFFF80
0FC007E0
0F8007E0
3F0001F8
3E0001F8
3C000000
38000000
F0000000
F0000000
FFFFF800
FFFFF800
FFFFF800
F0000000
F0000000
FC000000
FC000000
3C000000
3C000000
3F0001F8
3F0001F8
0FC007E0
0FC007E0
03FFFF80
03FFFF80
003FF800
003FF800
ENDCHAR
STARTCHAR $0E3F
ENCODING 3647
SWIDTH 592 0
DWIDTH 31 0
BBX 25 46 4 -3
BITMAP
00380000
00380000
00380000
003C0000
FFFE0000
FFFF0000
FFFFE000
FFFFE000
F001F800
F000F800
F0007800
F0007C00
F0007E00
F0001E00
F0001E00
F0003C00
F0007800
F0007800
F0007800
F000F800
F001F800
FFFFE000
FFFFE000
FFFFF800
FFFFF800
F0007E00
F0007E00
F0001E00
F0001E00
F0000780
F0000780
F0000780
F0000780
F0000780
F0000780
F0001E00
F0001E00
F0007E00
F0007E00
FFFFF800
FFFFC000
FFFF8000
007C0000
00380000
00380000
00380000
ENDCHAR
STARTCHAR $1E0C
ENCODING 7692
SWIDTH 740 0
DWIDTH 39 0
BBX 33 48 4 -9
BITMAP
FFFFE00000
FFFFE00000
FFFFFE0000
FFFFFE0000
F0001FE000
F0001FE000
F00001F800
F00001F800
F000007800
F000007800
F000001E00
F000001E00
F000001E00
F000000F00
F000000780
F000000780
F000000780
F000000780
F000000780
F000000780
F000000780
F000000780
F000000780
F000000780
F000000780
F000001E00
F000001E00
F000001E00
F000001E00
F000007800
F000007800
F00001F800
F00001F800
F0001FE000
F0001FE000
FFFFFE0000
FFFFFE0000
FFFFE00000
FFFFE00000
0000000000
0000000000
0000000000
0038000000
0038000000
0038000000
0038000000
0038000000
0038000000
ENDCHAR
STARTCHAR $1E0D
ENCODING 7693
SWIDTH 703 0
DWIDTH 37 0
BBX 31 46 2 -7
BITMAP
0000001E
0000001E
0000001E
0000001E
0000001E
0000001E
0000001E
0000001E
0000001E
0000001E
003FF81E
007FFC1E
03FFFF9E
0FC007FE
0FC007FE
3F0001FE
3F0001FE
3C00007E
3C00007E
FC00007E
FC00007E
F000001E
F000001E
F000001E
F000001E
F000001E
F000001E
FC00001E
FC00001E
3C00007E
3C00007E
3F0001FE
3F0001FE
0FC0079E
0FC0079E
03FFFE1E
03FFFE1E
003FF81E
003FF81C
00000000
00038000
00078000
00078000
00078000
00078000
00078000
ENDCHAR
STARTCHAR $1E0E
ENCODING 7694
SWIDTH 740 0
DWIDTH 39 0
BBX 33 46 4 -7
BITMAP
FFFFE00000
FFFFE00000
FFFFFE0000
FFFFFE0000
F0001FE000
F0001FE000
F00001F800
F00001F800
F000007800
F000007800
F000001E00
F000001E00
F000001E00
F000000F00
F000000780
F000000780
F000000780
F000000780
F000000780
F000000780
F000000780
F000000780
F000000780
F000000780
F000000780
F000001E00
F000001E00
F000001E00
F000001E00
F000007800
F000007800
F00001F800
F00001F800
F0001FE000
F0001FE000
FFFFFE0000
FFFFFE0000
FFFFE00000
FFFFE00000
0000000000
0000000000
0000000000
3FFFF80000
3FFFF80000
3FFFF80000
3FFFF80000
ENDCHAR
STARTCHAR $1E0F
ENCODING 7695
SWIDTH 703 0
DWIDTH 37 0
BBX 31 46 2 -7
BITMAP
0000001E
0000001E
0000001E
0000001E
0000001E
0000001E
0000001E
0000001E
0000001E
0000001E
003FF81E
007FFC1E
03FFFF9E
0FC007FE
0FC007FE
3F0001FE
3F0001FE
3C00007E
3C00007E
FC00007E
FC00007E
F000001E
F000001E
F000001E
F000001E
F000001E
F000001E
FC00001E
FC00001E
3C00007E
3C00007E
3F0001FE
3F0001FE
0FC0079E
0FC0079E
03FFFE1E
03FFFE1E
003FF81E
003FF81C
00000000
00000000
00000000
00FFFF80
00FFFF80
00FFFF80
00FFFF80
ENDCHAR
STARTCHAR $1E24
ENCODING 7716
SWIDTH 666 0
DWIDTH 35 0
BBX 27 48 4 -9
BITMAP
F00001E0
F00001E0
F00001E0
F00001E0
F00001E0
F00001E0
F00001E0
F00001E0
F00001E0
F00001E0
F00001E0
F00001E0
F00001E0
F00001E0
F00001E0
F00001E0
F00001E0
FFFFFFE0
FFFFFFE0
FFFFFFE0
FFFFFFE0
F00001E0
F00001E0
F00001E0
F00001E0
F00001E0
F00001E0
F00001E0
F00001E0
F00001E0
F00001E0
F00001E0
F00001E0
F00001E0
F00001E0
F00001E0
F00001E0
F00001E0
E00000C0
00000000
00000000
00000000
000E0000
000E0000
000E0000
000E0000
000E0000
000E0000
ENDCHAR
STARTCHAR $1E25
ENCODING 7717
SWIDTH 592 0
DWIDTH 31 0
BBX 25 48 4 -9
BITMAP
F0000000
F0000000
F0000000
F0000000
F0000000
F0000000
F0000000
F0000000
F0000000
F0000000
F0FF8000
F1FFC000
FFFFF800
FF007E00
FF007E00
FC001E00
FC001E00
F0001E00
F0001E00
F0000780
F0000780
F0000780
F0000780
F0000780
F0000780
F0000780
F0000780
F0000780
F0000780
F0000780
F0000780
F0000780
F0000780
F0000780
F0000780
F0000780
F0000780
F0000780
E0000380
00000000
00000000
00000000
00380000
00380000
00380000
00380000
00380000
00380000
ENDCHAR
STARTCHAR $1E26
ENCODING 7718
SWIDTH 666 0
DWIDTH 35 0
BBX 27 48 4 1
BITMAP
00F1E000
00F1E000
00F1E000
00F1E000
00F1E000
00E0E000
00000000
00000000
00000000
00000000
F00001E0
F00001E0
F00001E0
F00001E0
F00001E0
F00001E0
F00001E0
F00001E0
F00001E0
F00001E0
F00001E0
F00001E0
F00001E0
F00001E0
F00001E0
F00001E0
F00001E0
FFFFFFE0
FFFFFFE0
FFFFFFE0
FFFFFFE0
F00001E0
F00001E0
F00001E0
F00001E0
F00001E0
F00001E0
F00001E0
F00001E0
F00001E0
F00001E0
F00001E0
F00001E0
F00001E0
F00001E0
F00001E0
F00001E0
F00001E0
ENDCHAR
STARTCHAR $1E27
ENCODING 7719
SWIDTH 592 0
DWIDTH 31 0
BBX 25 48 4 1
BITMAP
03C78000
03C78000
03C78000
03C78000
03C78000
03838000
00000000
00000000
00000000
00000000
F0000000
F0000000
F0000000
F0000000
F0000000
F0000000
F0000000
F0000000
F0000000
F0FF8000
F0FF8000
FFFFF800
FFFFF800
FF007E00
FF007E00
FC001E00
FC001E00
F0001E00
F0001E00
F0000780
F0000780
F0000780
F0000780
F0000780
F0000780
F0000780
F0000780
F0000780
F0000780
F0000780
F0000780
F0000780
F0000780
F0000780
F0000780
F0000780
F0000780
F0000780
ENDCHAR
STARTCHAR $1E2A
ENCODING 7722
SWIDTH 666 0
DWIDTH 35 0
BBX 27 48 4 -9
BITMAP
F00001E0
F00001E0
F00001E0
F00001E0
F00001E0
F00001E0
F00001E0
F00001E0
F00001E0
F00001E0
F00001E0
F00001E0
F00001E0
F00001E0
F00001E0
F00001E0
F00001E0
FFFFFFE0
FFFFFFE0
FFFFFFE0
FFFFFFE0
F00001E0
F00001E0
F00001E0
F00001E0
F00001E0
F00001E0
F00001E0
F00001E0
F00001E0
F00001E0
F00001E0
F00001E0
F00001E0
F00001E0
F00001E0
F00001E0
F00001E0
E00000C0
00000000
00000000
00000000
03803800
03C07800
01FFF800
00FFF800
007FE000
003FE000
ENDCHAR
STARTCHAR $1E2B
ENCODING 7723
SWIDTH 592 0
DWIDTH 31 0
BBX 25 48 4 -9
BITMAP
F0000000
F0000000
F0000000
F0000000
F0000000
F0000000
F0000000
F0000000
F0000000
F0000000
F0FF8000
F1FFC000
FFFFF800
FF007E00
FF007E00
FC001E00
FC001E00
F0001E00
F0001E00
F0000780
F0000780
F0000780
F0000780
F0000780
F0000780
F0000780
F0000780
F0000780
F0000780
F0000780
F0000780
F0000780
F0000780
F0000780
F0000780
F0000780
F0000780
F0000780
E0000380
00000000
00000000
00000000
0E00E000
0F01E000
03FFE000
03FFE000
00FF8000
00FF8000
ENDCHAR
STARTCHAR $1E2E
ENCODING 7726
SWIDTH 222 0
DWIDTH 12 0
BBX 13 58 0 2
BITMAP
00F8
00F8
03F0
03E0
3F00
3F00
0C00
0C00
0000
0000
F0F0
F0F0
F0F0
F0F0
F0F0
0000
0000
0000
0000
0F00
0F00
0F00
0F00
0F00
0F00
0F00
0F00
0F00
0F00
0F00
0F00
0F00
0F00
0F00
0F00
0F00
0F00
0F00
0F00
0F00
0F00
0F00
0F00
0F00
0F00
0F00
0F00
0F00
0F00
0F00
0F00
0F00
0F00
0F00
0F00
0F00
0F00
0F00
ENDCHAR
STARTCHAR $1E2F
ENCODING 7727
SWIDTH 185 0
DWIDTH 10 0
BBX 13 50 0 1
BITMAP
0030
0030
03F8
03F8
0FC0
0F80
3C00
3C00
3000
3000
0000
0000
F0F0
F0F0
F0F0
F0F0
F0F0
0000
0000
0000
0000
0F00
0F00
0F00
0F00
0F00
0F00
0F00
0F00
0F00
0F00
0F00
0F00
0F00
0F00
0F00
0F00
0F00
0F00
0F00
0F00
0F00
0F00
0F00
0F00
0F00
0F00
0F00
0F00
0F00
ENDCHAR
STARTCHAR $1E36
ENCODING 7734
SWIDTH 444 0
DWIDTH 24 0
BBX 19 48 4 -9
BITMAP
F00000
F00000
F00000
F00000
F00000
F00000
F00000
F00000
F00000
F00000
F00000
F00000
F00000
F00000
F00000
F00000
F00000
F00000
F00000
F00000
F00000
F00000
F00000
F00000
F00000
F00000
F00000
F00000
F00000
F00000
F00000
F00000
F00000
F00000
F00000
FFFFE0
FFFFE0
FFFFE0
FFFFE0
000000
000000
000000
00E000
00F000
00F000
00F000
00F000
00F000
ENDCHAR
STARTCHAR $1E37
ENCODING 7735
SWIDTH 185 0
DWIDTH 10 0
BBX 4 48 4 -9
BITMAP
F0
F0
F0
F0
F0
F0
F0
F0
F0
F0
F0
F0
F0
F0
F0
F0
F0
F0
F0
F0
F0
F0
F0
F0
F0
F0
F0
F0
F0
F0
F0
F0
F0
F0
F0
F0
F0
F0
E0
00
00
00
F0
F0
F0
F0
F0
F0
ENDCHAR
STARTCHAR $1E38
ENCODING 7736
SWIDTH 444 0
DWIDTH 24 0
BBX 27 56 -4 -10
BITMAP
FFFFE000
FFFFE000
FFFFE000
FFFFE000
00000000
00000000
00000000
00000000
00F00000
00F00000
00F00000
00F00000
00F00000
00F00000
00F00000
00F00000
00F00000
00F00000
00F00000
00F00000
00F00000
00F00000
00F00000
00F00000
00F00000
00F00000
00F00000
00F00000
00F00000
00F00000
00F00000
00F00000
00F00000
00F00000
00F00000
00F00000
00F00000
00F00000
00F00000
00F00000
00F00000
00F00000
00FFFFE0
00FFFFE0
00FFFFE0
00FFFFE0
00000000
00000000
00000000
00000000
0001E000
0001E000
0001E000
0001E000
0001E000
0001E000
ENDCHAR
STARTCHAR $1E39
ENCODING 7737
SWIDTH 185 0
DWIDTH 10 0
BBX 17 56 -4 -10
BITMAP
FFFF80
FFFF80
FFFF80
FFFF80
000000
000000
000000
000000
00F000
00F000
00F000
00F000
00F000
00F000
00F000
00F000
00F000
00F000
00F000
00F000
00F000
00F000
00F000
00F000
00F000
00F000
00F000
00F000
00F000
00F000
00F000
00F000
00F000
00F000
00F000
00F000
00F000
00F000
00F000
00F000
00F000
00F000
00F000
00F000
00F000
00F000
000000
000000
000000
000000
00F000
00F000
00F000
00F000
00F000
00E000
ENDCHAR
STARTCHAR $1E42
ENCODING 7746
SWIDTH 925 0
DWIDTH 49 0
BBX 40 48 4 -9
BITMAP
FC0000007F
FC0000007F
FF0000007F
FF0000007F
FF0000007F
FF0000007F
F3C00001E7
F3C00001E7
F3C00001E7
F3C00001C7
F3C0000787
F3C0000787
F0F0000787
F0F0001F87
F0F0001F87
F078001E07
F038001E07
F038001E07
F038001E07
F01E007807
F00E007807
F00E007807
F00E007807
F00E01E007
F00E01E007
F00781E007
F00781E007
F00787E007
F00387E007
F001E78007
F001E78007
F001E78007
F001E78007
F001FE0007
F000FE0007
F0007E0007
F0007E0007
F000780007
E000380007
0000000000
0000000000
0000000000
0000380000
0000780000
0000780000
0000780000
0000780000
0000780000
ENDCHAR
STARTCHAR $1E43
ENCODING 7747
SWIDTH 925 0
DWIDTH 49 0
BBX 42 39 4 -10
BITMAP
F3FE007FE000
F3FE007FE000
FFFFE1FFFE00
FFFFE1FFFE00
FC01FF801F00
FC00FF801F00
F0007E000700
F0007E000700
F0007E000700
F0003E000780
F0001E0001C0
F0001E0001C0
F0001E0001C0
F0001E0001C0
F0001E0001C0
F0001E0001C0
F0001E0001C0
F0001E0001C0
F0001E0001C0
F0001E0001C0
F0001E0001C0
F0001E0001C0
F0001E0001C0
F0001E0001C0
F0001E0001C0
F0001E0001C0
F0001E0001C0
F0001E0001C0
F0001E0001C0
000000000000
000000000000
000000000000
000000000000
00001E000000
00001E000000
00001E000000
00001E000000
00001E000000
00000E000000
ENDCHAR
STARTCHAR $1E44
ENCODING 7748
SWIDTH 740 0
DWIDTH 39 0
BBX 31 48 4 1
BITMAP
00078000
00078000
00078000
00078000
00078000
00038000
00000000
00000000
00000000
00000000
FC00001E
FC00001E
FF00001E
FF00001E
FF00001E
F780001E
F3C0001E
F3E0001E
F3F0001E
F0F0001E
F0F0001E
F038001E
F038001E
F03E001E
F03E001E
F00E001E
F00E001E
F007801E
F007801E
F007E01E
F003E01E
F001F81E
F000F81E
F000781E
F000381E
F0001E1E
F0001E1E
F0001F9E
F0000F9E
F000079E
F00001FE
F00001FE
F00001FE
F00001FE
F000007E
F000007E
F000001E
F000001E
ENDCHAR
STARTCHAR $1E45
ENCODING 7749
SWIDTH 592 0
DWIDTH 31 0
BBX 25 37 4 0
BITMAP
00380000
00380000
00380000
00380000
00380000
00380000
00000000
00000000
F0FF8000
F1FFC000
FFFFF800
FFFFFC00
FF007E00
FC001E00
FC001E00
F0001E00
F0001E00
F0000780
F0000780
F0000780
F0000780
F0000780
F0000780
F0000780
F0000780
F0000780
F0000780
F0000780
F0000780
F0000780
F0000780
F0000780
F0000780
F0000780
F0000780
F0000780
F0000380
ENDCHAR
STARTCHAR $1E46
ENCODING 7750
SWIDTH 740 0
DWIDTH 39 0
BBX 31 48 4 -9
BITMAP
FC00001E
FC00001E
FF00001E
FF00001E
FF00001E
FF00001E
F3C0001E
F3C0001E
F3F0001E
F3F0001E
F0F0001E
F0F0001E
F038001E
F03E001E
F03E001E
F01E001E
F00E001E
F007801E
F007801E
F007E01E
F007E01E
F001F81E
F001F81E
F000781E
F000781E
F0001E1E
F0001E1E
F0001F9E
F0001F9E
F000079E
F000079E
F00001FE
F00001FE
F00001FE
F00001FE
F000007E
F000007E
F000001E
E000001C
00000000
00000000
00000000
00038000
00078000
00078000
00078000
00078000
00078000
ENDCHAR
STARTCHAR $1E47
ENCODING 7751
SWIDTH 592 0
DWIDTH 31 0
BBX 25 39 4 -10
BITMAP
F0FF8000
F0FF8000
FFFFF800
FFFFF800
FF007E00
FF007E00
FC001E00
FC001E00
F0001E00
F0000E00
F0000780
F0000780
F0000780
F0000780
F0000780
F0000780
F0000780
F0000780
F0000780
F0000780
F0000780
F0000780
F0000780
F0000780
F0000780
F0000780
F0000780
F0000780
F0000780
00000000
00000000
00000000
00000000
00380000
00380000
00380000
00380000
00380000
00380000
ENDCHAR
STARTCHAR $1E58
ENCODING 7768
SWIDTH 592 0
DWIDTH 31 0
BBX 27 48 4 1
BITMAP
00380000
00380000
00380000
00380000
00380000
00380000
00000000
00000000
00000000
00000000
FFFF8000
FFFFC000
FFFFF800
F0007E00
F0007E00
F0000780
F0000780
F0000780
F0000780
F00007E0
F00007E0
F00001E0
F00001E0
F00007E0
F00007E0
F0000780
F0000780
F0000780
F0000780
F0007E00
F0007E00
F0FFF800
F0FFF800
F03E0000
F03E0000
F00E0000
F00F0000
F0078000
F007C000
F007E000
F001F800
F001F800
F0007800
F0007800
F0001E00
F0001E00
F0001F80
F0001F80
ENDCHAR
STARTCHAR $1E59
ENCODING 7769
SWIDTH 296 0
DWIDTH 16 0
BBX 12 37 4 0
BITMAP
3C00
3C00
3C00
3C00
3C00
3C00
0000
0000
F0F0
F1F0
FFF0
FFE0
FF00
FC00
FC00
F000
F000
F000
F000
F000
F000
F000
F000
F000
F000
F000
F000
F000
F000
F000
F000
F000
F000
F000
F000
F000
F000
ENDCHAR
STARTCHAR $1E5A
ENCODING 7770
SWIDTH 592 0
DWIDTH 31 0
BBX 27 48 4 -9
BITMAP
FFFF8000
FFFF8000
FFFFF800
FFFFF800
F0007E00
F0007E00
F0000780
F0000780
F0000780
F0000780
F00007E0
F00003E0
F00001E0
F00003E0
F00007E0
F0000780
F0000780
F0000780
F0000780
F0003E00
F0007E00
F0FFF800
F0FFF800
F03E0000
F03E0000
F00E0000
F00E0000
F0078000
F0078000
F007E000
F003E000
F001F800
F000F800
F0007800
F0003800
F0001E00
F0001E00
F0001F80
E0000F80
00000000
00000000
00000000
00380000
00380000
00380000
00380000
00380000
00380000
ENDCHAR
STARTCHAR $1E5B
ENCODING 7771
SWIDTH 296 0
DWIDTH 16 0
BBX 12 39 4 -10
BITMAP
F0F0
F0F0
FFF0
FFE0
FF00
FF00
FC00
FC00
F000
F000
F000
F000
F000
F000
F000
F000
F000
F000
F000
F000
F000
F000
F000
F000
F000
F000
F000
F000
F000
0000
0000
0000
0000
F000
F000
F000
F000
F000
E000
ENDCHAR
STARTCHAR $1E5C
ENCODING 7772
SWIDTH 592 0
DWIDTH 31 0
BBX 27 56 4 -10
BITMAP
0FFFF800
0FFFF800
0FFFF800
0FFFF800
00000000
00000000
00000000
00000000
FFFF8000
FFFFC000
FFFFF800
FFFFFC00
F0007E00
F0000780
F0000780
F0000780
F0000780
F00007E0
F00007E0
F00001E0
F00001E0
F00007E0
F00007E0
F0000780
F0000780
F0000780
F0000780
F0007E00
F0007E00
F0FFF800
F0FFF800
F03E0000
F03E0000
F00E0000
F00F0000
F0078000
F007C000
F007E000
F003F000
F001F800
F0007800
F0007800
F0001E00
F0001E00
F0001F80
F0001F80
00000000
00000000
00000000
00000000
00380000
00380000
00380000
00380000
00380000
00380000
ENDCHAR
STARTCHAR $1E5D
ENCODING 7773
SWIDTH 296 0
DWIDTH 16 0
BBX 17 46 -2 -9
BITMAP
FFFF80
FFFF80
FFFF80
FFFF80
000000
000000
000000
000000
03C780
03C780
03FF80
03FF80
03F800
03F000
03F000
03C000
03C000
03C000
03C000
03C000
03C000
03C000
03C000
03C000
03C000
03C000
03C000
03C000
03C000
03C000
03C000
03C000
03C000
03C000
03C000
03C000
038000
000000
000000
000000
038000
03C000
03C000
03C000
03C000
03C000
ENDCHAR
STARTCHAR $1E62
ENCODING 7778
SWIDTH 481 0
DWIDTH 26 0
BBX 23 46 2 -7
BITMAP
03FE00
03FE00
0FFFE0
0FFFE0
3F01F8
3F00F8
3C0078
3C0078
F00078
F00038
F00000
F00000
FC0000
7E0000
3F0000
0FE000
0FF000
03FF80
03FF80
001FE0
000FE0
0001F8
0001F8
00007E
00007E
00001E
00001E
F0001E
F0001E
F0001E
F0001E
FC0078
FC0078
3F01F8
3F01F8
0FFFE0
0FFFE0
03FE00
03FE00
000000
003800
003800
003800
003800
003800
003800
ENDCHAR
STARTCHAR $1E63
ENCODING 7779
SWIDTH 370 0
DWIDTH 20 0
BBX 19 37 0 -8
BITMAP
03F800
03FC00
0FFF80
0FFF80
3F0780
3F0780
3C0780
3C0380
3C0000
3C0000
3F0000
3F0000
0FF000
01FE00
00FE00
001F80
000F80
0007E0
0007E0
F001E0
F001E0
3C01E0
3C01E0
3C0380
3C0780
0FFF80
0FFF80
03F800
03F800
000000
000000
00F000
00F000
00F000
00F000
00F000
00E000
ENDCHAR
STARTCHAR $1E6C
ENCODING 7788
SWIDTH 444 0
DWIDTH 24 0
BBX 21 48 0 -9
BITMAP
FFFFF8
FFFFF8
FFFFF8
FFFFF8
003800
003800
003800
003800
003800
003800
003800
003800
003800
003800
003800
003800
003800
003800
003800
003800
003800
003800
003800
003800
003800
003800
003800
003800
003800
003800
003800
003800
003800
003800
003800
003800
003800
003800
003800
000000
000000
000000
003800
003800
003800
003800
003800
003800
ENDCHAR
STARTCHAR $1E6D
ENCODING 7789
SWIDTH 333 0
DWIDTH 18 0
BBX 17 48 0 -9
BITMAP
03F000
03F000
03F000
03F000
03F000
03F000
03F000
03F000
03F000
07F000
FFFF80
FFFF80
FFFF80
07F000
03F000
03F000
03F000
03F000
03F000
03F000
03F000
03F000
03F000
03F000
03F000
03F000
03F000
03F000
03F000
03F000
03F000
03F000
03F000
03F000
03F000
03F000
03F000
03F000
03E000
000000
000000
000000
03E000
03F000
03F000
03F000
03F000
03F000
ENDCHAR
STARTCHAR $1E6E
ENCODING 7790
SWIDTH 444 0
DWIDTH 24 0
BBX 21 46 0 -7
BITMAP
FFFFF8
FFFFF8
FFFFF8
FFFFF8
003800
003800
003800
003800
003800
003800
003800
003800
003800
003800
003800
003800
003800
003800
003800
003800
003800
003800
003800
003800
003800
003800
003800
003800
003800
003800
003800
003800
003800
003800
003800
003800
003800
003800
003800
000000
000000
000000
3FFFE0
3FFFE0
3FFFE0
3FFFE0
ENDCHAR
ENDFONT
